<svg xmlns="http://www.w3.org/2000/svg" viewBox="0 0 104.34 102.22">
  <title>github</title>
  <path d="M52.4,2a50.35,50.35,0,0,0-15.91,98.14c2.53.46,3.43-1.11,3.43-2.44V89.14c-14.07,3.06-17-6.77-17-6.77A13.43,13.43,0,0,0,17.29,75c-4.54-3.09.37-3.09.37-3.09a10.59,10.59,0,0,1,7.7,5.19A10.76,10.76,0,0,0,40,81.31l0,0a10.65,10.65,0,0,1,3.09-6.74C31.91,73.28,20.16,69,20.16,49.82a19.51,19.51,0,0,1,5.17-13.51A18.34,18.34,0,0,1,25.82,23s4.24-1.36,13.85,5.16a47.55,47.55,0,0,1,25.22,0C74.51,21.63,78.71,23,78.71,23a18.32,18.32,0,0,1,.62,13.23,19.46,19.46,0,0,1,5.16,13.51c0,19.35-11.78,23.58-23,24.72a11.87,11.87,0,0,1,3.43,9.28V97.54c0,1.64.9,2.91,3.46,2.42a50.35,50.35,0,0,0-16-98Z" fill="none" stroke-miterlimit="10" fill-rule="evenodd"/>
</svg>
