<svg xmlns="http://www.w3.org/2000/svg" viewBox="0 0 1919.55 923.96">
  <title>jb</title>
  <path d="M573.45,186.34a13.33,13.33,0,1,1-13.32,13.32,13.34,13.34,0,0,1,13.32-13.32m0-1a14.33,14.33,0,1,0,14.33,14.32,14.32,14.32,0,0,0-14.33-14.32Z" transform="translate(-0.45 -77.9)"/>
  <path d="M36.26,737.85a13.33,13.33,0,1,1-13.32,13.33,13.35,13.35,0,0,1,13.32-13.33m0-1a14.33,14.33,0,1,0,14.33,14.33,14.32,14.32,0,0,0-14.33-14.33Z" transform="translate(-0.45 -77.9)"/>
  <path d="M251.14,623.25a13.33,13.33,0,1,1-13.33,13.33,13.34,13.34,0,0,1,13.33-13.33m0-1a14.33,14.33,0,1,0,14.32,14.33,14.34,14.34,0,0,0-14.32-14.33Z" transform="translate(-0.45 -77.9)"/>
  <path d="M143.7,846.29a12.33,12.33,0,1,1-12.32,12.32,12.34,12.34,0,0,1,12.32-12.32m0-2A14.33,14.33,0,1,0,158,858.61a14.32,14.32,0,0,0-14.33-14.32Z" transform="translate(-0.45 -77.9)"/>
  <path d="M143.7,515.81a13.33,13.33,0,1,1-13.32,13.33,13.35,13.35,0,0,1,13.32-13.33m0-1A14.33,14.33,0,1,0,158,529.14a14.33,14.33,0,0,0-14.33-14.33Z" transform="translate(-0.45 -77.9)"/>
  <path d="M251.14,515.81a13.33,13.33,0,1,1-13.33,13.33,13.34,13.34,0,0,1,13.33-13.33m0-1a14.33,14.33,0,1,0,14.32,14.33,14.34,14.34,0,0,0-14.32-14.33Z" transform="translate(-0.45 -77.9)"/>
  <path d="M251.14,845.29a13.33,13.33,0,1,1-13.33,13.32,13.33,13.33,0,0,1,13.33-13.32m0-1a14.33,14.33,0,1,0,14.32,14.32,14.33,14.33,0,0,0-14.32-14.32Z" transform="translate(-0.45 -77.9)"/>
  <path d="M251.14,952.73a13.33,13.33,0,1,1-13.33,13.32,13.33,13.33,0,0,1,13.33-13.32m0-1a14.33,14.33,0,1,0,14.32,14.32,14.33,14.33,0,0,0-14.32-14.32Z" transform="translate(-0.45 -77.9)"/>
  <path d="M358.58,737.85a13.33,13.33,0,1,1-13.33,13.33,13.34,13.34,0,0,1,13.33-13.33m0-1a14.33,14.33,0,1,0,14.32,14.33,14.32,14.32,0,0,0-14.32-14.33Z" transform="translate(-0.45 -77.9)"/>
  <path d="M143.7,293.78a13.33,13.33,0,1,1-13.32,13.32,13.34,13.34,0,0,1,13.32-13.32m0-1A14.33,14.33,0,1,0,158,307.1a14.32,14.32,0,0,0-14.33-14.32Z" transform="translate(-0.45 -77.9)"/>
  <path d="M1884.19,78.9a13.33,13.33,0,1,1-13.33,13.33,13.34,13.34,0,0,1,13.33-13.33m0-1a14.33,14.33,0,1,0,14.32,14.33,14.34,14.34,0,0,0-14.32-14.33Z" transform="translate(-0.45 -77.9)"/>
  <path d="M1884.19,186.34a13.33,13.33,0,1,1-13.33,13.32,13.33,13.33,0,0,1,13.33-13.32m0-1a14.33,14.33,0,1,0,14.32,14.32,14.33,14.33,0,0,0-14.32-14.32Z" transform="translate(-0.45 -77.9)"/>
  <path d="M1347,624.25a12.33,12.33,0,1,1-12.32,12.33A12.33,12.33,0,0,1,1347,624.25m0-2a14.33,14.33,0,1,0,14.32,14.33A14.33,14.33,0,0,0,1347,622.25Z" transform="translate(-0.45 -77.9)"/>
  <path d="M1454.44,623.25a13.33,13.33,0,1,1-13.33,13.33,13.34,13.34,0,0,1,13.33-13.33m0-1a14.33,14.33,0,1,0,14.32,14.33,14.34,14.34,0,0,0-14.32-14.33Z" transform="translate(-0.45 -77.9)"/>
  <path d="M1561.88,517.81a11.33,11.33,0,1,1-11.33,11.33,11.34,11.34,0,0,1,11.33-11.33m0-3a14.33,14.33,0,1,0,14.32,14.33,14.33,14.33,0,0,0-14.32-14.33Z" transform="translate(-0.45 -77.9)"/>
  <path d="M1669.31,623.25A13.33,13.33,0,1,1,1656,636.58a13.35,13.35,0,0,1,13.32-13.33m0-1a14.33,14.33,0,1,0,14.33,14.33,14.33,14.33,0,0,0-14.33-14.33Z" transform="translate(-0.45 -77.9)"/>
  <path d="M1454.44,737.85a13.33,13.33,0,1,1-13.33,13.33,13.34,13.34,0,0,1,13.33-13.33m0-1a14.33,14.33,0,1,0,14.32,14.33,14.33,14.33,0,0,0-14.32-14.33Z" transform="translate(-0.45 -77.9)"/>
  <path d="M1561.88,845.29a13.33,13.33,0,1,1-13.33,13.32,13.34,13.34,0,0,1,13.33-13.32m0-1a14.33,14.33,0,1,0,14.32,14.32,14.32,14.32,0,0,0-14.32-14.32Z" transform="translate(-0.45 -77.9)"/>
  <path d="M1669.31,845.29A13.33,13.33,0,1,1,1656,858.61a13.34,13.34,0,0,1,13.32-13.32m0-1a14.33,14.33,0,1,0,14.33,14.32,14.32,14.32,0,0,0-14.33-14.32Z" transform="translate(-0.45 -77.9)"/>
  <path d="M1669.31,952.73A13.33,13.33,0,1,1,1656,966.05a13.34,13.34,0,0,1,13.32-13.32m0-1a14.33,14.33,0,1,0,14.33,14.32,14.32,14.32,0,0,0-14.33-14.32Z" transform="translate(-0.45 -77.9)"/>
  <path d="M1884.19,952.73a13.33,13.33,0,1,1-13.33,13.32,13.33,13.33,0,0,1,13.33-13.32m0-1a14.33,14.33,0,1,0,14.32,14.32,14.33,14.33,0,0,0-14.32-14.32Z" transform="translate(-0.45 -77.9)"/>
  <path d="M1776.75,845.29a13.33,13.33,0,1,1-13.32,13.32,13.34,13.34,0,0,1,13.32-13.32m0-1a14.33,14.33,0,1,0,14.33,14.32,14.32,14.32,0,0,0-14.33-14.32Z" transform="translate(-0.45 -77.9)"/>
  <path d="M1776.75,625.25a11.33,11.33,0,1,1-11.32,11.33,11.35,11.35,0,0,1,11.32-11.33m0-3a14.33,14.33,0,1,0,14.33,14.33,14.33,14.33,0,0,0-14.33-14.33Z" transform="translate(-0.45 -77.9)"/>
  <path d="M1776.75,515.81a13.33,13.33,0,1,1-13.32,13.33,13.35,13.35,0,0,1,13.32-13.33m0-1a14.33,14.33,0,1,0,14.33,14.33,14.33,14.33,0,0,0-14.33-14.33Z" transform="translate(-0.45 -77.9)"/>
  <path d="M1884.19,408.38a13.33,13.33,0,1,1-13.33,13.32,13.33,13.33,0,0,1,13.33-13.32m0-1a14.33,14.33,0,1,0,14.32,14.32,14.33,14.33,0,0,0-14.32-14.32Z" transform="translate(-0.45 -77.9)"/>
  <path d="M1561.88,293.78a13.33,13.33,0,1,1-13.33,13.32,13.33,13.33,0,0,1,13.33-13.32m0-1a14.33,14.33,0,1,0,14.32,14.32,14.32,14.32,0,0,0-14.32-14.32Z" transform="translate(-0.45 -77.9)"/>
  <path d="M1454.44,294.78a12.33,12.33,0,1,1-12.33,12.32,12.34,12.34,0,0,1,12.33-12.32m0-2a14.33,14.33,0,1,0,14.32,14.32,14.33,14.33,0,0,0-14.32-14.32Z" transform="translate(-0.45 -77.9)"/>
  <path d="M1669.31,186.34A13.33,13.33,0,1,1,1656,199.66a13.34,13.34,0,0,1,13.32-13.32m0-1a14.33,14.33,0,1,0,14.33,14.32,14.32,14.32,0,0,0-14.33-14.32Z" transform="translate(-0.45 -77.9)"/>
  <path d="M36.26,408.38A13.33,13.33,0,1,1,22.94,421.7a13.34,13.34,0,0,1,13.32-13.32m0-1A14.33,14.33,0,1,0,50.59,421.7a14.32,14.32,0,0,0-14.33-14.32Z" transform="translate(-0.45 -77.9)"/>
  <path d="M251.14,293.78a13.33,13.33,0,1,1-13.33,13.32,13.33,13.33,0,0,1,13.33-13.32m0-1a14.33,14.33,0,1,0,14.32,14.32,14.33,14.33,0,0,0-14.32-14.32Z" transform="translate(-0.45 -77.9)"/>
  <path d="M358.58,293.78a13.33,13.33,0,1,1-13.33,13.32,13.33,13.33,0,0,1,13.33-13.32m0-1A14.33,14.33,0,1,0,372.9,307.1a14.32,14.32,0,0,0-14.32-14.32Z" transform="translate(-0.45 -77.9)"/>
  <path d="M466,515.81a13.33,13.33,0,1,1-13.32,13.33A13.35,13.35,0,0,1,466,515.81m0-1a14.33,14.33,0,1,0,14.33,14.33A14.33,14.33,0,0,0,466,514.81Z" transform="translate(-0.45 -77.9)"/>
  <path d="M1454.44,409.38a12.33,12.33,0,1,1-12.33,12.32,12.34,12.34,0,0,1,12.33-12.32m0-2a14.33,14.33,0,1,0,14.32,14.32,14.33,14.33,0,0,0-14.32-14.32Z" transform="translate(-0.45 -77.9)"/>
  <path d="M1776.75,408.38a13.33,13.33,0,1,1-13.32,13.32,13.34,13.34,0,0,1,13.32-13.32m0-1a14.33,14.33,0,1,0,14.33,14.32,14.32,14.32,0,0,0-14.33-14.32Z" transform="translate(-0.45 -77.9)"/>
  <path d="M1454.44,186.34a13.33,13.33,0,1,1-13.33,13.32,13.33,13.33,0,0,1,13.33-13.32m0-1a14.33,14.33,0,1,0,14.32,14.32,14.33,14.33,0,0,0-14.32-14.32Z" transform="translate(-0.45 -77.9)"/>
  <path d="M1561.88,78.9a13.33,13.33,0,1,1-13.33,13.33,13.34,13.34,0,0,1,13.33-13.33m0-1a14.33,14.33,0,1,0,14.32,14.33,14.33,14.33,0,0,0-14.32-14.33Z" transform="translate(-0.45 -77.9)"/>
  <path d="M1669.31,80.9A11.33,11.33,0,1,1,1658,92.23a11.34,11.34,0,0,1,11.32-11.33m0-3a14.33,14.33,0,1,0,14.33,14.33,14.33,14.33,0,0,0-14.33-14.33Z" transform="translate(-0.45 -77.9)"/>
  <path d="M1776.75,187.34a12.33,12.33,0,1,1-12.32,12.32,12.34,12.34,0,0,1,12.32-12.32m0-2a14.33,14.33,0,1,0,14.33,14.32,14.32,14.32,0,0,0-14.33-14.32Z" transform="translate(-0.45 -77.9)"/>
  <path d="M1347,78.9a13.33,13.33,0,1,1-13.32,13.33A13.34,13.34,0,0,1,1347,78.9m0-1a14.33,14.33,0,1,0,14.32,14.33A14.33,14.33,0,0,0,1347,77.9Z" transform="translate(-0.45 -77.9)"/>
  <path d="M1347,188.34a11.33,11.33,0,1,1-11.32,11.32A11.34,11.34,0,0,1,1347,188.34m0-3a14.33,14.33,0,1,0,14.32,14.32A14.32,14.32,0,0,0,1347,185.34Z" transform="translate(-0.45 -77.9)"/>
  <path d="M1228.82,79.9a12.33,12.33,0,1,1-12.33,12.33,12.33,12.33,0,0,1,12.33-12.33m0-2a14.33,14.33,0,1,0,14.32,14.33,14.34,14.34,0,0,0-14.32-14.33Z" transform="translate(-0.45 -77.9)"/>
  <path d="M1228.82,186.34a13.33,13.33,0,1,1-13.33,13.32,13.33,13.33,0,0,1,13.33-13.32m0-1a14.33,14.33,0,1,0,14.32,14.32,14.33,14.33,0,0,0-14.32-14.32Z" transform="translate(-0.45 -77.9)"/>
  <path d="M799.07,738.85a12.33,12.33,0,1,1-12.33,12.33,12.33,12.33,0,0,1,12.33-12.33m0-2a14.33,14.33,0,1,0,14.32,14.33,14.33,14.33,0,0,0-14.32-14.33Z" transform="translate(-0.45 -77.9)"/>
  <path d="M906.51,959.89a13.33,13.33,0,1,1-13.33,13.32,13.34,13.34,0,0,1,13.33-13.32m0-1a14.33,14.33,0,1,0,14.32,14.32,14.32,14.32,0,0,0-14.32-14.32Z" transform="translate(-0.45 -77.9)"/>
  <path d="M799.07,852.45a13.33,13.33,0,1,1-13.33,13.33,13.34,13.34,0,0,1,13.33-13.33m0-1a14.33,14.33,0,1,0,14.32,14.33,14.33,14.33,0,0,0-14.32-14.33Z" transform="translate(-0.45 -77.9)"/>
  <path d="M1228.82,853.45a12.33,12.33,0,1,1-12.33,12.33,12.33,12.33,0,0,1,12.33-12.33m0-2a14.33,14.33,0,1,0,14.32,14.33,14.33,14.33,0,0,0-14.32-14.33Z" transform="translate(-0.45 -77.9)"/>
  <path d="M1228.82,739.85a11.33,11.33,0,1,1-11.33,11.33,11.34,11.34,0,0,1,11.33-11.33m0-3a14.33,14.33,0,1,0,14.32,14.33,14.33,14.33,0,0,0-14.32-14.33Z" transform="translate(-0.45 -77.9)"/>
  <path d="M906.51,300.94a13.33,13.33,0,1,1-13.33,13.32,13.34,13.34,0,0,1,13.33-13.32m0-1a14.33,14.33,0,1,0,14.32,14.32,14.32,14.32,0,0,0-14.32-14.32Z" transform="translate(-0.45 -77.9)"/>
  <path d="M1013.94,410.38a11.33,11.33,0,1,1-11.32,11.32,11.34,11.34,0,0,1,11.32-11.32m0-3a14.33,14.33,0,1,0,14.33,14.32,14.32,14.32,0,0,0-14.33-14.32Z" transform="translate(-0.45 -77.9)"/>
  <path d="M1013.94,739.85a11.33,11.33,0,1,1-11.32,11.33,11.34,11.34,0,0,1,11.32-11.33m0-3a14.33,14.33,0,1,0,14.33,14.33,14.32,14.32,0,0,0-14.33-14.33Z" transform="translate(-0.45 -77.9)"/>
  <path d="M573.45,515.81a13.33,13.33,0,1,1-13.32,13.33,13.35,13.35,0,0,1,13.32-13.33m0-1a14.33,14.33,0,1,0,14.33,14.33,14.33,14.33,0,0,0-14.33-14.33Z" transform="translate(-0.45 -77.9)"/>
  <path d="M466,625.25a11.33,11.33,0,1,1-11.32,11.33A11.34,11.34,0,0,1,466,625.25m0-3a14.33,14.33,0,1,0,14.33,14.33A14.33,14.33,0,0,0,466,622.25Z" transform="translate(-0.45 -77.9)"/>
  <path d="M36.26,78.9A13.33,13.33,0,1,1,22.94,92.23,13.35,13.35,0,0,1,36.26,78.9m0-1A14.33,14.33,0,1,0,50.59,92.23,14.33,14.33,0,0,0,36.26,77.9Z" transform="translate(-0.45 -77.9)"/>
  <path d="M36.26,186.34a13.33,13.33,0,1,1-13.32,13.32,13.34,13.34,0,0,1,13.32-13.32m0-1a14.33,14.33,0,1,0,14.33,14.32,14.32,14.32,0,0,0-14.33-14.32Z" transform="translate(-0.45 -77.9)"/>
  <path d="M143.7,410.38a11.33,11.33,0,1,1-11.32,11.32,11.34,11.34,0,0,1,11.32-11.32m0-3A14.33,14.33,0,1,0,158,421.7a14.32,14.32,0,0,0-14.33-14.32Z" transform="translate(-0.45 -77.9)"/>
  <path d="M251.14,78.9a13.33,13.33,0,1,1-13.33,13.33A13.34,13.34,0,0,1,251.14,78.9m0-1a14.33,14.33,0,1,0,14.32,14.33A14.34,14.34,0,0,0,251.14,77.9Z" transform="translate(-0.45 -77.9)"/>
  <path d="M358.58,188.34a11.33,11.33,0,1,1-11.33,11.32,11.34,11.34,0,0,1,11.33-11.32m0-3a14.33,14.33,0,1,0,14.32,14.32,14.32,14.32,0,0,0-14.32-14.32Z" transform="translate(-0.45 -77.9)"/>
  <path d="M466,186.34a13.33,13.33,0,1,1-13.32,13.32A13.34,13.34,0,0,1,466,186.34m0-1a14.33,14.33,0,1,0,14.33,14.32A14.32,14.32,0,0,0,466,185.34Z" transform="translate(-0.45 -77.9)"/>
  <path d="M573.45,78.9a13.33,13.33,0,1,1-13.32,13.33A13.35,13.35,0,0,1,573.45,78.9m0-1a14.33,14.33,0,1,0,14.33,14.33A14.33,14.33,0,0,0,573.45,77.9Z" transform="translate(-0.45 -77.9)"/>
  <path d="M358.58,78.9a13.33,13.33,0,1,1-13.33,13.33A13.34,13.34,0,0,1,358.58,78.9m0-1A14.33,14.33,0,1,0,372.9,92.23,14.33,14.33,0,0,0,358.58,77.9Z" transform="translate(-0.45 -77.9)"/>
  <path d="M691.63,623.25a13.33,13.33,0,1,1-13.32,13.33,13.35,13.35,0,0,1,13.32-13.33m0-1A14.33,14.33,0,1,0,706,636.58a14.33,14.33,0,0,0-14.33-14.33Z" transform="translate(-0.45 -77.9)"/>
  <path d="M799.07,623.25a13.33,13.33,0,1,1-13.33,13.33,13.34,13.34,0,0,1,13.33-13.33m0-1a14.33,14.33,0,1,0,14.32,14.33,14.34,14.34,0,0,0-14.32-14.33Z" transform="translate(-0.45 -77.9)"/>
  <path d="M906.51,515.81a13.33,13.33,0,1,1-13.33,13.33,13.34,13.34,0,0,1,13.33-13.33m0-1a14.33,14.33,0,1,0,14.32,14.33,14.33,14.33,0,0,0-14.32-14.33Z" transform="translate(-0.45 -77.9)"/>
  <path d="M1013.94,623.25a13.33,13.33,0,1,1-13.32,13.33,13.35,13.35,0,0,1,13.32-13.33m0-1a14.33,14.33,0,1,0,14.33,14.33,14.33,14.33,0,0,0-14.33-14.33Z" transform="translate(-0.45 -77.9)"/>
  <path d="M1121.38,623.25a13.33,13.33,0,1,1-13.32,13.33,13.35,13.35,0,0,1,13.32-13.33m0-1a14.33,14.33,0,1,0,14.33,14.33,14.33,14.33,0,0,0-14.33-14.33Z" transform="translate(-0.45 -77.9)"/>
  <path d="M36.26,952.73a13.33,13.33,0,1,1-13.32,13.32,13.34,13.34,0,0,1,13.32-13.32m0-1a14.33,14.33,0,1,0,14.33,14.32,14.32,14.32,0,0,0-14.33-14.32Z" transform="translate(-0.45 -77.9)"/>
  <path d="M691.63,188.34a11.33,11.33,0,1,1-11.32,11.32,11.34,11.34,0,0,1,11.32-11.32m0-3A14.33,14.33,0,1,0,706,199.66a14.32,14.32,0,0,0-14.33-14.32Z" transform="translate(-0.45 -77.9)"/>
  <path d="M691.63,78.9a13.33,13.33,0,1,1-13.32,13.33A13.35,13.35,0,0,1,691.63,78.9m0-1A14.33,14.33,0,1,0,706,92.23,14.33,14.33,0,0,0,691.63,77.9Z" transform="translate(-0.45 -77.9)"/>
  <path d="M799.07,294.78a12.33,12.33,0,1,1-12.33,12.32,12.33,12.33,0,0,1,12.33-12.32m0-2a14.33,14.33,0,1,0,14.32,14.32,14.33,14.33,0,0,0-14.32-14.32Z" transform="translate(-0.45 -77.9)"/>
  <path d="M1013.94,186.34a13.33,13.33,0,1,1-13.32,13.32,13.34,13.34,0,0,1,13.32-13.32m0-1a14.33,14.33,0,1,0,14.33,14.32,14.32,14.32,0,0,0-14.33-14.32Z" transform="translate(-0.45 -77.9)"/>
  <path d="M1121.38,293.78a13.33,13.33,0,1,1-13.32,13.32,13.34,13.34,0,0,1,13.32-13.32m0-1a14.33,14.33,0,1,0,14.33,14.32,14.32,14.32,0,0,0-14.33-14.32Z" transform="translate(-0.45 -77.9)"/>
  <path d="M906.51,623.25a13.33,13.33,0,1,1-13.33,13.33,13.34,13.34,0,0,1,13.33-13.33m0-1a14.33,14.33,0,1,0,14.32,14.33,14.33,14.33,0,0,0-14.32-14.33Z" transform="translate(-0.45 -77.9)"/>
  <path d="M1121.38,845.29a13.33,13.33,0,1,1-13.32,13.32,13.34,13.34,0,0,1,13.32-13.32m0-1a14.33,14.33,0,1,0,14.33,14.32,14.32,14.32,0,0,0-14.33-14.32Z" transform="translate(-0.45 -77.9)"/>
  <path d="M1228.82,954.73a11.33,11.33,0,1,1-11.33,11.32,11.34,11.34,0,0,1,11.33-11.32m0-3a14.33,14.33,0,1,0,14.32,14.32,14.33,14.33,0,0,0-14.32-14.32Z" transform="translate(-0.45 -77.9)"/>
  <path d="M1121.38,952.73a13.33,13.33,0,1,1-13.32,13.32,13.34,13.34,0,0,1,13.32-13.32m0-1a14.33,14.33,0,1,0,14.33,14.32,14.32,14.32,0,0,0-14.33-14.32Z" transform="translate(-0.45 -77.9)"/>
  <path d="M906.51,186.34a13.33,13.33,0,1,1-13.33,13.32,13.34,13.34,0,0,1,13.33-13.32m0-1a14.33,14.33,0,1,0,14.32,14.32,14.32,14.32,0,0,0-14.32-14.32Z" transform="translate(-0.45 -77.9)"/>
  <path d="M1013.94,78.9a13.33,13.33,0,1,1-13.32,13.33,13.35,13.35,0,0,1,13.32-13.33m0-1a14.33,14.33,0,1,0,14.33,14.33,14.33,14.33,0,0,0-14.33-14.33Z" transform="translate(-0.45 -77.9)"/>
  <path d="M1121.38,78.9a13.33,13.33,0,1,1-13.32,13.33,13.35,13.35,0,0,1,13.32-13.33m0-1a14.33,14.33,0,1,0,14.33,14.33,14.33,14.33,0,0,0-14.33-14.33Z" transform="translate(-0.45 -77.9)"/>
  <path d="M799.07,167.85a31.82,31.82,0,1,1-31.81,31.81,31.85,31.85,0,0,1,31.81-31.81m0-4a35.82,35.82,0,1,0,35.81,35.81,35.81,35.81,0,0,0-35.81-35.81Z" transform="translate(-0.45 -77.9)"/>
  <path d="M1013.94,825.8a32.82,32.82,0,1,1-32.81,32.81,32.85,32.85,0,0,1,32.81-32.81m0-3a35.82,35.82,0,1,0,35.82,35.81,35.82,35.82,0,0,0-35.82-35.81Z" transform="translate(-0.45 -77.9)"/>
  <path d="M906.51,825.8a32.82,32.82,0,1,1-32.82,32.81,32.85,32.85,0,0,1,32.82-32.81m0-3a35.82,35.82,0,1,0,35.81,35.81,35.82,35.82,0,0,0-35.81-35.81Z" transform="translate(-0.45 -77.9)"/>
  <path d="M1228.82,496.33A32.81,32.81,0,1,1,1196,529.14a32.85,32.85,0,0,1,32.81-32.81m0-3a35.81,35.81,0,1,0,35.81,35.81,35.81,35.81,0,0,0-35.81-35.81Z" transform="translate(-0.45 -77.9)"/>
  <path d="M1013.94,496.33a32.81,32.81,0,1,1-32.81,32.81,32.85,32.85,0,0,1,32.81-32.81m0-3a35.81,35.81,0,1,0,35.82,35.81,35.81,35.81,0,0,0-35.82-35.81Z" transform="translate(-0.45 -77.9)"/>
  <path d="M691.63,496.33a32.81,32.81,0,1,1-32.81,32.81,32.85,32.85,0,0,1,32.81-32.81m0-3a35.81,35.81,0,1,0,35.81,35.81,35.81,35.81,0,0,0-35.81-35.81Z" transform="translate(-0.45 -77.9)"/>
  <path d="M1121.38,498.33a30.81,30.81,0,1,1-30.81,30.81,30.84,30.84,0,0,1,30.81-30.81m0-5a35.81,35.81,0,1,0,35.81,35.81,35.81,35.81,0,0,0-35.81-35.81Z" transform="translate(-0.45 -77.9)"/>
  <path d="M799.07,497.33a31.81,31.81,0,1,1-31.81,31.81,31.85,31.85,0,0,1,31.81-31.81m0-4a35.81,35.81,0,1,0,35.81,35.81,35.81,35.81,0,0,0-35.81-35.81Z" transform="translate(-0.45 -77.9)"/>
  <path d="M573.45,826.8a31.82,31.82,0,1,1-31.81,31.81,31.85,31.85,0,0,1,31.81-31.81m0-4a35.82,35.82,0,1,0,35.81,35.81,35.81,35.81,0,0,0-35.81-35.81Z" transform="translate(-0.45 -77.9)"/>
  <path d="M466,933.24a32.81,32.81,0,1,1-32.81,32.81A32.85,32.85,0,0,1,466,933.24m0-3a35.81,35.81,0,1,0,35.82,35.81A35.81,35.81,0,0,0,466,930.24Z" transform="translate(-0.45 -77.9)"/>
  <path d="M143.7,166.85a32.82,32.82,0,1,1-32.81,32.81,32.85,32.85,0,0,1,32.81-32.81m0-3a35.82,35.82,0,1,0,35.81,35.81,35.81,35.81,0,0,0-35.81-35.81Z" transform="translate(-0.45 -77.9)"/>
  <path d="M799.07,388.89a32.81,32.81,0,1,1-32.81,32.81,32.85,32.85,0,0,1,32.81-32.81m0-3a35.81,35.81,0,1,0,35.81,35.81,35.81,35.81,0,0,0-35.81-35.81Z" transform="translate(-0.45 -77.9)"/>
  <path d="M1013.94,281.45a32.82,32.82,0,1,1-32.81,32.81,32.85,32.85,0,0,1,32.81-32.81m0-3a35.82,35.82,0,1,0,35.82,35.81,35.82,35.82,0,0,0-35.82-35.81Z" transform="translate(-0.45 -77.9)"/>
  <path d="M906.51,388.89a32.81,32.81,0,1,1-32.82,32.81,32.85,32.85,0,0,1,32.82-32.81m0-3a35.81,35.81,0,1,0,35.81,35.81,35.82,35.82,0,0,0-35.81-35.81Z" transform="translate(-0.45 -77.9)"/>
  <path d="M691.63,388.89a32.81,32.81,0,1,1-32.81,32.81,32.85,32.85,0,0,1,32.81-32.81m0-3a35.81,35.81,0,1,0,35.81,35.81,35.81,35.81,0,0,0-35.81-35.81Z" transform="translate(-0.45 -77.9)"/>
  <path d="M1776.75,274.29a32.81,32.81,0,1,1-32.81,32.81,32.85,32.85,0,0,1,32.81-32.81m0-3a35.81,35.81,0,1,0,35.81,35.81,35.81,35.81,0,0,0-35.81-35.81Z" transform="translate(-0.45 -77.9)"/>
  <path d="M1561.88,167.85a31.82,31.82,0,1,1-31.82,31.81,31.85,31.85,0,0,1,31.82-31.81m0-4a35.82,35.82,0,1,0,35.81,35.81,35.82,35.82,0,0,0-35.81-35.81Z" transform="translate(-0.45 -77.9)"/>
  <path d="M1454.44,825.8a32.82,32.82,0,1,1-32.81,32.81,32.85,32.85,0,0,1,32.81-32.81m0-3a35.82,35.82,0,1,0,35.81,35.81,35.81,35.81,0,0,0-35.81-35.81Z" transform="translate(-0.45 -77.9)"/>
  <path d="M1347,934.24a31.81,31.81,0,1,1-31.81,31.81A31.85,31.85,0,0,1,1347,934.24m0-4a35.81,35.81,0,1,0,35.81,35.81A35.81,35.81,0,0,0,1347,930.24Z" transform="translate(-0.45 -77.9)"/>
  <path d="M1347,388.89a32.81,32.81,0,1,1-32.81,32.81A32.85,32.85,0,0,1,1347,388.89m0-3a35.81,35.81,0,1,0,35.81,35.81A35.81,35.81,0,0,0,1347,385.89Z" transform="translate(-0.45 -77.9)"/>
  <path d="M1561.88,388.89a32.81,32.81,0,1,1-32.82,32.81,32.85,32.85,0,0,1,32.82-32.81m0-3a35.81,35.81,0,1,0,35.81,35.81,35.82,35.82,0,0,0-35.81-35.81Z" transform="translate(-0.45 -77.9)"/>
  <path d="M1884.19,825.8a32.82,32.82,0,1,1-32.81,32.81,32.85,32.85,0,0,1,32.81-32.81m0-3A35.82,35.82,0,1,0,1920,858.61a35.81,35.81,0,0,0-35.81-35.81Z" transform="translate(-0.45 -77.9)"/>
  <path d="M1776.75,718.36a32.82,32.82,0,1,1-32.81,32.82,32.85,32.85,0,0,1,32.81-32.82m0-3a35.82,35.82,0,1,0,35.81,35.82,35.82,35.82,0,0,0-35.81-35.82Z" transform="translate(-0.45 -77.9)"/>
  <path d="M1561.88,718.36a32.82,32.82,0,1,1-32.82,32.82,32.85,32.85,0,0,1,32.82-32.82m0-3a35.82,35.82,0,1,0,35.81,35.82,35.82,35.82,0,0,0-35.81-35.82Z" transform="translate(-0.45 -77.9)"/>
  <path d="M1669.31,718.36a32.82,32.82,0,1,1-32.81,32.82,32.84,32.84,0,0,1,32.81-32.82m0-3a35.82,35.82,0,1,0,35.81,35.82,35.82,35.82,0,0,0-35.81-35.82Z" transform="translate(-0.45 -77.9)"/>
  <path d="M1669.31,496.33a32.81,32.81,0,1,1-32.81,32.81,32.84,32.84,0,0,1,32.81-32.81m0-3a35.81,35.81,0,1,0,35.81,35.81,35.81,35.81,0,0,0-35.81-35.81Z" transform="translate(-0.45 -77.9)"/>
  <path d="M1561.88,604.76a31.82,31.82,0,1,1-31.82,31.82,31.85,31.85,0,0,1,31.82-31.82m0-4a35.82,35.82,0,1,0,35.81,35.82,35.82,35.82,0,0,0-35.81-35.82Z" transform="translate(-0.45 -77.9)"/>
  <path d="M1454.44,496.33a32.81,32.81,0,1,1-32.81,32.81,32.85,32.85,0,0,1,32.81-32.81m0-3a35.81,35.81,0,1,0,35.81,35.81,35.81,35.81,0,0,0-35.81-35.81Z" transform="translate(-0.45 -77.9)"/>
  <path d="M573.45,388.89a32.81,32.81,0,1,1-32.81,32.81,32.85,32.85,0,0,1,32.81-32.81m0-3a35.81,35.81,0,1,0,35.81,35.81,35.81,35.81,0,0,0-35.81-35.81Z" transform="translate(-0.45 -77.9)"/>
  <path d="M573.45,275.29a31.81,31.81,0,1,1-31.81,31.81,31.85,31.85,0,0,1,31.81-31.81m0-4a35.81,35.81,0,1,0,35.81,35.81,35.81,35.81,0,0,0-35.81-35.81Z" transform="translate(-0.45 -77.9)"/>
  <path d="M358.58,496.33a32.81,32.81,0,1,1-32.82,32.81,32.85,32.85,0,0,1,32.82-32.81m0-3a35.81,35.81,0,1,0,35.81,35.81,35.82,35.82,0,0,0-35.81-35.81Z" transform="translate(-0.45 -77.9)"/>
  <path d="M143.7,718.36a32.82,32.82,0,1,1-32.81,32.82,32.85,32.85,0,0,1,32.81-32.82m0-3a35.82,35.82,0,1,0,35.81,35.82,35.82,35.82,0,0,0-35.81-35.82Z" transform="translate(-0.45 -77.9)"/>
  <path d="M466,388.89A32.81,32.81,0,1,1,433.2,421.7,32.85,32.85,0,0,1,466,388.89m0-3a35.81,35.81,0,1,0,35.82,35.81A35.81,35.81,0,0,0,466,385.89Z" transform="translate(-0.45 -77.9)"/>
  <path d="M358.58,389.89a31.81,31.81,0,1,1-31.82,31.81,31.85,31.85,0,0,1,31.82-31.81m0-4a35.81,35.81,0,1,0,35.81,35.81,35.82,35.82,0,0,0-35.81-35.81Z" transform="translate(-0.45 -77.9)"/>
  <path d="M358.58,603.76a32.82,32.82,0,1,1-32.82,32.82,32.85,32.85,0,0,1,32.82-32.82m0-3a35.82,35.82,0,1,0,35.81,35.82,35.82,35.82,0,0,0-35.81-35.82Z" transform="translate(-0.45 -77.9)"/>
  <path d="M143.7,603.76a32.82,32.82,0,1,1-32.81,32.82,32.85,32.85,0,0,1,32.81-32.82m0-3a35.82,35.82,0,1,0,35.81,35.82,35.82,35.82,0,0,0-35.81-35.82Z" transform="translate(-0.45 -77.9)"/>
  <path d="M251.14,718.36a32.82,32.82,0,1,1-32.81,32.82,32.85,32.85,0,0,1,32.81-32.82m0-3A35.82,35.82,0,1,0,287,751.18a35.82,35.82,0,0,0-35.81-35.82Z" transform="translate(-0.45 -77.9)"/>
  <path d="M36.26,825.8A32.82,32.82,0,1,1,3.45,858.61,32.85,32.85,0,0,1,36.26,825.8m0-3a35.82,35.82,0,1,0,35.82,35.81A35.81,35.81,0,0,0,36.26,822.8Z" transform="translate(-0.45 -77.9)"/>
  <path d="M1228.82,604.76A31.82,31.82,0,1,1,1197,636.58a31.85,31.85,0,0,1,31.81-31.82m0-4a35.82,35.82,0,1,0,35.81,35.82,35.82,35.82,0,0,0-35.81-35.82Z" transform="translate(-0.45 -77.9)"/>
  <path d="M1347,496.33a32.81,32.81,0,1,1-32.81,32.81A32.85,32.85,0,0,1,1347,496.33m0-3a35.81,35.81,0,1,0,35.81,35.81A35.81,35.81,0,0,0,1347,493.33Z" transform="translate(-0.45 -77.9)"/>
</svg>
