<svg xmlns="http://www.w3.org/2000/svg" viewBox="0 0 1768.99 737.39">
  <title>jb</title>
  <path d="M1238.09,255.82l19.62,19.62a6.93,6.93,0,0,1,0,9.81h0a6.93,6.93,0,0,1-9.81,0l-19.62-19.62a6.93,6.93,0,0,1,0-9.81h0A6.93,6.93,0,0,1,1238.09,255.82Z" transform="translate(-75.94 -170.45)" fill="none" stroke="#000" stroke-miterlimit="10" stroke-width="4"/>
  <path d="M1277.33,295.06,1297,314.68a6.93,6.93,0,0,1,0,9.81h0a6.93,6.93,0,0,1-9.81,0l-19.62-19.62a6.93,6.93,0,0,1,0-9.81h0A6.93,6.93,0,0,1,1277.33,295.06Z" transform="translate(-75.94 -170.45)" fill="none" stroke="#000" stroke-miterlimit="10" stroke-width="4"/>
  <path d="M1316.55,334.29a6.94,6.94,0,1,1-9.81,0A6.93,6.93,0,0,1,1316.55,334.29Z" transform="translate(-75.94 -170.45)" fill="none" stroke="#000" stroke-miterlimit="10" stroke-width="4"/>
  <path d="M803.88,179.93l19.62,19.62a6.93,6.93,0,0,1,0,9.81h0a6.93,6.93,0,0,1-9.81,0l-19.62-19.62a6.93,6.93,0,0,1,0-9.81h0A6.93,6.93,0,0,1,803.88,179.93Z" transform="translate(-75.94 -170.45)" fill="none" stroke="#000" stroke-miterlimit="10"/>
  <path d="M843,219.07a6.94,6.94,0,1,1-9.81,0A6.93,6.93,0,0,1,843,219.07Z" transform="translate(-75.94 -170.45)" fill="none" stroke="#000" stroke-miterlimit="10"/>
  <path d="M862.54,239a6.94,6.94,0,1,1-9.81,0A6.93,6.93,0,0,1,862.54,239Z" transform="translate(-75.94 -170.45)" fill="none" stroke="#000" stroke-miterlimit="10"/>
  <path d="M980.26,356.71l19.62,19.62a6.93,6.93,0,0,1,0,9.81h0a6.93,6.93,0,0,1-9.81,0l-19.62-19.62a6.93,6.93,0,0,1,0-9.81h0A6.93,6.93,0,0,1,980.26,356.71Z" transform="translate(-75.94 -170.45)" fill="none" stroke="#000" stroke-miterlimit="10" stroke-width="4"/>
  <path d="M941,317.47a6.94,6.94,0,1,1-9.81,0A6.93,6.93,0,0,1,941,317.47Z" transform="translate(-75.94 -170.45)" fill="none" stroke="#000" stroke-miterlimit="10" stroke-width="4"/>
  <path d="M960.62,337.09a6.94,6.94,0,1,1-9.81,0A6.93,6.93,0,0,1,960.62,337.09Z" transform="translate(-75.94 -170.45)" fill="none" stroke="#000" stroke-miterlimit="10" stroke-width="4"/>
  <path d="M1019.48,396a6.94,6.94,0,1,1-9.81,0A6.93,6.93,0,0,1,1019.48,396Z" transform="translate(-75.94 -170.45)" fill="none" stroke="#000" stroke-miterlimit="10" stroke-width="4"/>
  <path d="M1058.75,435.16l19.62,19.62a6.93,6.93,0,0,1,0,9.81h0a6.93,6.93,0,0,1-9.81,0L1048.94,445a6.93,6.93,0,0,1,0-9.81h0A6.93,6.93,0,0,1,1058.75,435.16Z" transform="translate(-75.94 -170.45)" fill="none" stroke="#000" stroke-miterlimit="10"/>
  <path d="M1098,474.4,1117.61,494a6.93,6.93,0,0,1,0,9.81h0a6.93,6.93,0,0,1-9.81,0l-19.62-19.62a6.93,6.93,0,0,1,0-9.81h0A6.93,6.93,0,0,1,1098,474.4Z" transform="translate(-75.94 -170.45)" fill="none" stroke="#000" stroke-miterlimit="10"/>
  <path d="M1137.21,513.63a6.94,6.94,0,1,1-9.81,0A6.93,6.93,0,0,1,1137.21,513.63Z" transform="translate(-75.94 -170.45)" fill="none" stroke="#000" stroke-miterlimit="10"/>
  <path d="M1228.73,186.8l19.62,19.62a6.93,6.93,0,0,1,0,9.81h0a7,7,0,0,1-9.81,0l-19.62-19.62a7,7,0,0,1,0-9.81h0A6.93,6.93,0,0,1,1228.73,186.8Z" transform="translate(-75.94 -170.45)" fill="none" stroke="#000" stroke-miterlimit="10" stroke-width="2"/>
  <path d="M1268,226l19.62,19.62a6.93,6.93,0,0,1,0,9.81h0a7,7,0,0,1-9.81,0l-19.62-19.62a7,7,0,0,1,0-9.81h0A6.93,6.93,0,0,1,1268,226Z" transform="translate(-75.94 -170.45)" fill="none" stroke="#000" stroke-miterlimit="10" stroke-width="2"/>
  <path d="M1326.83,285.05l19.62,19.62a6.93,6.93,0,0,1,0,9.81h0a6.93,6.93,0,0,1-9.81,0L1317,294.86a6.93,6.93,0,0,1,0-9.81h0A6.93,6.93,0,0,1,1326.83,285.05Z" transform="translate(-75.94 -170.45)" fill="none" stroke="#000" stroke-miterlimit="10"/>
  <path d="M1366.06,324.29a6.94,6.94,0,1,1-9.81,0A6.93,6.93,0,0,1,1366.06,324.29Z" transform="translate(-75.94 -170.45)" fill="none" stroke="#000" stroke-miterlimit="10"/>
  <path d="M1139.79,275.74l19.62,19.62a6.93,6.93,0,0,1,0,9.81h0a6.93,6.93,0,0,1-9.81,0L1130,285.55a6.93,6.93,0,0,1,0-9.81h0A6.93,6.93,0,0,1,1139.79,275.74Z" transform="translate(-75.94 -170.45)" fill="none" stroke="#000" stroke-miterlimit="10"/>
  <path d="M1179,315l19.62,19.62a6.93,6.93,0,0,1,0,9.81h0a6.93,6.93,0,0,1-9.81,0l-19.62-19.62a6.93,6.93,0,0,1,0-9.81h0A6.93,6.93,0,0,1,1179,315Z" transform="translate(-75.94 -170.45)" fill="none" stroke="#000" stroke-miterlimit="10"/>
  <path d="M1237.89,374l19.62,19.62a6.93,6.93,0,0,1,0,9.81h0a6.93,6.93,0,0,1-9.81,0l-19.62-19.62a6.93,6.93,0,0,1,0-9.81h0A7,7,0,0,1,1237.89,374Z" transform="translate(-75.94 -170.45)" fill="none" stroke="#000" stroke-miterlimit="10"/>
  <path d="M1277.12,413.23a6.94,6.94,0,1,1-9.81,0A6.93,6.93,0,0,1,1277.12,413.23Z" transform="translate(-75.94 -170.45)" fill="none" stroke="#000" stroke-miterlimit="10"/>
  <path d="M1050.28,365.25l19.62,19.62a6.93,6.93,0,0,1,0,9.81h0a6.93,6.93,0,0,1-9.81,0l-19.62-19.62a6.93,6.93,0,0,1,0-9.81h0A7,7,0,0,1,1050.28,365.25Z" transform="translate(-75.94 -170.45)" fill="none" stroke="#000" stroke-miterlimit="10"/>
  <path d="M1089.52,404.49l19.62,19.62a7,7,0,0,1,0,9.81h0a6.93,6.93,0,0,1-9.81,0l-19.62-19.62a6.93,6.93,0,0,1,0-9.81h0A7,7,0,0,1,1089.52,404.49Z" transform="translate(-75.94 -170.45)" fill="none" stroke="#000" stroke-miterlimit="10"/>
  <path d="M952,267.19l19.62,19.62a6.93,6.93,0,0,1,0,9.81h0a6.93,6.93,0,0,1-9.81,0L942.19,277a6.93,6.93,0,0,1,0-9.81h0A7,7,0,0,1,952,267.19Z" transform="translate(-75.94 -170.45)" fill="none" stroke="#000" stroke-miterlimit="10"/>
  <path d="M932.37,247.57a6.94,6.94,0,1,1-9.81,0A6.93,6.93,0,0,1,932.37,247.57Z" transform="translate(-75.94 -170.45)" fill="none" stroke="#000" stroke-miterlimit="10"/>
  <path d="M991.23,306.43a6.94,6.94,0,1,1-9.81,0A6.93,6.93,0,0,1,991.23,306.43Z" transform="translate(-75.94 -170.45)" fill="none" stroke="#000" stroke-miterlimit="10"/>
  <path d="M1010.85,326.05a6.94,6.94,0,1,1-9.81,0A6.93,6.93,0,0,1,1010.85,326.05Z" transform="translate(-75.94 -170.45)" fill="none" stroke="#000" stroke-miterlimit="10"/>
  <path d="M1148.37,463.51,1168,483.13a6.93,6.93,0,0,1,0,9.81h0a6.93,6.93,0,0,1-9.81,0l-19.62-19.62a7,7,0,0,1,0-9.81h0A6.93,6.93,0,0,1,1148.37,463.51Z" transform="translate(-75.94 -170.45)" fill="none" stroke="#000" stroke-miterlimit="10"/>
  <path d="M1187.6,502.75a6.94,6.94,0,1,1-9.81,0A6.93,6.93,0,0,1,1187.6,502.75Z" transform="translate(-75.94 -170.45)" fill="none" stroke="#000" stroke-miterlimit="10"/>
  <path d="M1031.59,227.61l19.62,19.62a6.93,6.93,0,0,1,0,9.81h0a6.93,6.93,0,0,1-9.81,0l-19.62-19.62a6.93,6.93,0,0,1,0-9.81h0A7,7,0,0,1,1031.59,227.61Z" transform="translate(-75.94 -170.45)" fill="none" stroke="#000" stroke-miterlimit="10"/>
  <path d="M1090.45,286.47l19.62,19.62a6.93,6.93,0,0,1,0,9.81h0a6.93,6.93,0,0,1-9.81,0l-19.62-19.62a6.93,6.93,0,0,1,0-9.81h0A6.93,6.93,0,0,1,1090.45,286.47Z" transform="translate(-75.94 -170.45)" fill="none" stroke="#000" stroke-miterlimit="10"/>
  <path d="M1129.69,325.71l19.62,19.62a6.93,6.93,0,0,1,0,9.81h0a6.93,6.93,0,0,1-9.81,0l-19.62-19.62a6.93,6.93,0,0,1,0-9.81h0A6.93,6.93,0,0,1,1129.69,325.71Z" transform="translate(-75.94 -170.45)" fill="none" stroke="#000" stroke-miterlimit="10"/>
  <path d="M1070.82,266.85a6.94,6.94,0,1,1-9.81,0A6.93,6.93,0,0,1,1070.82,266.85Z" transform="translate(-75.94 -170.45)" fill="none" stroke="#000" stroke-miterlimit="10"/>
  <path d="M1188.61,384.52l19.62,19.62a7,7,0,0,1,0,9.81h0a7,7,0,0,1-9.81,0l-19.62-19.62a6.93,6.93,0,0,1,0-9.81h0A6.93,6.93,0,0,1,1188.61,384.52Z" transform="translate(-75.94 -170.45)" fill="none" stroke="#000" stroke-miterlimit="10"/>
  <path d="M1227.84,423.76l19.62,19.62a6.93,6.93,0,0,1,0,9.81h0a7,7,0,0,1-9.81,0L1218,433.57a6.93,6.93,0,0,1,0-9.81h0A6.92,6.92,0,0,1,1227.84,423.76Z" transform="translate(-75.94 -170.45)" fill="none" stroke="#000" stroke-miterlimit="10"/>
  <path d="M1267.07,463a6.94,6.94,0,1,1-9.81,0A6.93,6.93,0,0,1,1267.07,463Z" transform="translate(-75.94 -170.45)" fill="none" stroke="#000" stroke-miterlimit="10"/>
  <path d="M1286.69,482.61a6.94,6.94,0,1,1-9.81,0A6.93,6.93,0,0,1,1286.69,482.61Z" transform="translate(-75.94 -170.45)" fill="none" stroke="#000" stroke-miterlimit="10"/>
  <path d="M1139.15,394.2l19.62,19.62a6.93,6.93,0,0,1,0,9.81h0a6.93,6.93,0,0,1-9.81,0L1129.34,404a6.93,6.93,0,0,1,0-9.81h0A6.93,6.93,0,0,1,1139.15,394.2Z" transform="translate(-75.94 -170.45)" fill="none" stroke="#000" stroke-miterlimit="10"/>
  <path d="M982,237.25l19.62,19.62a7,7,0,0,1,0,9.81h0a6.93,6.93,0,0,1-9.81,0l-19.62-19.62a6.93,6.93,0,0,1,0-9.81h0A6.93,6.93,0,0,1,982,237.25Z" transform="translate(-75.94 -170.45)" fill="none" stroke="#000" stroke-miterlimit="10"/>
  <path d="M962.4,217.62a6.94,6.94,0,1,1-9.81,0A6.93,6.93,0,0,1,962.4,217.62Z" transform="translate(-75.94 -170.45)" fill="none" stroke="#000" stroke-miterlimit="10"/>
  <path d="M1021.26,276.48a6.94,6.94,0,1,1-9.81,0A6.93,6.93,0,0,1,1021.26,276.48Z" transform="translate(-75.94 -170.45)" fill="none" stroke="#000" stroke-miterlimit="10"/>
  <path d="M1099.7,355.17a6.94,6.94,0,1,1-9.81,0A6.93,6.93,0,0,1,1099.7,355.17Z" transform="translate(-75.94 -170.45)" fill="none" stroke="#000" stroke-miterlimit="10"/>
  <path d="M1080.08,335.55a6.94,6.94,0,1,1-9.81,0A6.93,6.93,0,0,1,1080.08,335.55Z" transform="translate(-75.94 -170.45)" fill="none" stroke="#000" stroke-miterlimit="10"/>
  <path d="M1060.46,315.93a6.94,6.94,0,1,1-9.81,0A6.93,6.93,0,0,1,1060.46,315.93Z" transform="translate(-75.94 -170.45)" fill="none" stroke="#000" stroke-miterlimit="10"/>
  <path d="M1228.5,304.86l19.62,19.61a6.93,6.93,0,0,1,0,9.81h0a6.93,6.93,0,0,1-9.81,0l-19.62-19.62a6.92,6.92,0,0,1,0-9.8h0A6.93,6.93,0,0,1,1228.5,304.86Z" transform="translate(-75.94 -170.45)" fill="none" stroke="#000" stroke-miterlimit="10"/>
  <path d="M1189.05,265.83a6.94,6.94,0,1,1-9.81,0A6.93,6.93,0,0,1,1189.05,265.83Z" transform="translate(-75.94 -170.45)" fill="none" stroke="#000" stroke-miterlimit="10"/>
  <path d="M1169.43,246.21a6.94,6.94,0,1,1-9.81,0A6.93,6.93,0,0,1,1169.43,246.21Z" transform="translate(-75.94 -170.45)" fill="none" stroke="#000" stroke-miterlimit="10"/>
  <path d="M1149.81,226.59a6.94,6.94,0,1,1-9.81,0A6.93,6.93,0,0,1,1149.81,226.59Z" transform="translate(-75.94 -170.45)" fill="none" stroke="#000" stroke-miterlimit="10"/>
  <path d="M774,209.77l19.62,19.62a6.93,6.93,0,0,1,0,9.81h0a6.93,6.93,0,0,1-9.81,0l-19.62-19.62a6.93,6.93,0,0,1,0-9.81h0A6.93,6.93,0,0,1,774,209.77Z" transform="translate(-75.94 -170.45)" fill="none" stroke="#000" stroke-miterlimit="10"/>
  <path d="M813.17,248.91a6.94,6.94,0,1,1-9.81,0A6.93,6.93,0,0,1,813.17,248.91Z" transform="translate(-75.94 -170.45)" fill="none" stroke="#000" stroke-miterlimit="10"/>
  <path d="M832.7,268.82a6.94,6.94,0,1,1-9.81,0A6.93,6.93,0,0,1,832.7,268.82Z" transform="translate(-75.94 -170.45)" fill="none" stroke="#000" stroke-miterlimit="10"/>
  <path d="M950.42,386.55,970,406.17a6.93,6.93,0,0,1,0,9.81h0a6.93,6.93,0,0,1-9.81,0l-19.62-19.62a6.93,6.93,0,0,1,0-9.81h0A6.93,6.93,0,0,1,950.42,386.55Z" transform="translate(-75.94 -170.45)" fill="none" stroke="#000" stroke-miterlimit="10"/>
  <path d="M911.17,347.31a6.94,6.94,0,1,1-9.81,0A7,7,0,0,1,911.17,347.31Z" transform="translate(-75.94 -170.45)" fill="none" stroke="#000" stroke-miterlimit="10"/>
  <path d="M930.79,366.93a6.94,6.94,0,1,1-9.81,0A7,7,0,0,1,930.79,366.93Z" transform="translate(-75.94 -170.45)" fill="none" stroke="#000" stroke-miterlimit="10"/>
  <path d="M989.64,425.79a6.94,6.94,0,1,1-9.81,0A6.93,6.93,0,0,1,989.64,425.79Z" transform="translate(-75.94 -170.45)" fill="none" stroke="#000" stroke-miterlimit="10"/>
  <path d="M1028.91,465l19.62,19.62a6.93,6.93,0,0,1,0,9.81h0a6.93,6.93,0,0,1-9.81,0l-19.62-19.62a6.93,6.93,0,0,1,0-9.81h0A6.93,6.93,0,0,1,1028.91,465Z" transform="translate(-75.94 -170.45)" fill="none" stroke="#000" stroke-miterlimit="10" stroke-width="3"/>
  <path d="M1068.15,504.24l19.62,19.62a6.93,6.93,0,0,1,0,9.81h0a6.93,6.93,0,0,1-9.81,0l-19.62-19.62a6.93,6.93,0,0,1,0-9.81h0A6.93,6.93,0,0,1,1068.15,504.24Z" transform="translate(-75.94 -170.45)" fill="none" stroke="#000" stroke-miterlimit="10" stroke-width="3"/>
  <path d="M1107.38,543.47a6.94,6.94,0,1,1-9.81,0A7,7,0,0,1,1107.38,543.47Z" transform="translate(-75.94 -170.45)" fill="none" stroke="#000" stroke-miterlimit="10" stroke-width="3"/>
  <path d="M487.39,221.64,507,241.26a6.93,6.93,0,0,1,0,9.81h0a6.92,6.92,0,0,1-9.8,0l-19.62-19.62a6.93,6.93,0,0,1,0-9.81h0A6.93,6.93,0,0,1,487.39,221.64Z" transform="translate(-75.94 -170.45)" fill="none" stroke="#000" stroke-miterlimit="10"/>
  <path d="M546.24,280.5l19.62,19.62a6.93,6.93,0,0,1,0,9.81h0a6.93,6.93,0,0,1-9.81,0l-19.62-19.62a7,7,0,0,1,0-9.81h0A6.93,6.93,0,0,1,546.24,280.5Z" transform="translate(-75.94 -170.45)" fill="none" stroke="#000" stroke-miterlimit="10"/>
  <path d="M526.58,260.85a6.94,6.94,0,1,1-9.81,0A6.93,6.93,0,0,1,526.58,260.85Z" transform="translate(-75.94 -170.45)" fill="none" stroke="#000" stroke-miterlimit="10"/>
  <path d="M585.53,319.8a6.94,6.94,0,1,1-9.81,0A6.93,6.93,0,0,1,585.53,319.8Z" transform="translate(-75.94 -170.45)" fill="none" stroke="#000" stroke-miterlimit="10"/>
  <path d="M625,358.85l19.62,19.62a6.93,6.93,0,0,1,0,9.81h0a6.93,6.93,0,0,1-9.81,0l-19.62-19.62a6.93,6.93,0,0,1,0-9.81h0A6.93,6.93,0,0,1,625,358.85Z" transform="translate(-75.94 -170.45)" fill="none" stroke="#000" stroke-miterlimit="10"/>
  <path d="M664.09,398a6.94,6.94,0,1,1-9.81,0A6.93,6.93,0,0,1,664.09,398Z" transform="translate(-75.94 -170.45)" fill="none" stroke="#000" stroke-miterlimit="10"/>
  <path d="M683.62,417.9a6.94,6.94,0,1,1-9.81,0A6.93,6.93,0,0,1,683.62,417.9Z" transform="translate(-75.94 -170.45)" fill="none" stroke="#000" stroke-miterlimit="10"/>
  <path d="M801.34,535.63,821,555.25a6.93,6.93,0,0,1,0,9.81h0a6.93,6.93,0,0,1-9.81,0l-19.62-19.62a6.93,6.93,0,0,1,0-9.81h0A6.93,6.93,0,0,1,801.34,535.63Z" transform="translate(-75.94 -170.45)" fill="none" stroke="#000" stroke-miterlimit="10"/>
  <path d="M762.09,496.39a6.94,6.94,0,1,1-9.81,0A6.93,6.93,0,0,1,762.09,496.39Z" transform="translate(-75.94 -170.45)" fill="none" stroke="#000" stroke-miterlimit="10"/>
  <path d="M781.71,516a6.94,6.94,0,1,1-9.81,0A6.93,6.93,0,0,1,781.71,516Z" transform="translate(-75.94 -170.45)" fill="none" stroke="#000" stroke-miterlimit="10"/>
  <path d="M840.57,574.86a6.94,6.94,0,1,1-9.81,0A7,7,0,0,1,840.57,574.86Z" transform="translate(-75.94 -170.45)" fill="none" stroke="#000" stroke-miterlimit="10"/>
  <path d="M879.83,614.08l19.62,19.62a6.93,6.93,0,0,1,0,9.81h0a6.93,6.93,0,0,1-9.81,0L870,623.89a6.93,6.93,0,0,1,0-9.81h0A6.93,6.93,0,0,1,879.83,614.08Z" transform="translate(-75.94 -170.45)" fill="none" stroke="#000" stroke-miterlimit="10"/>
  <path d="M919.07,653.32l19.62,19.62a6.93,6.93,0,0,1,0,9.81h0a6.93,6.93,0,0,1-9.81,0l-19.62-19.62a6.93,6.93,0,0,1,0-9.81h0A6.93,6.93,0,0,1,919.07,653.32Z" transform="translate(-75.94 -170.45)" fill="none" stroke="#000" stroke-miterlimit="10"/>
  <path d="M958.3,692.55a6.94,6.94,0,1,1-9.81,0A6.93,6.93,0,0,1,958.3,692.55Z" transform="translate(-75.94 -170.45)" fill="none" stroke="#000" stroke-miterlimit="10"/>
  <path d="M131.38,224.29,151,243.91a6.93,6.93,0,0,1,0,9.81h0a6.93,6.93,0,0,1-9.81,0L121.57,234.1a6.93,6.93,0,0,1,0-9.81h0A6.93,6.93,0,0,1,131.38,224.29Z" transform="translate(-75.94 -170.45)" fill="none" stroke="#000" stroke-miterlimit="10"/>
  <path d="M111.75,204.67a6.94,6.94,0,1,1-9.81,0A6.93,6.93,0,0,1,111.75,204.67Z" transform="translate(-75.94 -170.45)" fill="none" stroke="#000" stroke-miterlimit="10"/>
  <path d="M190.7,282.86l19.62,19.62a6.93,6.93,0,0,1,0,9.81h0a6.93,6.93,0,0,1-9.81,0l-19.62-19.62a6.93,6.93,0,0,1,0-9.81h0A6.93,6.93,0,0,1,190.7,282.86Z" transform="translate(-75.94 -170.45)" fill="none" stroke="#000" stroke-miterlimit="10"/>
  <path d="M230.18,322.35a6.94,6.94,0,1,1-9.81,0A6.93,6.93,0,0,1,230.18,322.35Z" transform="translate(-75.94 -170.45)" fill="none" stroke="#000" stroke-miterlimit="10"/>
  <path d="M249.23,342a6.94,6.94,0,1,1-9.81,0A6.93,6.93,0,0,1,249.23,342Z" transform="translate(-75.94 -170.45)" fill="none" stroke="#000" stroke-miterlimit="10"/>
  <path d="M269.16,361.33a6.94,6.94,0,1,1-9.81,0A6.93,6.93,0,0,1,269.16,361.33Z" transform="translate(-75.94 -170.45)" fill="none" stroke="#000" stroke-miterlimit="10"/>
  <path d="M308.05,401l19.62,19.62a6.93,6.93,0,0,1,0,9.81h0a6.93,6.93,0,0,1-9.81,0l-19.62-19.62a6.93,6.93,0,0,1,0-9.81h0A6.93,6.93,0,0,1,308.05,401Z" transform="translate(-75.94 -170.45)" fill="none" stroke="#000" stroke-miterlimit="10" stroke-width="4"/>
  <path d="M366.91,459.84l19.62,19.62a6.93,6.93,0,0,1,0,9.81h0a6.93,6.93,0,0,1-9.81,0L357.1,469.65a6.93,6.93,0,0,1,0-9.81h0A6.93,6.93,0,0,1,366.91,459.84Z" transform="translate(-75.94 -170.45)" fill="none" stroke="#000" stroke-miterlimit="10" stroke-width="4"/>
  <path d="M347.24,440.18a6.94,6.94,0,1,1-9.81,0A6.93,6.93,0,0,1,347.24,440.18Z" transform="translate(-75.94 -170.45)" fill="none" stroke="#000" stroke-miterlimit="10" stroke-width="4"/>
  <path d="M406.2,499.14a6.94,6.94,0,1,1-9.81,0A6.93,6.93,0,0,1,406.2,499.14Z" transform="translate(-75.94 -170.45)" fill="none" stroke="#000" stroke-miterlimit="10" stroke-width="4"/>
  <path d="M445.62,538.19l19.62,19.62a6.93,6.93,0,0,1,0,9.81h0a6.93,6.93,0,0,1-9.81,0L435.81,548a7,7,0,0,1,0-9.81h0A6.93,6.93,0,0,1,445.62,538.19Z" transform="translate(-75.94 -170.45)" fill="none" stroke="#000" stroke-miterlimit="10"/>
  <path d="M484.76,577.33a6.94,6.94,0,1,1-9.81,0A7,7,0,0,1,484.76,577.33Z" transform="translate(-75.94 -170.45)" fill="none" stroke="#000" stroke-miterlimit="10"/>
  <path d="M504.28,597.23a6.94,6.94,0,1,1-9.81,0A6.93,6.93,0,0,1,504.28,597.23Z" transform="translate(-75.94 -170.45)" fill="none" stroke="#000" stroke-miterlimit="10"/>
  <path d="M543.51,636.48a6.94,6.94,0,1,1-9.81,0A6.93,6.93,0,0,1,543.51,636.48Z" transform="translate(-75.94 -170.45)" fill="none" stroke="#000" stroke-miterlimit="10"/>
  <path d="M622,715l19.62,19.62a6.93,6.93,0,0,1,0,9.81h0a6.93,6.93,0,0,1-9.81,0l-19.62-19.62a6.93,6.93,0,0,1,0-9.81h0A6.93,6.93,0,0,1,622,715Z" transform="translate(-75.94 -170.45)" fill="none" stroke="#000" stroke-miterlimit="10" stroke-width="4"/>
  <path d="M582.75,675.72a6.94,6.94,0,1,1-9.81,0A6.93,6.93,0,0,1,582.75,675.72Z" transform="translate(-75.94 -170.45)" fill="none" stroke="#000" stroke-miterlimit="10" stroke-width="4"/>
  <path d="M602.37,695.34a6.94,6.94,0,1,1-9.81,0A6.93,6.93,0,0,1,602.37,695.34Z" transform="translate(-75.94 -170.45)" fill="none" stroke="#000" stroke-miterlimit="10" stroke-width="4"/>
  <path d="M661.23,754.2a6.94,6.94,0,1,1-9.81,0A6.93,6.93,0,0,1,661.23,754.2Z" transform="translate(-75.94 -170.45)" fill="none" stroke="#000" stroke-miterlimit="10" stroke-width="4"/>
  <path d="M700.49,793.42,720.11,813a6.93,6.93,0,0,1,0,9.81h0a7,7,0,0,1-9.81,0l-19.62-19.62a6.93,6.93,0,0,1,0-9.81h0A6.93,6.93,0,0,1,700.49,793.42Z" transform="translate(-75.94 -170.45)" fill="none" stroke="#000" stroke-miterlimit="10"/>
  <path d="M739.73,832.66l19.62,19.61a6.93,6.93,0,0,1,0,9.81h0a6.93,6.93,0,0,1-9.81,0l-19.62-19.62a6.92,6.92,0,0,1,0-9.8h0A6.93,6.93,0,0,1,739.73,832.66Z" transform="translate(-75.94 -170.45)" fill="none" stroke="#000" stroke-miterlimit="10"/>
  <path d="M779,871.89a6.94,6.94,0,1,1-9.81,0A6.93,6.93,0,0,1,779,871.89Z" transform="translate(-75.94 -170.45)" fill="none" stroke="#000" stroke-miterlimit="10"/>
  <path d="M960,455.58l19.62,19.62a6.93,6.93,0,0,1,0,9.81h0a6.93,6.93,0,0,1-9.81,0l-19.62-19.62a6.93,6.93,0,0,1,0-9.81h0A6.93,6.93,0,0,1,960,455.58Z" transform="translate(-75.94 -170.45)" fill="none" stroke="#000" stroke-miterlimit="10"/>
  <path d="M999.19,494.82l19.62,19.62a6.93,6.93,0,0,1,0,9.81h0a6.93,6.93,0,0,1-9.81,0l-19.62-19.62a6.93,6.93,0,0,1,0-9.81h0A6.93,6.93,0,0,1,999.19,494.82Z" transform="translate(-75.94 -170.45)" fill="none" stroke="#000" stroke-miterlimit="10"/>
  <path d="M724.27,220.08l19.62,19.61a6.93,6.93,0,0,1,0,9.81h0a6.93,6.93,0,0,1-9.81,0l-19.62-19.61a6.93,6.93,0,0,1,0-9.81h0A6.93,6.93,0,0,1,724.27,220.08Z" transform="translate(-75.94 -170.45)" fill="none" stroke="#000" stroke-miterlimit="10" stroke-width="2"/>
  <path d="M783.13,278.93l19.62,19.62a7,7,0,0,1,0,9.81h0a6.93,6.93,0,0,1-9.81,0l-19.62-19.62a6.93,6.93,0,0,1,0-9.81h0A7,7,0,0,1,783.13,278.93Z" transform="translate(-75.94 -170.45)" fill="none" stroke="#000" stroke-miterlimit="10" stroke-width="2"/>
  <path d="M763.49,259.31a6.94,6.94,0,1,1-9.81,0A6.93,6.93,0,0,1,763.49,259.31Z" transform="translate(-75.94 -170.45)" fill="none" stroke="#000" stroke-miterlimit="10" stroke-width="2"/>
  <path d="M861.67,357.52l19.62,19.62a6.93,6.93,0,0,1,0,9.81h0a6.93,6.93,0,0,1-9.81,0l-19.62-19.62a7,7,0,0,1,0-9.81h0A6.93,6.93,0,0,1,861.67,357.52Z" transform="translate(-75.94 -170.45)" fill="none" stroke="#000" stroke-miterlimit="10"/>
  <path d="M842,337.9a6.94,6.94,0,1,1-9.81,0A6.93,6.93,0,0,1,842,337.9Z" transform="translate(-75.94 -170.45)" fill="none" stroke="#000" stroke-miterlimit="10"/>
  <path d="M900.9,396.75a6.94,6.94,0,1,1-9.81,0A6.93,6.93,0,0,1,900.9,396.75Z" transform="translate(-75.94 -170.45)" fill="none" stroke="#000" stroke-miterlimit="10"/>
  <path d="M920.52,416.37a6.94,6.94,0,1,1-9.81,0A6.93,6.93,0,0,1,920.52,416.37Z" transform="translate(-75.94 -170.45)" fill="none" stroke="#000" stroke-miterlimit="10"/>
  <path d="M1058.05,553.84l19.62,19.62a6.93,6.93,0,0,1,0,9.81h0a6.93,6.93,0,0,1-9.81,0l-19.62-19.62a6.93,6.93,0,0,1,0-9.81h0A6.93,6.93,0,0,1,1058.05,553.84Z" transform="translate(-75.94 -170.45)" fill="none" stroke="#000" stroke-miterlimit="10"/>
  <path d="M1097.27,593.07a6.94,6.94,0,1,1-9.81,0A6.93,6.93,0,0,1,1097.27,593.07Z" transform="translate(-75.94 -170.45)" fill="none" stroke="#000" stroke-miterlimit="10"/>
  <path d="M870.48,545.05l19.62,19.62a6.93,6.93,0,0,1,0,9.81h0a6.93,6.93,0,0,1-9.81,0l-19.62-19.62a6.93,6.93,0,0,1,0-9.81h0A6.93,6.93,0,0,1,870.48,545.05Z" transform="translate(-75.94 -170.45)" fill="none" stroke="#000" stroke-miterlimit="10"/>
  <path d="M909.72,584.29l19.62,19.62a6.93,6.93,0,0,1,0,9.81h0a6.93,6.93,0,0,1-9.81,0L899.91,594.1a6.93,6.93,0,0,1,0-9.81h0A6.93,6.93,0,0,1,909.72,584.29Z" transform="translate(-75.94 -170.45)" fill="none" stroke="#000" stroke-miterlimit="10"/>
  <path d="M634.79,309.55l19.62,19.62a6.93,6.93,0,0,1,0,9.81h0a6.93,6.93,0,0,1-9.81,0L625,319.36a7,7,0,0,1,0-9.81h0A6.93,6.93,0,0,1,634.79,309.55Z" transform="translate(-75.94 -170.45)" fill="none" stroke="#000" stroke-miterlimit="10" stroke-width="4"/>
  <path d="M693.65,368.41,713.27,388a6.93,6.93,0,0,1,0,9.81h0a7,7,0,0,1-9.81,0l-19.62-19.62a7,7,0,0,1,0-9.81h0A6.93,6.93,0,0,1,693.65,368.41Z" transform="translate(-75.94 -170.45)" fill="none" stroke="#000" stroke-miterlimit="10" stroke-width="4"/>
  <path d="M674,348.78a6.94,6.94,0,1,1-9.81,0A6.93,6.93,0,0,1,674,348.78Z" transform="translate(-75.94 -170.45)" fill="none" stroke="#000" stroke-miterlimit="10" stroke-width="4"/>
  <path d="M772.2,447l19.62,19.62a6.93,6.93,0,0,1,0,9.81h0a6.93,6.93,0,0,1-9.81,0L762.39,456.8a6.93,6.93,0,0,1,0-9.81h0A6.93,6.93,0,0,1,772.2,447Z" transform="translate(-75.94 -170.45)" fill="none" stroke="#000" stroke-miterlimit="10"/>
  <path d="M752.57,427.37a6.94,6.94,0,1,1-9.81,0A6.93,6.93,0,0,1,752.57,427.37Z" transform="translate(-75.94 -170.45)" fill="none" stroke="#000" stroke-miterlimit="10"/>
  <path d="M811.43,486.23a6.94,6.94,0,1,1-9.81,0A6.93,6.93,0,0,1,811.43,486.23Z" transform="translate(-75.94 -170.45)" fill="none" stroke="#000" stroke-miterlimit="10"/>
  <path d="M831.05,505.85a6.94,6.94,0,1,1-9.81,0A6.93,6.93,0,0,1,831.05,505.85Z" transform="translate(-75.94 -170.45)" fill="none" stroke="#000" stroke-miterlimit="10"/>
  <path d="M968.58,643.31l19.62,19.62a7,7,0,0,1,0,9.81h0a6.93,6.93,0,0,1-9.81,0l-19.62-19.62a6.93,6.93,0,0,1,0-9.81h0A6.93,6.93,0,0,1,968.58,643.31Z" transform="translate(-75.94 -170.45)" fill="none" stroke="#000" stroke-miterlimit="10" stroke-width="4"/>
  <path d="M1007.8,682.54a6.94,6.94,0,1,1-9.81,0A6.93,6.93,0,0,1,1007.8,682.54Z" transform="translate(-75.94 -170.45)" fill="none" stroke="#000" stroke-miterlimit="10" stroke-width="4"/>
  <path d="M330.06,182.57a6.94,6.94,0,1,1-9.81,0A6.93,6.93,0,0,1,330.06,182.57Z" transform="translate(-75.94 -170.45)" fill="none" stroke="#000" stroke-miterlimit="10"/>
  <path d="M349.68,202.19a6.94,6.94,0,1,1-9.81,0A6.93,6.93,0,0,1,349.68,202.19Z" transform="translate(-75.94 -170.45)" fill="none" stroke="#000" stroke-miterlimit="10"/>
  <path d="M781.54,634l19.62,19.62a6.93,6.93,0,0,1,0,9.81h0a6.93,6.93,0,0,1-9.81,0L771.73,643.8a6.93,6.93,0,0,1,0-9.81h0A6.93,6.93,0,0,1,781.54,634Z" transform="translate(-75.94 -170.45)" fill="none" stroke="#000" stroke-miterlimit="10"/>
  <path d="M820.78,673.23l19.62,19.62a6.93,6.93,0,0,1,0,9.81h0a6.93,6.93,0,0,1-9.81,0L811,683a6.93,6.93,0,0,1,0-9.81h0A6.93,6.93,0,0,1,820.78,673.23Z" transform="translate(-75.94 -170.45)" fill="none" stroke="#000" stroke-miterlimit="10"/>
  <path d="M408.51,261.1l19.62,19.62a7,7,0,0,1,0,9.81h0a6.93,6.93,0,0,1-9.81,0L398.7,270.91a6.93,6.93,0,0,1,0-9.81h0A6.93,6.93,0,0,1,408.51,261.1Z" transform="translate(-75.94 -170.45)" fill="none" stroke="#000" stroke-miterlimit="10"/>
  <path d="M447.75,300.34,467.37,320a7,7,0,0,1,0,9.81h0a6.93,6.93,0,0,1-9.81,0l-19.62-19.62a6.93,6.93,0,0,1,0-9.81h0A6.93,6.93,0,0,1,447.75,300.34Z" transform="translate(-75.94 -170.45)" fill="none" stroke="#000" stroke-miterlimit="10"/>
  <path d="M487,339.58,506.6,359.2a6.93,6.93,0,0,1,0,9.81h0a6.93,6.93,0,0,1-9.81,0l-19.62-19.62a7,7,0,0,1,0-9.81h0A6.93,6.93,0,0,1,487,339.58Z" transform="translate(-75.94 -170.45)" fill="none" stroke="#000" stroke-miterlimit="10"/>
  <path d="M388.87,241.48a6.94,6.94,0,1,1-9.81,0A6.93,6.93,0,0,1,388.87,241.48Z" transform="translate(-75.94 -170.45)" fill="none" stroke="#000" stroke-miterlimit="10"/>
  <path d="M545.85,398.49l19.62,19.62a6.93,6.93,0,0,1,0,9.81h0a6.93,6.93,0,0,1-9.81,0L536,408.3a6.93,6.93,0,0,1,0-9.81h0A6.93,6.93,0,0,1,545.85,398.49Z" transform="translate(-75.94 -170.45)" fill="none" stroke="#000" stroke-miterlimit="10" stroke-width="2"/>
  <path d="M604.71,457.35,624.33,477a6.93,6.93,0,0,1,0,9.81h0a6.93,6.93,0,0,1-9.81,0L594.9,467.16a6.93,6.93,0,0,1,0-9.81h0A6.93,6.93,0,0,1,604.71,457.35Z" transform="translate(-75.94 -170.45)" fill="none" stroke="#000" stroke-miterlimit="10" stroke-width="2"/>
  <path d="M585.08,437.72a6.94,6.94,0,1,1-9.81,0A6.93,6.93,0,0,1,585.08,437.72Z" transform="translate(-75.94 -170.45)" fill="none" stroke="#000" stroke-miterlimit="10" stroke-width="2"/>
  <path d="M879.64,732.25l19.61,19.62a6.93,6.93,0,0,1,0,9.81h0a6.93,6.93,0,0,1-9.81,0l-19.61-19.62a6.93,6.93,0,0,1,0-9.81h0A6.93,6.93,0,0,1,879.64,732.25Z" transform="translate(-75.94 -170.45)" fill="none" stroke="#000" stroke-miterlimit="10"/>
  <path d="M918.86,771.49a6.93,6.93,0,1,1-9.81,0A6.92,6.92,0,0,1,918.86,771.49Z" transform="translate(-75.94 -170.45)" fill="none" stroke="#000" stroke-miterlimit="10"/>
  <path d="M142.45,174a6.94,6.94,0,1,1-9.81,0A6.93,6.93,0,0,1,142.45,174Z" transform="translate(-75.94 -170.45)" fill="none" stroke="#000" stroke-miterlimit="10" stroke-width="3"/>
  <path d="M162.07,193.6a6.94,6.94,0,1,1-9.81,0A6.93,6.93,0,0,1,162.07,193.6Z" transform="translate(-75.94 -170.45)" fill="none" stroke="#000" stroke-miterlimit="10" stroke-width="3"/>
  <path d="M181.69,213.22a6.94,6.94,0,1,1-9.81,0A6.93,6.93,0,0,1,181.69,213.22Z" transform="translate(-75.94 -170.45)" fill="none" stroke="#000" stroke-miterlimit="10" stroke-width="3"/>
  <path d="M201.31,232.84a6.94,6.94,0,1,1-9.81,0A6.93,6.93,0,0,1,201.31,232.84Z" transform="translate(-75.94 -170.45)" fill="none" stroke="#000" stroke-miterlimit="10" stroke-width="3"/>
  <path d="M240.55,272.08a6.94,6.94,0,1,1-9.81,0A6.93,6.93,0,0,1,240.55,272.08Z" transform="translate(-75.94 -170.45)" fill="none" stroke="#000" stroke-miterlimit="10"/>
  <path d="M260.17,291.7a6.94,6.94,0,1,1-9.81,0A6.93,6.93,0,0,1,260.17,291.7Z" transform="translate(-75.94 -170.45)" fill="none" stroke="#000" stroke-miterlimit="10"/>
  <path d="M692,723.51l19.62,19.62a6.93,6.93,0,0,1,0,9.81h0a6.93,6.93,0,0,1-9.81,0l-19.62-19.62a6.93,6.93,0,0,1,0-9.81h0A6.93,6.93,0,0,1,692,723.51Z" transform="translate(-75.94 -170.45)" fill="none" stroke="#000" stroke-miterlimit="10"/>
  <path d="M731.26,762.75l19.62,19.62a6.93,6.93,0,0,1,0,9.81h0a6.93,6.93,0,0,1-9.81,0l-19.62-19.62a6.93,6.93,0,0,1,0-9.81h0A6.93,6.93,0,0,1,731.26,762.75Z" transform="translate(-75.94 -170.45)" fill="none" stroke="#000" stroke-miterlimit="10"/>
  <path d="M319,350.62l19.62,19.62a6.93,6.93,0,0,1,0,9.81h0a6.93,6.93,0,0,1-9.81,0l-19.62-19.62a6.93,6.93,0,0,1,0-9.81h0A6.93,6.93,0,0,1,319,350.62Z" transform="translate(-75.94 -170.45)" fill="none" stroke="#000" stroke-miterlimit="10"/>
  <path d="M358.23,389.86l19.62,19.62a6.93,6.93,0,0,1,0,9.81h0a6.93,6.93,0,0,1-9.81,0l-19.62-19.62a6.93,6.93,0,0,1,0-9.81h0A6.93,6.93,0,0,1,358.23,389.86Z" transform="translate(-75.94 -170.45)" fill="none" stroke="#000" stroke-miterlimit="10"/>
  <path d="M397.47,429.1l19.62,19.62a6.93,6.93,0,0,1,0,9.81h0a6.93,6.93,0,0,1-9.81,0l-19.62-19.62a6.93,6.93,0,0,1,0-9.81h0A6.93,6.93,0,0,1,397.47,429.1Z" transform="translate(-75.94 -170.45)" fill="none" stroke="#000" stroke-miterlimit="10"/>
  <path d="M299.36,331a6.93,6.93,0,1,1-9.81,0A6.94,6.94,0,0,1,299.36,331Z" transform="translate(-75.94 -170.45)" fill="none" stroke="#000" stroke-miterlimit="10"/>
  <path d="M593.74,625.45l19.62,19.62a6.93,6.93,0,0,1,0,9.81h0a6.93,6.93,0,0,1-9.81,0l-19.62-19.62a7,7,0,0,1,0-9.81h0A6.93,6.93,0,0,1,593.74,625.45Z" transform="translate(-75.94 -170.45)" fill="none" stroke="#000" stroke-miterlimit="10"/>
  <path d="M574.11,605.83a6.94,6.94,0,1,1-9.81,0A6.93,6.93,0,0,1,574.11,605.83Z" transform="translate(-75.94 -170.45)" fill="none" stroke="#000" stroke-miterlimit="10"/>
  <path d="M633,664.68a6.94,6.94,0,1,1-9.81,0A6.93,6.93,0,0,1,633,664.68Z" transform="translate(-75.94 -170.45)" fill="none" stroke="#000" stroke-miterlimit="10"/>
  <path d="M652.59,684.3a6.94,6.94,0,1,1-9.81,0A6.93,6.93,0,0,1,652.59,684.3Z" transform="translate(-75.94 -170.45)" fill="none" stroke="#000" stroke-miterlimit="10"/>
  <path d="M790.12,821.77l19.62,19.62a6.93,6.93,0,0,1,0,9.81h0a6.93,6.93,0,0,1-9.81,0l-19.62-19.62a6.93,6.93,0,0,1,0-9.81h0A6.93,6.93,0,0,1,790.12,821.77Z" transform="translate(-75.94 -170.45)" fill="none" stroke="#000" stroke-miterlimit="10"/>
  <path d="M829.34,861a6.94,6.94,0,1,1-9.81,0A6.93,6.93,0,0,1,829.34,861Z" transform="translate(-75.94 -170.45)" fill="none" stroke="#000" stroke-miterlimit="10"/>
  <path d="M989.06,544.29l19.62,19.62a6.93,6.93,0,0,1,0,9.81h0a6.93,6.93,0,0,1-9.81,0L979.25,554.1a6.93,6.93,0,0,1,0-9.81h0A6.93,6.93,0,0,1,989.06,544.29Z" transform="translate(-75.94 -170.45)" fill="none" stroke="#000" stroke-miterlimit="10"/>
  <path d="M586.19,201.83l19.62,19.62a6.93,6.93,0,0,1,0,9.81h0a6.93,6.93,0,0,1-9.81,0l-19.62-19.62a6.93,6.93,0,0,1,0-9.81h0A7,7,0,0,1,586.19,201.83Z" transform="translate(-75.94 -170.45)" fill="none" stroke="#000" stroke-miterlimit="10" stroke-width="2"/>
  <path d="M625.43,241.07l19.62,19.62a6.93,6.93,0,0,1,0,9.81h0a6.93,6.93,0,0,1-9.81,0l-19.62-19.62a6.93,6.93,0,0,1,0-9.81h0A6.93,6.93,0,0,1,625.43,241.07Z" transform="translate(-75.94 -170.45)" fill="none" stroke="#000" stroke-miterlimit="10" stroke-width="2"/>
  <path d="M566.56,182.21a6.94,6.94,0,1,1-9.81,0A6.93,6.93,0,0,1,566.56,182.21Z" transform="translate(-75.94 -170.45)" fill="none" stroke="#000" stroke-miterlimit="10" stroke-width="2"/>
  <path d="M684.64,299.89l19.62,19.62a6.93,6.93,0,0,1,0,9.81h0a6.93,6.93,0,0,1-9.81,0L674.83,309.7a6.93,6.93,0,0,1,0-9.81h0A6.93,6.93,0,0,1,684.64,299.89Z" transform="translate(-75.94 -170.45)" fill="none" stroke="#000" stroke-miterlimit="10"/>
  <path d="M763.12,378.37,782.74,398a6.93,6.93,0,0,1,0,9.81h0a6.93,6.93,0,0,1-9.81,0l-19.62-19.62a6.93,6.93,0,0,1,0-9.81h0A6.93,6.93,0,0,1,763.12,378.37Z" transform="translate(-75.94 -170.45)" fill="none" stroke="#000" stroke-miterlimit="10"/>
  <path d="M723.86,339.12a6.94,6.94,0,1,1-9.81,0A6.93,6.93,0,0,1,723.86,339.12Z" transform="translate(-75.94 -170.45)" fill="none" stroke="#000" stroke-miterlimit="10"/>
  <path d="M743.48,358.74a6.94,6.94,0,1,1-9.81,0A6.93,6.93,0,0,1,743.48,358.74Z" transform="translate(-75.94 -170.45)" fill="none" stroke="#000" stroke-miterlimit="10"/>
  <path d="M822,437.21l19.62,19.62a6.93,6.93,0,0,1,0,9.81h0a6.93,6.93,0,0,1-9.81,0L812.18,447a6.93,6.93,0,0,1,0-9.81h0A7,7,0,0,1,822,437.21Z" transform="translate(-75.94 -170.45)" fill="none" stroke="#000" stroke-miterlimit="10" stroke-width="3"/>
  <path d="M880.85,496.07l19.62,19.62a6.93,6.93,0,0,1,0,9.81h0a6.93,6.93,0,0,1-9.81,0L871,505.88a6.93,6.93,0,0,1,0-9.81h0A6.93,6.93,0,0,1,880.85,496.07Z" transform="translate(-75.94 -170.45)" fill="none" stroke="#000" stroke-miterlimit="10" stroke-width="3"/>
  <path d="M920.09,535.31l19.62,19.62a6.93,6.93,0,0,1,0,9.81h0a6.93,6.93,0,0,1-9.81,0l-19.62-19.62a6.93,6.93,0,0,1,0-9.81h0A6.93,6.93,0,0,1,920.09,535.31Z" transform="translate(-75.94 -170.45)" fill="none" stroke="#000" stroke-miterlimit="10" stroke-width="3"/>
  <path d="M861.22,476.45a6.94,6.94,0,1,1-9.81,0A6.93,6.93,0,0,1,861.22,476.45Z" transform="translate(-75.94 -170.45)" fill="none" stroke="#000" stroke-miterlimit="10" stroke-width="3"/>
  <path d="M979,594.12l19.62,19.62a7,7,0,0,1,0,9.81h0a7,7,0,0,1-9.81,0L969.2,603.93a6.93,6.93,0,0,1,0-9.81h0A6.93,6.93,0,0,1,979,594.12Z" transform="translate(-75.94 -170.45)" fill="none" stroke="#000" stroke-miterlimit="10"/>
  <path d="M1018.24,633.36,1037.86,653a6.93,6.93,0,0,1,0,9.81h0a7,7,0,0,1-9.81,0l-19.62-19.62a7,7,0,0,1,0-9.81h0A6.93,6.93,0,0,1,1018.24,633.36Z" transform="translate(-75.94 -170.45)" fill="none" stroke="#000" stroke-miterlimit="10"/>
  <path d="M1057.47,672.59a6.94,6.94,0,1,1-9.81,0A6.93,6.93,0,0,1,1057.47,672.59Z" transform="translate(-75.94 -170.45)" fill="none" stroke="#000" stroke-miterlimit="10"/>
  <path d="M1077.09,692.21a6.94,6.94,0,1,1-9.81,0A6.93,6.93,0,0,1,1077.09,692.21Z" transform="translate(-75.94 -170.45)" fill="none" stroke="#000" stroke-miterlimit="10"/>
  <path d="M359.06,272l19.62,19.62a6.93,6.93,0,0,1,0,9.81h0a6.93,6.93,0,0,1-9.81,0L349.25,281.8a6.93,6.93,0,0,1,0-9.81h0A6.93,6.93,0,0,1,359.06,272Z" transform="translate(-75.94 -170.45)" fill="none" stroke="#000" stroke-miterlimit="10" stroke-width="2"/>
  <path d="M300.19,213.12a6.94,6.94,0,1,1-9.81,0A6.93,6.93,0,0,1,300.19,213.12Z" transform="translate(-75.94 -170.45)" fill="none" stroke="#000" stroke-miterlimit="10" stroke-width="2"/>
  <path d="M319.81,232.74a6.94,6.94,0,1,1-9.81,0A6.93,6.93,0,0,1,319.81,232.74Z" transform="translate(-75.94 -170.45)" fill="none" stroke="#000" stroke-miterlimit="10" stroke-width="2"/>
  <path d="M339.43,252.36a6.94,6.94,0,1,1-9.81,0A6.93,6.93,0,0,1,339.43,252.36Z" transform="translate(-75.94 -170.45)" fill="none" stroke="#000" stroke-miterlimit="10" stroke-width="2"/>
  <path d="M437.54,350.49l19.61,19.62a6.93,6.93,0,0,1,0,9.81h0a6.92,6.92,0,0,1-9.8,0L427.73,360.3a6.93,6.93,0,0,1,0-9.81h0A6.93,6.93,0,0,1,437.54,350.49Z" transform="translate(-75.94 -170.45)" fill="none" stroke="#000" stroke-miterlimit="10"/>
  <path d="M476.77,389.73l19.62,19.62a6.93,6.93,0,0,1,0,9.81h0a6.93,6.93,0,0,1-9.81,0L467,399.54a7,7,0,0,1,0-9.81h0A6.93,6.93,0,0,1,476.77,389.73Z" transform="translate(-75.94 -170.45)" fill="none" stroke="#000" stroke-miterlimit="10"/>
  <path d="M417.9,330.87a6.94,6.94,0,1,1-9.81,0A6.93,6.93,0,0,1,417.9,330.87Z" transform="translate(-75.94 -170.45)" fill="none" stroke="#000" stroke-miterlimit="10"/>
  <path d="M673.33,585.87,693,605.49a6.93,6.93,0,0,1,0,9.81h0a6.93,6.93,0,0,1-9.81,0l-19.61-19.62a6.93,6.93,0,0,1,0-9.81h0A6.92,6.92,0,0,1,673.33,585.87Z" transform="translate(-75.94 -170.45)" fill="none" stroke="#000" stroke-miterlimit="10" stroke-width="4"/>
  <path d="M732.19,644.73l19.62,19.62a6.93,6.93,0,0,1,0,9.81h0a6.93,6.93,0,0,1-9.81,0l-19.62-19.62a7,7,0,0,1,0-9.81h0A6.93,6.93,0,0,1,732.19,644.73Z" transform="translate(-75.94 -170.45)" fill="none" stroke="#000" stroke-miterlimit="10" stroke-width="4"/>
  <path d="M771.43,684l19.62,19.62a6.93,6.93,0,0,1,0,9.81h0a6.93,6.93,0,0,1-9.81,0l-19.62-19.62a6.93,6.93,0,0,1,0-9.81h0A6.93,6.93,0,0,1,771.43,684Z" transform="translate(-75.94 -170.45)" fill="none" stroke="#000" stroke-miterlimit="10" stroke-width="4"/>
  <path d="M712.56,625.1a6.94,6.94,0,1,1-9.81,0A6.93,6.93,0,0,1,712.56,625.1Z" transform="translate(-75.94 -170.45)" fill="none" stroke="#000" stroke-miterlimit="10" stroke-width="4"/>
  <path d="M830.35,742.77,850,762.39a6.93,6.93,0,0,1,0,9.81h0a6.93,6.93,0,0,1-9.81,0l-19.62-19.62a6.93,6.93,0,0,1,0-9.81h0A6.93,6.93,0,0,1,830.35,742.77Z" transform="translate(-75.94 -170.45)" fill="none" stroke="#000" stroke-miterlimit="10"/>
  <path d="M869.59,782l19.62,19.62a6.93,6.93,0,0,1,0,9.81h0a6.93,6.93,0,0,1-9.81,0l-19.62-19.62a6.93,6.93,0,0,1,0-9.81h0A6.93,6.93,0,0,1,869.59,782Z" transform="translate(-75.94 -170.45)" fill="none" stroke="#000" stroke-miterlimit="10"/>
  <path d="M908.81,821.25a6.94,6.94,0,1,1-9.81,0A6.93,6.93,0,0,1,908.81,821.25Z" transform="translate(-75.94 -170.45)" fill="none" stroke="#000" stroke-miterlimit="10"/>
  <path d="M928.43,840.87a6.94,6.94,0,1,1-9.81,0A6.93,6.93,0,0,1,928.43,840.87Z" transform="translate(-75.94 -170.45)" fill="none" stroke="#000" stroke-miterlimit="10"/>
  <path d="M655.34,210.71,675,230.33a6.93,6.93,0,0,1,0,9.81h0a6.93,6.93,0,0,1-9.81,0l-19.62-19.62a7,7,0,0,1,0-9.81h0A6.93,6.93,0,0,1,655.34,210.71Z" transform="translate(-75.94 -170.45)" fill="none" stroke="#000" stroke-miterlimit="10"/>
  <path d="M694.58,250l19.62,19.62a6.93,6.93,0,0,1,0,9.81h0a6.93,6.93,0,0,1-9.81,0l-19.62-19.62a7,7,0,0,1,0-9.81h0A6.93,6.93,0,0,1,694.58,250Z" transform="translate(-75.94 -170.45)" fill="none" stroke="#000" stroke-miterlimit="10"/>
  <path d="M753.44,308.81l19.62,19.62a6.93,6.93,0,0,1,0,9.81h0a6.93,6.93,0,0,1-9.81,0l-19.62-19.62a6.93,6.93,0,0,1,0-9.81h0A6.93,6.93,0,0,1,753.44,308.81Z" transform="translate(-75.94 -170.45)" fill="none" stroke="#000" stroke-miterlimit="10"/>
  <path d="M733.81,289.19a6.94,6.94,0,1,1-9.81,0A6.93,6.93,0,0,1,733.81,289.19Z" transform="translate(-75.94 -170.45)" fill="none" stroke="#000" stroke-miterlimit="10"/>
  <path d="M1521.52,179.93l19.62,19.62a6.93,6.93,0,0,1,0,9.81h0a6.93,6.93,0,0,1-9.81,0l-19.62-19.62a6.93,6.93,0,0,1,0-9.81h0A6.93,6.93,0,0,1,1521.52,179.93Z" transform="translate(-75.94 -170.45)" fill="none" stroke="#000" stroke-miterlimit="10"/>
  <path d="M1560.65,219.07a6.94,6.94,0,1,1-9.81,0A6.93,6.93,0,0,1,1560.65,219.07Z" transform="translate(-75.94 -170.45)" fill="none" stroke="#000" stroke-miterlimit="10"/>
  <path d="M1580.17,239a6.93,6.93,0,1,1-9.8,0A6.93,6.93,0,0,1,1580.17,239Z" transform="translate(-75.94 -170.45)" fill="none" stroke="#000" stroke-miterlimit="10"/>
  <path d="M1491.68,209.77l19.62,19.62a6.93,6.93,0,0,1,0,9.81h0a6.93,6.93,0,0,1-9.81,0l-19.62-19.62a6.93,6.93,0,0,1,0-9.81h0A6.93,6.93,0,0,1,1491.68,209.77Z" transform="translate(-75.94 -170.45)" fill="none" stroke="#000" stroke-miterlimit="10"/>
  <path d="M1530.81,248.91a6.94,6.94,0,1,1-9.81,0A6.93,6.93,0,0,1,1530.81,248.91Z" transform="translate(-75.94 -170.45)" fill="none" stroke="#000" stroke-miterlimit="10"/>
  <path d="M1550.34,268.82a6.94,6.94,0,1,1-9.81,0A7,7,0,0,1,1550.34,268.82Z" transform="translate(-75.94 -170.45)" fill="none" stroke="#000" stroke-miterlimit="10"/>
  <path d="M1441.9,220.08l19.62,19.61a6.93,6.93,0,0,1,0,9.81h0a6.93,6.93,0,0,1-9.81,0l-19.62-19.61a7,7,0,0,1,0-9.81h0A6.93,6.93,0,0,1,1441.9,220.08Z" transform="translate(-75.94 -170.45)" fill="none" stroke="#000" stroke-miterlimit="10"/>
  <path d="M1500.76,278.93l19.62,19.62a6.93,6.93,0,0,1,0,9.81h0a6.93,6.93,0,0,1-9.81,0L1491,288.74a7,7,0,0,1,0-9.81h0A7,7,0,0,1,1500.76,278.93Z" transform="translate(-75.94 -170.45)" fill="none" stroke="#000" stroke-miterlimit="10"/>
  <path d="M1481.13,259.31a6.94,6.94,0,1,1-9.81,0A6.93,6.93,0,0,1,1481.13,259.31Z" transform="translate(-75.94 -170.45)" fill="none" stroke="#000" stroke-miterlimit="10"/>
  <path d="M1579.31,357.52l19.62,19.62a6.93,6.93,0,0,1,0,9.81h0a6.93,6.93,0,0,1-9.81,0l-19.62-19.62a6.93,6.93,0,0,1,0-9.81h0A6.93,6.93,0,0,1,1579.31,357.52Z" transform="translate(-75.94 -170.45)" fill="none" stroke="#000" stroke-miterlimit="10"/>
  <path d="M1559.68,337.9a6.94,6.94,0,1,1-9.81,0A6.93,6.93,0,0,1,1559.68,337.9Z" transform="translate(-75.94 -170.45)" fill="none" stroke="#000" stroke-miterlimit="10"/>
  <path d="M1618.54,396.75a6.94,6.94,0,1,1-9.81,0A6.93,6.93,0,0,1,1618.54,396.75Z" transform="translate(-75.94 -170.45)" fill="none" stroke="#000" stroke-miterlimit="10"/>
  <path d="M1638.16,416.37a6.94,6.94,0,1,1-9.81,0A6.93,6.93,0,0,1,1638.16,416.37Z" transform="translate(-75.94 -170.45)" fill="none" stroke="#000" stroke-miterlimit="10"/>
  <path d="M1402.28,299.89l19.62,19.62a6.93,6.93,0,0,1,0,9.81h0a6.93,6.93,0,0,1-9.81,0l-19.62-19.62a6.93,6.93,0,0,1,0-9.81h0A6.93,6.93,0,0,1,1402.28,299.89Z" transform="translate(-75.94 -170.45)" fill="none" stroke="#000" stroke-miterlimit="10"/>
  <path d="M1480.76,378.37,1500.38,398a7,7,0,0,1,0,9.81h0a6.93,6.93,0,0,1-9.81,0L1471,388.18a6.93,6.93,0,0,1,0-9.81h0A6.93,6.93,0,0,1,1480.76,378.37Z" transform="translate(-75.94 -170.45)" fill="none" stroke="#000" stroke-miterlimit="10"/>
  <path d="M1441.5,339.12a6.94,6.94,0,1,1-9.81,0A6.93,6.93,0,0,1,1441.5,339.12Z" transform="translate(-75.94 -170.45)" fill="none" stroke="#000" stroke-miterlimit="10"/>
  <path d="M1461.12,358.74a6.94,6.94,0,1,1-9.81,0A6.93,6.93,0,0,1,1461.12,358.74Z" transform="translate(-75.94 -170.45)" fill="none" stroke="#000" stroke-miterlimit="10"/>
  <path d="M1373,210.71l19.62,19.62a6.93,6.93,0,0,1,0,9.81h0a6.93,6.93,0,0,1-9.81,0l-19.62-19.62a6.93,6.93,0,0,1,0-9.81h0A6.93,6.93,0,0,1,1373,210.71Z" transform="translate(-75.94 -170.45)" fill="none" stroke="#000" stroke-miterlimit="10" stroke-width="2"/>
  <path d="M1412.22,250l19.62,19.62a6.93,6.93,0,0,1,0,9.81h0a6.93,6.93,0,0,1-9.81,0l-19.62-19.62a6.93,6.93,0,0,1,0-9.81h0A6.93,6.93,0,0,1,1412.22,250Z" transform="translate(-75.94 -170.45)" fill="none" stroke="#000" stroke-miterlimit="10" stroke-width="2"/>
  <path d="M1471.08,308.81l19.62,19.62a6.93,6.93,0,0,1,0,9.81h0a6.93,6.93,0,0,1-9.81,0l-19.62-19.62a6.93,6.93,0,0,1,0-9.81h0A6.93,6.93,0,0,1,1471.08,308.81Z" transform="translate(-75.94 -170.45)" fill="none" stroke="#000" stroke-miterlimit="10" stroke-width="2"/>
  <path d="M1451.45,289.19a6.94,6.94,0,1,1-9.81,0A6.93,6.93,0,0,1,1451.45,289.19Z" transform="translate(-75.94 -170.45)" fill="none" stroke="#000" stroke-miterlimit="10" stroke-width="2"/>
  <path d="M949.61,505.26a6.94,6.94,0,1,1-9.81,0A6.93,6.93,0,0,1,949.61,505.26Z" transform="translate(-75.94 -170.45)" fill="none" stroke="#000" stroke-miterlimit="10"/>
  <path d="M930,485.64a6.94,6.94,0,1,1-9.81,0A6.93,6.93,0,0,1,930,485.64Z" transform="translate(-75.94 -170.45)" fill="none" stroke="#000" stroke-miterlimit="10"/>
  <path d="M910.37,466a6.94,6.94,0,1,1-9.81,0A6.93,6.93,0,0,1,910.37,466Z" transform="translate(-75.94 -170.45)" fill="none" stroke="#000" stroke-miterlimit="10"/>
  <path d="M329.38,301.26,349,320.88a6.93,6.93,0,0,1,0,9.81h0a6.93,6.93,0,0,1-9.81,0l-19.62-19.62a6.93,6.93,0,0,1,0-9.81h0A6.93,6.93,0,0,1,329.38,301.26Z" transform="translate(-75.94 -170.45)" fill="none" stroke="#000" stroke-miterlimit="10"/>
  <path d="M368.62,340.5l19.62,19.62a6.93,6.93,0,0,1,0,9.81h0a6.93,6.93,0,0,1-9.81,0l-19.62-19.62a6.93,6.93,0,0,1,0-9.81h0A6.93,6.93,0,0,1,368.62,340.5Z" transform="translate(-75.94 -170.45)" fill="none" stroke="#000" stroke-miterlimit="10"/>
  <path d="M309.74,281.64a6.94,6.94,0,1,1-9.81,0A6.93,6.93,0,0,1,309.74,281.64Z" transform="translate(-75.94 -170.45)" fill="none" stroke="#000" stroke-miterlimit="10"/>
  <path d="M407.84,379.74a6.94,6.94,0,1,1-9.81,0A6.93,6.93,0,0,1,407.84,379.74Z" transform="translate(-75.94 -170.45)" fill="none" stroke="#000" stroke-miterlimit="10"/>
  <path d="M780.89,752.46l19.62,19.62a6.93,6.93,0,0,1,0,9.81h0a6.93,6.93,0,0,1-9.81,0l-19.62-19.62a6.93,6.93,0,0,1,0-9.81h0A6.93,6.93,0,0,1,780.89,752.46Z" transform="translate(-75.94 -170.45)" fill="none" stroke="#000" stroke-miterlimit="10"/>
  <path d="M1613.46,332.8l19.62,19.62a6.93,6.93,0,0,1,0,9.81h0a6.93,6.93,0,0,1-9.81,0l-19.62-19.62a6.93,6.93,0,0,1,0-9.81h0A6.93,6.93,0,0,1,1613.46,332.8Z" transform="translate(-75.94 -170.45)" fill="none" stroke="#000" stroke-miterlimit="10" stroke-width="2"/>
  <path d="M1652.7,372l19.62,19.62a6.93,6.93,0,0,1,0,9.81h0a6.93,6.93,0,0,1-9.81,0l-19.62-19.62a6.93,6.93,0,0,1,0-9.81h0A6.93,6.93,0,0,1,1652.7,372Z" transform="translate(-75.94 -170.45)" fill="none" stroke="#000" stroke-miterlimit="10" stroke-width="2"/>
  <path d="M1691.92,411.28a6.94,6.94,0,1,1-9.81,0A6.93,6.93,0,0,1,1691.92,411.28Z" transform="translate(-75.94 -170.45)" fill="none" stroke="#000" stroke-miterlimit="10" stroke-width="2"/>
  <path d="M1792.6,271.64l19.62,19.62a6.93,6.93,0,0,1,0,9.81h0a6.93,6.93,0,0,1-9.81,0l-19.62-19.62a6.93,6.93,0,0,1,0-9.81h0A6.93,6.93,0,0,1,1792.6,271.64Z" transform="translate(-75.94 -170.45)" fill="none" stroke="#000" stroke-miterlimit="10"/>
  <path d="M1831.83,310.87a6.94,6.94,0,1,1-9.81,0A7,7,0,0,1,1831.83,310.87Z" transform="translate(-75.94 -170.45)" fill="none" stroke="#000" stroke-miterlimit="10"/>
  <path d="M1605,262.9l19.62,19.62a6.93,6.93,0,0,1,0,9.81h0a6.93,6.93,0,0,1-9.81,0l-19.62-19.62a7,7,0,0,1,0-9.81h0A6.93,6.93,0,0,1,1605,262.9Z" transform="translate(-75.94 -170.45)" fill="none" stroke="#000" stroke-miterlimit="10"/>
  <path d="M1644.22,302.14l19.62,19.62a6.93,6.93,0,0,1,0,9.81h0a6.93,6.93,0,0,1-9.81,0L1634.41,312a7,7,0,0,1,0-9.81h0A6.93,6.93,0,0,1,1644.22,302.14Z" transform="translate(-75.94 -170.45)" fill="none" stroke="#000" stroke-miterlimit="10"/>
  <path d="M1703.08,361.15l19.62,19.62a6.93,6.93,0,0,1,0,9.81h0a6.93,6.93,0,0,1-9.81,0L1693.27,371a6.93,6.93,0,0,1,0-9.81h0A7,7,0,0,1,1703.08,361.15Z" transform="translate(-75.94 -170.45)" fill="none" stroke="#000" stroke-miterlimit="10"/>
  <path d="M1742.31,400.39a6.94,6.94,0,1,1-9.81,0A6.93,6.93,0,0,1,1742.31,400.39Z" transform="translate(-75.94 -170.45)" fill="none" stroke="#000" stroke-miterlimit="10"/>
  <path d="M1743.31,282.16l19.62,19.62a6.93,6.93,0,0,1,0,9.81h0a6.93,6.93,0,0,1-9.81,0L1733.5,292a6.93,6.93,0,0,1,0-9.81h0A6.93,6.93,0,0,1,1743.31,282.16Z" transform="translate(-75.94 -170.45)" fill="none" stroke="#000" stroke-miterlimit="10" stroke-width="3"/>
  <path d="M1782.55,321.4,1802.17,341a6.93,6.93,0,0,1,0,9.81h0a6.93,6.93,0,0,1-9.81,0l-19.62-19.62a6.93,6.93,0,0,1,0-9.81h0A6.93,6.93,0,0,1,1782.55,321.4Z" transform="translate(-75.94 -170.45)" fill="none" stroke="#000" stroke-miterlimit="10" stroke-width="3"/>
  <path d="M1821.78,360.63a6.94,6.94,0,1,1-9.81,0A6.93,6.93,0,0,1,1821.78,360.63Z" transform="translate(-75.94 -170.45)" fill="none" stroke="#000" stroke-miterlimit="10" stroke-width="3"/>
  <path d="M1841.4,380.25a6.94,6.94,0,1,1-9.81,0A6.93,6.93,0,0,1,1841.4,380.25Z" transform="translate(-75.94 -170.45)" fill="none" stroke="#000" stroke-miterlimit="10" stroke-width="3"/>
  <path d="M1693.86,291.84l19.62,19.62a6.93,6.93,0,0,1,0,9.81h0a6.93,6.93,0,0,1-9.81,0l-19.62-19.62a6.93,6.93,0,0,1,0-9.81h0A7,7,0,0,1,1693.86,291.84Z" transform="translate(-75.94 -170.45)" fill="none" stroke="#000" stroke-miterlimit="10"/>
  <path d="M447.18,418.88,466.8,438.5a6.93,6.93,0,0,1,0,9.81h0a6.93,6.93,0,0,1-9.81,0l-19.62-19.62a6.93,6.93,0,0,1,0-9.81h0A6.93,6.93,0,0,1,447.18,418.88Z" transform="translate(-75.94 -170.45)" fill="none" stroke="#000" stroke-miterlimit="10" stroke-width="3"/>
  <path d="M486.42,458.12,506,477.74a6.93,6.93,0,0,1,0,9.81h0a7,7,0,0,1-9.81,0l-19.62-19.62a6.93,6.93,0,0,1,0-9.81h0A6.93,6.93,0,0,1,486.42,458.12Z" transform="translate(-75.94 -170.45)" fill="none" stroke="#000" stroke-miterlimit="10" stroke-width="3"/>
  <path d="M545.28,517,564.9,536.6a6.93,6.93,0,0,1,0,9.81h0a7,7,0,0,1-9.81,0l-19.62-19.62a6.93,6.93,0,0,1,0-9.81h0A6.93,6.93,0,0,1,545.28,517Z" transform="translate(-75.94 -170.45)" fill="none" stroke="#000" stroke-miterlimit="10" stroke-width="3"/>
  <path d="M525.64,497.35a6.93,6.93,0,1,1-9.8,0A6.93,6.93,0,0,1,525.64,497.35Z" transform="translate(-75.94 -170.45)" fill="none" stroke="#000" stroke-miterlimit="10" stroke-width="3"/>
  <path d="M741.44,713.43a6.94,6.94,0,1,1-9.81,0A6.93,6.93,0,0,1,741.44,713.43Z" transform="translate(-75.94 -170.45)" fill="none" stroke="#000" stroke-miterlimit="10"/>
  <path d="M721.82,693.81a6.94,6.94,0,1,1-9.81,0A6.93,6.93,0,0,1,721.82,693.81Z" transform="translate(-75.94 -170.45)" fill="none" stroke="#000" stroke-miterlimit="10"/>
  <path d="M702.2,674.19a6.94,6.94,0,1,1-9.81,0A6.93,6.93,0,0,1,702.2,674.19Z" transform="translate(-75.94 -170.45)" fill="none" stroke="#000" stroke-miterlimit="10"/>
  <path d="M418.72,211.91l19.62,19.62a6.93,6.93,0,0,1,0,9.81h0a6.93,6.93,0,0,1-9.81,0l-19.62-19.62a7,7,0,0,1,0-9.81h0A7,7,0,0,1,418.72,211.91Z" transform="translate(-75.94 -170.45)" fill="none" stroke="#000" stroke-miterlimit="10" stroke-width="3"/>
  <path d="M458,251.15l19.62,19.62a6.93,6.93,0,0,1,0,9.81h0a6.93,6.93,0,0,1-9.81,0L448.15,261a6.93,6.93,0,0,1,0-9.81h0A7,7,0,0,1,458,251.15Z" transform="translate(-75.94 -170.45)" fill="none" stroke="#000" stroke-miterlimit="10" stroke-width="3"/>
  <path d="M399.09,192.29a6.94,6.94,0,1,1-9.81,0A6.93,6.93,0,0,1,399.09,192.29Z" transform="translate(-75.94 -170.45)" fill="none" stroke="#000" stroke-miterlimit="10" stroke-width="3"/>
  <path d="M497.19,290.39a6.94,6.94,0,1,1-9.81,0A6.93,6.93,0,0,1,497.19,290.39Z" transform="translate(-75.94 -170.45)" fill="none" stroke="#000" stroke-miterlimit="10" stroke-width="3"/>
  <path d="M870.24,663.11l19.62,19.62a6.93,6.93,0,0,1,0,9.81h0a6.93,6.93,0,0,1-9.81,0l-19.62-19.62a6.93,6.93,0,0,1,0-9.81h0A6.93,6.93,0,0,1,870.24,663.11Z" transform="translate(-75.94 -170.45)" fill="none" stroke="#000" stroke-miterlimit="10"/>
  <path d="M536.53,329.53l19.62,19.62a6.93,6.93,0,0,1,0,9.81h0a6.93,6.93,0,0,1-9.81,0l-19.62-19.62a6.93,6.93,0,0,1,0-9.81h0A6.93,6.93,0,0,1,536.53,329.53Z" transform="translate(-75.94 -170.45)" fill="none" stroke="#000" stroke-miterlimit="10"/>
  <path d="M575.77,368.77l19.62,19.62a7,7,0,0,1,0,9.81h0a6.93,6.93,0,0,1-9.81,0L566,378.58a6.93,6.93,0,0,1,0-9.81h0A6.93,6.93,0,0,1,575.77,368.77Z" transform="translate(-75.94 -170.45)" fill="none" stroke="#000" stroke-miterlimit="10"/>
  <path d="M634.63,427.63l19.62,19.62a7,7,0,0,1,0,9.81h0a6.93,6.93,0,0,1-9.81,0l-19.62-19.62a6.93,6.93,0,0,1,0-9.81h0A6.93,6.93,0,0,1,634.63,427.63Z" transform="translate(-75.94 -170.45)" fill="none" stroke="#000" stroke-miterlimit="10"/>
  <path d="M615,408a6.94,6.94,0,1,1-9.81,0A6.93,6.93,0,0,1,615,408Z" transform="translate(-75.94 -170.45)" fill="none" stroke="#000" stroke-miterlimit="10"/>
  <path d="M1523.68,478.88l19.62,19.62a6.93,6.93,0,0,1,0,9.81h0a6.93,6.93,0,0,1-9.81,0l-19.62-19.62a7,7,0,0,1,0-9.81h0A6.93,6.93,0,0,1,1523.68,478.88Z" transform="translate(-75.94 -170.45)" fill="none" stroke="#000" stroke-miterlimit="10" stroke-width="3"/>
  <path d="M1562.82,518a6.94,6.94,0,1,1-9.81,0A6.93,6.93,0,0,1,1562.82,518Z" transform="translate(-75.94 -170.45)" fill="none" stroke="#000" stroke-miterlimit="10" stroke-width="3"/>
  <path d="M1582.34,537.93a6.94,6.94,0,1,1-9.81,0A6.93,6.93,0,0,1,1582.34,537.93Z" transform="translate(-75.94 -170.45)" fill="none" stroke="#000" stroke-miterlimit="10" stroke-width="3"/>
  <path d="M1307.23,381.13l19.62,19.62a6.93,6.93,0,0,1,0,9.81h0a6.93,6.93,0,0,1-9.81,0l-19.62-19.62a6.93,6.93,0,0,1,0-9.81h0A7,7,0,0,1,1307.23,381.13Z" transform="translate(-75.94 -170.45)" fill="none" stroke="#000" stroke-miterlimit="10" stroke-width="3"/>
  <path d="M1346.47,420.37,1366.09,440a6.93,6.93,0,0,1,0,9.81h0a6.93,6.93,0,0,1-9.81,0l-19.62-19.62a6.93,6.93,0,0,1,0-9.81h0A7,7,0,0,1,1346.47,420.37Z" transform="translate(-75.94 -170.45)" fill="none" stroke="#000" stroke-miterlimit="10" stroke-width="3"/>
  <path d="M1385.71,459.61l19.62,19.62a6.93,6.93,0,0,1,0,9.81h0a6.93,6.93,0,0,1-9.81,0l-19.62-19.62a6.93,6.93,0,0,1,0-9.81h0A6.93,6.93,0,0,1,1385.71,459.61Z" transform="translate(-75.94 -170.45)" fill="none" stroke="#000" stroke-miterlimit="10" stroke-width="3"/>
  <path d="M1287.59,361.51a6.93,6.93,0,1,1-9.8,0A6.93,6.93,0,0,1,1287.59,361.51Z" transform="translate(-75.94 -170.45)" fill="none" stroke="#000" stroke-miterlimit="10" stroke-width="3"/>
  <path d="M1336.26,470.52l19.62,19.62a6.93,6.93,0,0,1,0,9.81h0a6.93,6.93,0,0,1-9.81,0l-19.62-19.62a6.93,6.93,0,0,1,0-9.81h0A6.93,6.93,0,0,1,1336.26,470.52Z" transform="translate(-75.94 -170.45)" fill="none" stroke="#000" stroke-miterlimit="10"/>
  <path d="M1375.5,509.76l19.62,19.62a6.93,6.93,0,0,1,0,9.81h0a6.93,6.93,0,0,1-9.81,0l-19.62-19.62a6.93,6.93,0,0,1,0-9.81h0A6.93,6.93,0,0,1,1375.5,509.76Z" transform="translate(-75.94 -170.45)" fill="none" stroke="#000" stroke-miterlimit="10"/>
  <path d="M1316.62,450.9a6.94,6.94,0,1,1-9.81,0A6.93,6.93,0,0,1,1316.62,450.9Z" transform="translate(-75.94 -170.45)" fill="none" stroke="#000" stroke-miterlimit="10"/>
  <path d="M713.13,506.16l19.62,19.62a6.93,6.93,0,0,1,0,9.81h0a6.93,6.93,0,0,1-9.81,0L703.32,516a6.93,6.93,0,0,1,0-9.81h0A6.93,6.93,0,0,1,713.13,506.16Z" transform="translate(-75.94 -170.45)" fill="none" stroke="#000" stroke-miterlimit="10"/>
  <path d="M693.49,486.53a6.94,6.94,0,1,1-9.81,0A6.93,6.93,0,0,1,693.49,486.53Z" transform="translate(-75.94 -170.45)" fill="none" stroke="#000" stroke-miterlimit="10"/>
  <path d="M752.35,545.39a6.94,6.94,0,1,1-9.81,0A6.93,6.93,0,0,1,752.35,545.39Z" transform="translate(-75.94 -170.45)" fill="none" stroke="#000" stroke-miterlimit="10"/>
  <path d="M830.79,624.08a6.94,6.94,0,1,1-9.81,0A6.93,6.93,0,0,1,830.79,624.08Z" transform="translate(-75.94 -170.45)" fill="none" stroke="#000" stroke-miterlimit="10"/>
  <path d="M811.17,604.46a6.94,6.94,0,1,1-9.81,0A6.93,6.93,0,0,1,811.17,604.46Z" transform="translate(-75.94 -170.45)" fill="none" stroke="#000" stroke-miterlimit="10"/>
  <path d="M791.55,584.84a6.94,6.94,0,1,1-9.81,0A6.93,6.93,0,0,1,791.55,584.84Z" transform="translate(-75.94 -170.45)" fill="none" stroke="#000" stroke-miterlimit="10"/>
  <path d="M160.22,313.35,179.84,333a6.93,6.93,0,0,1,0,9.81h0a6.93,6.93,0,0,1-9.81,0l-19.62-19.62a6.92,6.92,0,0,1,0-9.8h0A6.93,6.93,0,0,1,160.22,313.35Z" transform="translate(-75.94 -170.45)" fill="none" stroke="#000" stroke-miterlimit="10" stroke-width="2"/>
  <path d="M199.69,352.83a6.94,6.94,0,1,1-9.81,0A6.93,6.93,0,0,1,199.69,352.83Z" transform="translate(-75.94 -170.45)" fill="none" stroke="#000" stroke-miterlimit="10" stroke-width="2"/>
  <path d="M218.75,372.51a6.94,6.94,0,1,1-9.81,0A6.93,6.93,0,0,1,218.75,372.51Z" transform="translate(-75.94 -170.45)" fill="none" stroke="#000" stroke-miterlimit="10" stroke-width="2"/>
  <path d="M238.68,391.81a6.94,6.94,0,1,1-9.81,0A6.93,6.93,0,0,1,238.68,391.81Z" transform="translate(-75.94 -170.45)" fill="none" stroke="#000" stroke-miterlimit="10" stroke-width="2"/>
  <path d="M277.56,431.46l19.62,19.62a6.93,6.93,0,0,1,0,9.81h0a6.93,6.93,0,0,1-9.81,0l-19.61-19.62a6.93,6.93,0,0,1,0-9.81h0A6.92,6.92,0,0,1,277.56,431.46Z" transform="translate(-75.94 -170.45)" fill="none" stroke="#000" stroke-miterlimit="10"/>
  <path d="M336.42,490.32,356,509.94a6.93,6.93,0,0,1,0,9.81h0a6.93,6.93,0,0,1-9.81,0l-19.62-19.62a7,7,0,0,1,0-9.81h0A6.93,6.93,0,0,1,336.42,490.32Z" transform="translate(-75.94 -170.45)" fill="none" stroke="#000" stroke-miterlimit="10"/>
  <path d="M316.76,470.67a6.94,6.94,0,1,1-9.81,0A6.93,6.93,0,0,1,316.76,470.67Z" transform="translate(-75.94 -170.45)" fill="none" stroke="#000" stroke-miterlimit="10"/>
  <path d="M375.71,529.62a6.94,6.94,0,1,1-9.81,0A6.93,6.93,0,0,1,375.71,529.62Z" transform="translate(-75.94 -170.45)" fill="none" stroke="#000" stroke-miterlimit="10"/>
  <path d="M591.52,745.45l19.62,19.62a6.93,6.93,0,0,1,0,9.81h0a6.93,6.93,0,0,1-9.81,0l-19.62-19.62a6.93,6.93,0,0,1,0-9.81h0A6.93,6.93,0,0,1,591.52,745.45Z" transform="translate(-75.94 -170.45)" fill="none" stroke="#000" stroke-miterlimit="10"/>
  <path d="M552.27,706.21a6.94,6.94,0,1,1-9.81,0A6.93,6.93,0,0,1,552.27,706.21Z" transform="translate(-75.94 -170.45)" fill="none" stroke="#000" stroke-miterlimit="10"/>
  <path d="M571.89,725.83a6.93,6.93,0,1,1-9.81,0A6.94,6.94,0,0,1,571.89,725.83Z" transform="translate(-75.94 -170.45)" fill="none" stroke="#000" stroke-miterlimit="10"/>
  <path d="M630.75,784.68a6.94,6.94,0,1,1-9.81,0A7,7,0,0,1,630.75,784.68Z" transform="translate(-75.94 -170.45)" fill="none" stroke="#000" stroke-miterlimit="10"/>
  <path d="M128.49,580.54l19.62,19.62a7,7,0,0,1,0,9.81h0a6.93,6.93,0,0,1-9.81,0l-19.62-19.62a6.93,6.93,0,0,1,0-9.81h0A6.93,6.93,0,0,1,128.49,580.54Z" transform="translate(-75.94 -170.45)" fill="none" stroke="#000" stroke-miterlimit="10" stroke-width="3"/>
  <path d="M187.35,639.4,207,659a6.93,6.93,0,0,1,0,9.81h0a6.92,6.92,0,0,1-9.8,0l-19.62-19.62a6.93,6.93,0,0,1,0-9.81h0A6.93,6.93,0,0,1,187.35,639.4Z" transform="translate(-75.94 -170.45)" fill="none" stroke="#000" stroke-miterlimit="10" stroke-width="3"/>
  <path d="M167.68,619.75a6.94,6.94,0,1,1-9.81,0A6.93,6.93,0,0,1,167.68,619.75Z" transform="translate(-75.94 -170.45)" fill="none" stroke="#000" stroke-miterlimit="10" stroke-width="3"/>
  <path d="M226.64,678.7a6.94,6.94,0,1,1-9.81,0A7,7,0,0,1,226.64,678.7Z" transform="translate(-75.94 -170.45)" fill="none" stroke="#000" stroke-miterlimit="10" stroke-width="3"/>
  <path d="M266.06,717.75l19.62,19.62a6.93,6.93,0,0,1,0,9.81h0a6.93,6.93,0,0,1-9.81,0l-19.62-19.62a6.93,6.93,0,0,1,0-9.81h0A6.93,6.93,0,0,1,266.06,717.75Z" transform="translate(-75.94 -170.45)" fill="none" stroke="#000" stroke-miterlimit="10"/>
  <path d="M305.19,756.89a6.94,6.94,0,1,1-9.81,0A6.93,6.93,0,0,1,305.19,756.89Z" transform="translate(-75.94 -170.45)" fill="none" stroke="#000" stroke-miterlimit="10"/>
  <path d="M324.72,776.79a6.94,6.94,0,1,1-9.81,0A6.93,6.93,0,0,1,324.72,776.79Z" transform="translate(-75.94 -170.45)" fill="none" stroke="#000" stroke-miterlimit="10"/>
  <path d="M364,816a6.94,6.94,0,1,1-9.81,0A6.93,6.93,0,0,1,364,816Z" transform="translate(-75.94 -170.45)" fill="none" stroke="#000" stroke-miterlimit="10"/>
  <path d="M149.58,363.05a6.94,6.94,0,1,1-9.81,0A6.93,6.93,0,0,1,149.58,363.05Z" transform="translate(-75.94 -170.45)" fill="none" stroke="#000" stroke-miterlimit="10"/>
  <path d="M169.2,382.67a6.94,6.94,0,1,1-9.81,0A6.93,6.93,0,0,1,169.2,382.67Z" transform="translate(-75.94 -170.45)" fill="none" stroke="#000" stroke-miterlimit="10"/>
  <path d="M601.05,814.48l19.62,19.62a6.93,6.93,0,0,1,0,9.81h0a6.93,6.93,0,0,1-9.81,0l-19.62-19.62a6.93,6.93,0,0,1,0-9.81h0A6.93,6.93,0,0,1,601.05,814.48Z" transform="translate(-75.94 -170.45)" fill="none" stroke="#000" stroke-miterlimit="10"/>
  <path d="M640.29,853.72l19.62,19.62a6.93,6.93,0,0,1,0,9.81h0a6.93,6.93,0,0,1-9.81,0l-19.62-19.62a6.93,6.93,0,0,1,0-9.81h0A6.93,6.93,0,0,1,640.29,853.72Z" transform="translate(-75.94 -170.45)" fill="none" stroke="#000" stroke-miterlimit="10"/>
  <path d="M228,441.59l19.62,19.62a6.93,6.93,0,0,1,0,9.81h0a6.93,6.93,0,0,1-9.81,0L218.21,451.4a6.93,6.93,0,0,1,0-9.81h0A6.93,6.93,0,0,1,228,441.59Z" transform="translate(-75.94 -170.45)" fill="none" stroke="#000" stroke-miterlimit="10" stroke-width="2"/>
  <path d="M267.26,480.83l19.62,19.62a6.93,6.93,0,0,1,0,9.81h0a6.93,6.93,0,0,1-9.81,0l-19.62-19.62a6.93,6.93,0,0,1,0-9.81h0A6.93,6.93,0,0,1,267.26,480.83Z" transform="translate(-75.94 -170.45)" fill="none" stroke="#000" stroke-miterlimit="10" stroke-width="2"/>
  <path d="M306.5,520.07l19.62,19.62a6.93,6.93,0,0,1,0,9.81h0a6.93,6.93,0,0,1-9.81,0l-19.62-19.62a6.93,6.93,0,0,1,0-9.81h0A6.93,6.93,0,0,1,306.5,520.07Z" transform="translate(-75.94 -170.45)" fill="none" stroke="#000" stroke-miterlimit="10" stroke-width="2"/>
  <path d="M208.39,422a6.94,6.94,0,1,1-9.81,0A7,7,0,0,1,208.39,422Z" transform="translate(-75.94 -170.45)" fill="none" stroke="#000" stroke-miterlimit="10" stroke-width="2"/>
  <path d="M365.37,579,385,598.59a6.93,6.93,0,0,1,0,9.81h0a6.93,6.93,0,0,1-9.81,0l-19.62-19.62a6.93,6.93,0,0,1,0-9.81h0A7,7,0,0,1,365.37,579Z" transform="translate(-75.94 -170.45)" fill="none" stroke="#000" stroke-miterlimit="10"/>
  <path d="M424.23,637.83l19.62,19.62a6.93,6.93,0,0,1,0,9.81h0a6.93,6.93,0,0,1-9.81,0l-19.62-19.62a6.93,6.93,0,0,1,0-9.81h0A6.93,6.93,0,0,1,424.23,637.83Z" transform="translate(-75.94 -170.45)" fill="none" stroke="#000" stroke-miterlimit="10"/>
  <path d="M404.59,618.21a6.94,6.94,0,1,1-9.81,0A6.93,6.93,0,0,1,404.59,618.21Z" transform="translate(-75.94 -170.45)" fill="none" stroke="#000" stroke-miterlimit="10"/>
  <path d="M502.78,716.42,522.4,736a7,7,0,0,1,0,9.81h0a6.93,6.93,0,0,1-9.81,0L493,726.23a6.93,6.93,0,0,1,0-9.81h0A6.93,6.93,0,0,1,502.78,716.42Z" transform="translate(-75.94 -170.45)" fill="none" stroke="#000" stroke-miterlimit="10"/>
  <path d="M483.14,696.79a6.94,6.94,0,1,1-9.81,0A6.93,6.93,0,0,1,483.14,696.79Z" transform="translate(-75.94 -170.45)" fill="none" stroke="#000" stroke-miterlimit="10"/>
  <path d="M542,755.65a6.94,6.94,0,1,1-9.81,0A6.93,6.93,0,0,1,542,755.65Z" transform="translate(-75.94 -170.45)" fill="none" stroke="#000" stroke-miterlimit="10"/>
  <path d="M561.62,775.27a6.94,6.94,0,1,1-9.81,0A6.93,6.93,0,0,1,561.62,775.27Z" transform="translate(-75.94 -170.45)" fill="none" stroke="#000" stroke-miterlimit="10"/>
  <path d="M138.55,531.06l19.62,19.62a6.93,6.93,0,0,1,0,9.81h0a6.93,6.93,0,0,1-9.81,0l-19.62-19.62a6.93,6.93,0,0,1,0-9.81h0A6.93,6.93,0,0,1,138.55,531.06Z" transform="translate(-75.94 -170.45)" fill="none" stroke="#000" stroke-miterlimit="10"/>
  <path d="M177.79,570.3l19.62,19.62a6.93,6.93,0,0,1,0,9.81h0a6.93,6.93,0,0,1-9.81,0L168,580.11a6.93,6.93,0,0,1,0-9.81h0A6.93,6.93,0,0,1,177.79,570.3Z" transform="translate(-75.94 -170.45)" fill="none" stroke="#000" stroke-miterlimit="10"/>
  <path d="M217,609.54l19.62,19.62a6.93,6.93,0,0,1,0,9.81h0a6.93,6.93,0,0,1-9.81,0l-19.62-19.62a6.93,6.93,0,0,1,0-9.81h0A6.93,6.93,0,0,1,217,609.54Z" transform="translate(-75.94 -170.45)" fill="none" stroke="#000" stroke-miterlimit="10"/>
  <path d="M118.91,511.44a6.94,6.94,0,1,1-9.81,0A6.93,6.93,0,0,1,118.91,511.44Z" transform="translate(-75.94 -170.45)" fill="none" stroke="#000" stroke-miterlimit="10"/>
  <path d="M275.9,668.45l19.62,19.62a7,7,0,0,1,0,9.81h0a7,7,0,0,1-9.81,0l-19.62-19.62a6.93,6.93,0,0,1,0-9.81h0A6.93,6.93,0,0,1,275.9,668.45Z" transform="translate(-75.94 -170.45)" fill="none" stroke="#000" stroke-miterlimit="10"/>
  <path d="M334.75,727.31l19.62,19.62a6.93,6.93,0,0,1,0,9.81h0a7,7,0,0,1-9.81,0l-19.62-19.62a7,7,0,0,1,0-9.81h0A6.93,6.93,0,0,1,334.75,727.31Z" transform="translate(-75.94 -170.45)" fill="none" stroke="#000" stroke-miterlimit="10"/>
  <path d="M315.12,707.68a6.94,6.94,0,1,1-9.81,0A6.93,6.93,0,0,1,315.12,707.68Z" transform="translate(-75.94 -170.45)" fill="none" stroke="#000" stroke-miterlimit="10"/>
  <path d="M413.3,805.89l19.62,19.62a6.93,6.93,0,0,1,0,9.81h0a6.93,6.93,0,0,1-9.81,0L403.49,815.7a6.93,6.93,0,0,1,0-9.81h0A6.93,6.93,0,0,1,413.3,805.89Z" transform="translate(-75.94 -170.45)" fill="none" stroke="#000" stroke-miterlimit="10"/>
  <path d="M393.67,786.27a6.94,6.94,0,1,1-9.81,0A6.93,6.93,0,0,1,393.67,786.27Z" transform="translate(-75.94 -170.45)" fill="none" stroke="#000" stroke-miterlimit="10"/>
  <path d="M452.53,845.13a6.94,6.94,0,1,1-9.81,0A6.93,6.93,0,0,1,452.53,845.13Z" transform="translate(-75.94 -170.45)" fill="none" stroke="#000" stroke-miterlimit="10"/>
  <path d="M472.15,864.75a6.94,6.94,0,1,1-9.81,0A6.93,6.93,0,0,1,472.15,864.75Z" transform="translate(-75.94 -170.45)" fill="none" stroke="#000" stroke-miterlimit="10"/>
  <path d="M187,757.39,206.57,777a6.93,6.93,0,0,1,0,9.81h0a6.93,6.93,0,0,1-9.81,0L177.14,767.2a7,7,0,0,1,0-9.81h0A6.93,6.93,0,0,1,187,757.39Z" transform="translate(-75.94 -170.45)" fill="none" stroke="#000" stroke-miterlimit="10" stroke-width="3"/>
  <path d="M245.81,816.25l19.62,19.62a6.93,6.93,0,0,1,0,9.81h0a6.93,6.93,0,0,1-9.81,0L236,826.06a6.93,6.93,0,0,1,0-9.81h0A6.93,6.93,0,0,1,245.81,816.25Z" transform="translate(-75.94 -170.45)" fill="none" stroke="#000" stroke-miterlimit="10" stroke-width="3"/>
  <path d="M226.18,796.62a6.94,6.94,0,1,1-9.81,0A6.93,6.93,0,0,1,226.18,796.62Z" transform="translate(-75.94 -170.45)" fill="none" stroke="#000" stroke-miterlimit="10" stroke-width="3"/>
  <path d="M178.64,452l19.62,19.62a6.93,6.93,0,0,1,0,9.81h0a7,7,0,0,1-9.81,0l-19.62-19.62a6.93,6.93,0,0,1,0-9.81h0A6.93,6.93,0,0,1,178.64,452Z" transform="translate(-75.94 -170.45)" fill="none" stroke="#000" stroke-miterlimit="10"/>
  <path d="M217.88,491.24l19.62,19.62a6.93,6.93,0,0,1,0,9.81h0a7,7,0,0,1-9.81,0l-19.62-19.62a6.93,6.93,0,0,1,0-9.81h0A6.93,6.93,0,0,1,217.88,491.24Z" transform="translate(-75.94 -170.45)" fill="none" stroke="#000" stroke-miterlimit="10"/>
  <path d="M159,432.37a6.94,6.94,0,1,1-9.81,0A6.93,6.93,0,0,1,159,432.37Z" transform="translate(-75.94 -170.45)" fill="none" stroke="#000" stroke-miterlimit="10"/>
  <path d="M257.11,530.47a6.94,6.94,0,1,1-9.81,0A6.93,6.93,0,0,1,257.11,530.47Z" transform="translate(-75.94 -170.45)" fill="none" stroke="#000" stroke-miterlimit="10"/>
  <path d="M148.82,482.23l19.62,19.62a6.93,6.93,0,0,1,0,9.81h0a6.93,6.93,0,0,1-9.81,0L139,492a6.93,6.93,0,0,1,0-9.81h0A6.93,6.93,0,0,1,148.82,482.23Z" transform="translate(-75.94 -170.45)" fill="none" stroke="#000" stroke-miterlimit="10" stroke-width="3"/>
  <path d="M89.94,423.37a6.94,6.94,0,1,1-9.81,0A6.93,6.93,0,0,1,89.94,423.37Z" transform="translate(-75.94 -170.45)" fill="none" stroke="#000" stroke-miterlimit="10" stroke-width="3"/>
  <path d="M109.56,443a6.94,6.94,0,1,1-9.81,0A6.93,6.93,0,0,1,109.56,443Z" transform="translate(-75.94 -170.45)" fill="none" stroke="#000" stroke-miterlimit="10" stroke-width="3"/>
  <path d="M129.18,462.61a6.94,6.94,0,1,1-9.81,0A6.93,6.93,0,0,1,129.18,462.61Z" transform="translate(-75.94 -170.45)" fill="none" stroke="#000" stroke-miterlimit="10" stroke-width="3"/>
  <path d="M227.29,560.73l19.62,19.62a6.93,6.93,0,0,1,0,9.81h0a6.93,6.93,0,0,1-9.81,0l-19.62-19.62a6.93,6.93,0,0,1,0-9.81h0A6.93,6.93,0,0,1,227.29,560.73Z" transform="translate(-75.94 -170.45)" fill="none" stroke="#000" stroke-miterlimit="10"/>
  <path d="M266.53,600l19.62,19.62a6.93,6.93,0,0,1,0,9.81h0a6.93,6.93,0,0,1-9.81,0l-19.62-19.62a6.93,6.93,0,0,1,0-9.81h0A6.93,6.93,0,0,1,266.53,600Z" transform="translate(-75.94 -170.45)" fill="none" stroke="#000" stroke-miterlimit="10"/>
  <path d="M207.66,541.11a6.94,6.94,0,1,1-9.81,0A6.93,6.93,0,0,1,207.66,541.11Z" transform="translate(-75.94 -170.45)" fill="none" stroke="#000" stroke-miterlimit="10"/>
  <path d="M325.74,658.79l19.62,19.62a6.93,6.93,0,0,1,0,9.81h0a6.93,6.93,0,0,1-9.81,0L315.93,668.6a6.93,6.93,0,0,1,0-9.81h0A6.93,6.93,0,0,1,325.74,658.79Z" transform="translate(-75.94 -170.45)" fill="none" stroke="#000" stroke-miterlimit="10" stroke-width="3"/>
  <path d="M404.22,737.27l19.62,19.62a6.93,6.93,0,0,1,0,9.81h0a6.93,6.93,0,0,1-9.81,0l-19.62-19.62a6.93,6.93,0,0,1,0-9.81h0A6.93,6.93,0,0,1,404.22,737.27Z" transform="translate(-75.94 -170.45)" fill="none" stroke="#000" stroke-miterlimit="10" stroke-width="3"/>
  <path d="M365,698a6.94,6.94,0,1,1-9.81,0A7,7,0,0,1,365,698Z" transform="translate(-75.94 -170.45)" fill="none" stroke="#000" stroke-miterlimit="10" stroke-width="3"/>
  <path d="M384.59,717.64a6.94,6.94,0,1,1-9.81,0A7,7,0,0,1,384.59,717.64Z" transform="translate(-75.94 -170.45)" fill="none" stroke="#000" stroke-miterlimit="10" stroke-width="3"/>
  <path d="M296.45,569.61l19.62,19.62a7,7,0,0,1,0,9.81h0a6.93,6.93,0,0,1-9.81,0l-19.62-19.62a6.93,6.93,0,0,1,0-9.81h0A6.93,6.93,0,0,1,296.45,569.61Z" transform="translate(-75.94 -170.45)" fill="none" stroke="#000" stroke-miterlimit="10"/>
  <path d="M335.68,608.85l19.62,19.62a6.93,6.93,0,0,1,0,9.81h0a6.93,6.93,0,0,1-9.81,0l-19.61-19.62a6.93,6.93,0,0,1,0-9.81h0A6.92,6.92,0,0,1,335.68,608.85Z" transform="translate(-75.94 -170.45)" fill="none" stroke="#000" stroke-miterlimit="10"/>
  <path d="M394.54,667.71l19.62,19.62a6.93,6.93,0,0,1,0,9.81h0a6.93,6.93,0,0,1-9.81,0l-19.62-19.62a7,7,0,0,1,0-9.81h0A6.93,6.93,0,0,1,394.54,667.71Z" transform="translate(-75.94 -170.45)" fill="none" stroke="#000" stroke-miterlimit="10"/>
  <path d="M374.91,648.08a6.94,6.94,0,1,1-9.81,0A6.93,6.93,0,0,1,374.91,648.08Z" transform="translate(-75.94 -170.45)" fill="none" stroke="#000" stroke-miterlimit="10"/>
  <path d="M590.71,864.16a6.94,6.94,0,1,1-9.81,0A6.93,6.93,0,0,1,590.71,864.16Z" transform="translate(-75.94 -170.45)" fill="none" stroke="#000" stroke-miterlimit="10"/>
  <path d="M571.09,844.54a6.94,6.94,0,1,1-9.81,0A6.93,6.93,0,0,1,571.09,844.54Z" transform="translate(-75.94 -170.45)" fill="none" stroke="#000" stroke-miterlimit="10"/>
  <path d="M551.47,824.92a6.94,6.94,0,1,1-9.81,0A6.93,6.93,0,0,1,551.47,824.92Z" transform="translate(-75.94 -170.45)" fill="none" stroke="#000" stroke-miterlimit="10"/>
  <path d="M88.28,777.78,107.9,797.4a6.93,6.93,0,0,1,0,9.81h0a7,7,0,0,1-9.81,0L78.47,787.59a6.93,6.93,0,0,1,0-9.81h0A6.93,6.93,0,0,1,88.28,777.78Z" transform="translate(-75.94 -170.45)" fill="none" stroke="#000" stroke-miterlimit="10"/>
  <path d="M127.52,817l19.62,19.62a6.93,6.93,0,0,1,0,9.81h0a7,7,0,0,1-9.81,0l-19.62-19.62a6.93,6.93,0,0,1,0-9.81h0A6.93,6.93,0,0,1,127.52,817Z" transform="translate(-75.94 -170.45)" fill="none" stroke="#000" stroke-miterlimit="10"/>
  <path d="M186.38,875.87,206,895.49a6.93,6.93,0,0,1,0,9.81h0a6.93,6.93,0,0,1-9.81,0l-19.62-19.62a6.93,6.93,0,0,1,0-9.81h0A7,7,0,0,1,186.38,875.87Z" transform="translate(-75.94 -170.45)" fill="none" stroke="#000" stroke-miterlimit="10"/>
  <path d="M166.75,856.25a6.94,6.94,0,1,1-9.81,0A7,7,0,0,1,166.75,856.25Z" transform="translate(-75.94 -170.45)" fill="none" stroke="#000" stroke-miterlimit="10"/>
  <path d="M177.63,688.43l19.62,19.62a6.93,6.93,0,0,1,0,9.81h0a6.93,6.93,0,0,1-9.81,0l-19.62-19.62a6.93,6.93,0,0,1,0-9.81h0A6.93,6.93,0,0,1,177.63,688.43Z" transform="translate(-75.94 -170.45)" fill="none" stroke="#000" stroke-miterlimit="10"/>
  <path d="M216.87,727.67l19.62,19.62a6.93,6.93,0,0,1,0,9.81h0a6.93,6.93,0,0,1-9.81,0l-19.62-19.62a6.93,6.93,0,0,1,0-9.81h0A6.93,6.93,0,0,1,216.87,727.67Z" transform="translate(-75.94 -170.45)" fill="none" stroke="#000" stroke-miterlimit="10"/>
  <path d="M275.73,786.53l19.62,19.62a7,7,0,0,1,0,9.81h0a6.93,6.93,0,0,1-9.81,0l-19.62-19.62a6.93,6.93,0,0,1,0-9.81h0A6.93,6.93,0,0,1,275.73,786.53Z" transform="translate(-75.94 -170.45)" fill="none" stroke="#000" stroke-miterlimit="10"/>
  <path d="M256.09,766.9a6.94,6.94,0,1,1-9.81,0A6.93,6.93,0,0,1,256.09,766.9Z" transform="translate(-75.94 -170.45)" fill="none" stroke="#000" stroke-miterlimit="10"/>
</svg>
