<svg xmlns="http://www.w3.org/2000/svg" viewBox="0 0 1914.37 1499.33">
  <title>jb</title>
  <path d="M225,264.82H214.45V254.29H225Zm-9.53-1H224v-8.53h-8.53Z" transform="translate(-4.74 -20.17)"/>
  <path d="M742.34,376.28H731.81V365.75h10.53Zm-9.53-1h8.53v-8.53h-8.53Z" transform="translate(-4.74 -20.17)"/>
  <path d="M182.23,633.64H171.7V623.12h10.53Zm-9.53-1h8.53v-8.52H172.7Z" transform="translate(-4.74 -20.17)"/>
  <path d="M1575.91,758.4h-10.53V747.87h10.53Zm-9.53-1h8.53v-8.53h-8.53Z" transform="translate(-4.74 -20.17)"/>
  <path d="M1858.26,540h-10.53V529.44h10.53Zm-9.53-1h8.53v-8.53h-8.53Z" transform="translate(-4.74 -20.17)"/>
  <path d="M739.68,702.89H729.15V692.36h10.53Zm-9.53-1h8.53v-8.53h-8.53Z" transform="translate(-4.74 -20.17)"/>
  <path d="M27.39,907.11H16.86V896.58H27.39Zm-9.53-1h8.53v-8.53H17.86Z" transform="translate(-4.74 -20.17)"/>
  <path d="M475.36,173.41H464.84V162.88h10.52Zm-9.52-1h8.52v-8.53h-8.52Z" transform="translate(-4.74 -20.17)"/>
  <path d="M1862.2,1193.29h-10.53v-10.53h10.53Zm-9.53-1h8.53v-8.53h-8.53Z" transform="translate(-4.74 -20.17)"/>
  <path d="M68.76,87.33H58.24V76.8H68.76Zm-9.52-1h8.52V77.8H59.24Z" transform="translate(-4.74 -20.17)"/>
  <path d="M1885.14,176.86h-10.53V166.33h10.53Zm-9.53-1h8.53v-8.53h-8.53Z" transform="translate(-4.74 -20.17)"/>
  <path d="M985.17,211.11H974.64V200.58h10.53Zm-9.53-1h8.53v-8.53h-8.53Z" transform="translate(-4.74 -20.17)"/>
  <path d="M1642.56,521.66H1632V511.14h10.53Zm-9.53-1h8.53v-8.52H1633Z" transform="translate(-4.74 -20.17)"/>
  <path d="M411.17,350.15H400.65V339.62h10.52Zm-9.52-1h8.52v-8.53h-8.52Z" transform="translate(-4.74 -20.17)"/>
  <path d="M822,555.15H811.44V544.62H822Zm-9.52-1H821v-8.53h-8.52Z" transform="translate(-4.74 -20.17)"/>
  <path d="M454.94,711.25H444.41V700.72h10.53Zm-9.53-1h8.53v-8.53h-8.53Z" transform="translate(-4.74 -20.17)"/>
  <path d="M392.36,1023.79H381.83v-10.53h10.53Zm-9.53-1h8.53v-8.53h-8.53Z" transform="translate(-4.74 -20.17)"/>
  <path d="M797.53,203H787V192.5h10.53ZM788,202h8.53V193.5H788Z" transform="translate(-4.74 -20.17)"/>
  <path d="M1214.2,113.34h-10.53V102.81h10.53Zm-9.53-1h8.53v-8.53h-8.53Z" transform="translate(-4.74 -20.17)"/>
  <path d="M214.71,443.3H204.18V432.77h10.53Zm-9.53-1h8.53v-8.53h-8.53Z" transform="translate(-4.74 -20.17)"/>
  <path d="M1680,155.1H1669.5V144.57H1680Zm-9.52-1H1679v-8.53h-8.52Z" transform="translate(-4.74 -20.17)"/>
  <path d="M1345.64,700.06h-10.53V689.53h10.53Zm-9.53-1h8.53v-8.53h-8.53Z" transform="translate(-4.74 -20.17)"/>
  <path d="M960.23,56.75H949.7V46.22h10.53Zm-9.53-1h8.53V47.22H950.7Z" transform="translate(-4.74 -20.17)"/>
  <path d="M1380.94,354.15h-10.53V343.62h10.53Zm-9.53-1h8.53v-8.53h-8.53Z" transform="translate(-4.74 -20.17)"/>
  <path d="M659.06,500.31H648.54V489.78h10.52Zm-9.52-1h8.52v-8.53h-8.52Z" transform="translate(-4.74 -20.17)"/>
  <path d="M981.71,945.64H971.18V935.11h10.53Zm-9.53-1h8.53v-8.53h-8.53Z" transform="translate(-4.74 -20.17)"/>
  <path d="M319.84,131.75H309.31V121.23h10.53Zm-9.53-1h8.53v-8.52h-8.53Z" transform="translate(-4.74 -20.17)"/>
  <path d="M614.12,192.45H603.59V181.93h10.53Zm-9.53-1h8.53v-8.52h-8.53Z" transform="translate(-4.74 -20.17)"/>
  <path d="M18.17,211H7.64V200.48H18.17Zm-9.53-1h8.53v-8.53H8.64Z" transform="translate(-4.74 -20.17)"/>
  <path d="M1041.79,653.88h-10.52V643.35h10.52Zm-9.52-1h8.52v-8.53h-8.52Z" transform="translate(-4.74 -20.17)"/>
  <path d="M922.43,373.54H911.9V363h10.53Zm-9.53-1h8.53V364H912.9Z" transform="translate(-4.74 -20.17)"/>
  <path d="M549.16,363.84H538.64V353.31h10.52Zm-9.52-1h8.52v-8.53h-8.52Z" transform="translate(-4.74 -20.17)"/>
  <path d="M21.83,692H11.3V681.5H21.83Zm-9.53-1h8.53V682.5H12.3Z" transform="translate(-4.74 -20.17)"/>
  <path d="M1114.67,298.43h-10.53V287.91h10.53Zm-9.53-1h8.53v-8.52h-8.53Z" transform="translate(-4.74 -20.17)"/>
  <path d="M1516.64,53.52h-10.53V43h10.53Zm-9.53-1h8.53V44h-8.53Z" transform="translate(-4.74 -20.17)"/>
  <path d="M1919.12,44.41h-10.53V33.88h10.53Zm-9.53-1h8.53V34.88h-8.53Z" transform="translate(-4.74 -20.17)"/>
  <path d="M28.85,550.83H18.32V540.3H28.85Zm-9.53-1h8.53V541.3H19.32Z" transform="translate(-4.74 -20.17)"/>
  <path d="M1364,35.15h-10.53V24.62H1364Zm-9.53-1H1363V25.62h-8.53Z" transform="translate(-4.74 -20.17)"/>
  <path d="M1917.7,331h-10.53V320.48h10.53Zm-9.53-1h8.53v-8.53h-8.53Z" transform="translate(-4.74 -20.17)"/>
  <path d="M917.82,627.91H907.3V617.38h10.52Zm-9.52-1h8.52v-8.53H908.3Z" transform="translate(-4.74 -20.17)"/>
  <path d="M212.13,42.65H201.61V32.12h10.52Zm-9.52-1h8.52V33.12h-8.52Z" transform="translate(-4.74 -20.17)"/>
  <path d="M1117.9,434.23h-10.53V423.7h10.53Zm-9.53-1h8.53V424.7h-8.53Z" transform="translate(-4.74 -20.17)"/>
  <path d="M590.56,657H580V646.46h10.53ZM581,656h8.53v-8.53H581Z" transform="translate(-4.74 -20.17)"/>
  <path d="M1587.09,913.47h-10.53V902.94h10.53Zm-9.53-1h8.53v-8.53h-8.53Z" transform="translate(-4.74 -20.17)"/>
  <path d="M1098.53,80.64H1088V70.11h10.52Zm-9.52-1h8.52V71.11H1089Z" transform="translate(-4.74 -20.17)"/>
  <path d="M1907.19,670.14h-10.52V659.61h10.52Zm-9.52-1h8.52v-8.53h-8.52Z" transform="translate(-4.74 -20.17)"/>
  <path d="M134.5,366.87H124V356.34H134.5Zm-9.53-1h8.53v-8.53H125Z" transform="translate(-4.74 -20.17)"/>
  <path d="M487.58,451.47H477.06V440.94h10.52Zm-9.52-1h8.52v-8.53h-8.52Z" transform="translate(-4.74 -20.17)"/>
  <path d="M1791.43,124.43H1780.9V113.9h10.53Zm-9.53-1h8.53V114.9h-8.53Z" transform="translate(-4.74 -20.17)"/>
  <path d="M398.46,808.77H387.93V798.25h10.53Zm-9.53-1h8.53v-8.52h-8.53Z" transform="translate(-4.74 -20.17)"/>
  <path d="M557.17,92H546.64V81.51h10.53Zm-9.53-1h8.53V82.51h-8.53Z" transform="translate(-4.74 -20.17)"/>
  <path d="M1781.8,612.14h-10.53V601.62h10.53Zm-9.53-1h8.53v-8.52h-8.53Z" transform="translate(-4.74 -20.17)"/>
  <path d="M114.14,472.9H103.61V462.37h10.53Zm-9.53-1h8.53v-8.53h-8.53Z" transform="translate(-4.74 -20.17)"/>
  <path d="M1659.3,333.11h-10.53V322.58h10.53Zm-9.53-1h8.53v-8.53h-8.53Z" transform="translate(-4.74 -20.17)"/>
  <path d="M346.47,264.65H335.94V254.12h10.53Zm-9.53-1h8.53v-8.53h-8.53Z" transform="translate(-4.74 -20.17)"/>
  <path d="M1570.09,141.83h-10.53V131.31h10.53Zm-9.53-1h8.53v-8.52h-8.53Z" transform="translate(-4.74 -20.17)"/>
  <path d="M1911.6,828.62h-10.52V818.09h10.52Zm-9.52-1h8.52v-8.53h-8.52Z" transform="translate(-4.74 -20.17)"/>
  <path d="M285.21,380.37H274.68V369.84h10.53Zm-9.53-1h8.53v-8.53h-8.53Z" transform="translate(-4.74 -20.17)"/>
  <path d="M645.68,321.53H635.15V311h10.53Zm-9.53-1h8.53V312h-8.53Z" transform="translate(-4.74 -20.17)"/>
  <path d="M1056.22,853.36h-10.53V842.83h10.53Zm-9.53-1h8.53v-8.53h-8.53Z" transform="translate(-4.74 -20.17)"/>
  <path d="M901.33,269H890.81V258.47h10.52Zm-9.52-1h8.52v-8.53h-8.52Z" transform="translate(-4.74 -20.17)"/>
  <path d="M1465.36,247.14h-10.53V236.61h10.53Zm-9.53-1h8.53v-8.53h-8.53Z" transform="translate(-4.74 -20.17)"/>
  <path d="M763.18,100.58H752.65V90.06h10.53Zm-9.53-1h8.53V91.06h-8.53Z" transform="translate(-4.74 -20.17)"/>
  <path d="M377.75,460H367.22V449.47h10.53Zm-9.53-1h8.53v-8.53h-8.53Z" transform="translate(-4.74 -20.17)"/>
  <path d="M363,708.43H352.43V697.9H363Zm-9.53-1H362V698.9h-8.53Z" transform="translate(-4.74 -20.17)"/>
  <path d="M1484.44,929.73h-10.53V919.2h10.53Zm-9.53-1h8.53V920.2h-8.53Z" transform="translate(-4.74 -20.17)"/>
  <path d="M1148.13,202.92H1137.6V192.39h10.53Zm-9.53-1h8.53v-8.53h-8.53Z" transform="translate(-4.74 -20.17)"/>
  <path d="M1890.05,452.56h-10.53V442h10.53Zm-9.53-1h8.53V443h-8.53Z" transform="translate(-4.74 -20.17)"/>
  <path d="M1831.94,34.85h-10.52V24.32h10.52Zm-9.52-1h8.52V25.32h-8.52Z" transform="translate(-4.74 -20.17)"/>
  <path d="M417.14,75.87H406.61V65.34h10.53Zm-9.53-1h8.53V66.34h-8.53Z" transform="translate(-4.74 -20.17)"/>
  <path d="M1257.75,231.18h-10.53V220.66h10.53Zm-9.53-1h8.53v-8.52h-8.53Z" transform="translate(-4.74 -20.17)"/>
  <path d="M1460.75,147.46h-10.53V136.93h10.53Zm-9.53-1h8.53v-8.53h-8.53Z" transform="translate(-4.74 -20.17)"/>
  <path d="M1719.25,249.33h-10.53V238.8h10.53Zm-9.53-1h8.53V239.8h-8.53Z" transform="translate(-4.74 -20.17)"/>
  <path d="M445.62,260.84H435.09V250.31h10.53Zm-9.53-1h8.53v-8.53h-8.53Z" transform="translate(-4.74 -20.17)"/>
  <path d="M1416.39,640.68h-10.53V630.16h10.53Zm-9.53-1h8.53v-8.52h-8.53Z" transform="translate(-4.74 -20.17)"/>
  <path d="M35.18,321.83H24.65V311.31H35.18Zm-9.53-1h8.53v-8.52H25.65Z" transform="translate(-4.74 -20.17)"/>
  <path d="M851.7,450.91H841.17V440.38H851.7Zm-9.53-1h8.53v-8.53h-8.53Z" transform="translate(-4.74 -20.17)"/>
  <path d="M1291.13,148.26H1280.6V137.73h10.53Zm-9.53-1h8.53v-8.53h-8.53Z" transform="translate(-4.74 -20.17)"/>
  <path d="M748.94,476H738.41V465.49h10.53Zm-9.53-1h8.53v-8.53h-8.53Z" transform="translate(-4.74 -20.17)"/>
  <path d="M728.94,284.08H718.41V273.55h10.53Zm-9.53-1h8.53v-8.53h-8.53Z" transform="translate(-4.74 -20.17)"/>
  <path d="M1605.52,406.09H1595V395.56h10.53Zm-9.53-1h8.53v-8.53H1596Z" transform="translate(-4.74 -20.17)"/>
  <path d="M1340.7,243.48h-10.52V233h10.52Zm-9.52-1h8.52V234h-8.52Z" transform="translate(-4.74 -20.17)"/>
  <path d="M1241.51,577.44H1231V566.91h10.53Zm-9.53-1h8.53v-8.53H1232Z" transform="translate(-4.74 -20.17)"/>
  <path d="M915,166.36H904.45V155.83H915Zm-9.53-1H914v-8.53h-8.53Z" transform="translate(-4.74 -20.17)"/>
  <path d="M1034.21,367.16h-10.53V356.63h10.53Zm-9.53-1h8.53v-8.53h-8.53Z" transform="translate(-4.74 -20.17)"/>
  <path d="M537.15,249.59H526.62V239.06h10.53Zm-9.53-1h8.53v-8.53h-8.53Z" transform="translate(-4.74 -20.17)"/>
  <path d="M1593.6,247.44h-10.52V236.91h10.52Zm-9.52-1h8.52v-8.53h-8.52Z" transform="translate(-4.74 -20.17)"/>
  <path d="M593.88,441.15H583.35V430.63h10.53Zm-9.53-1h8.53v-8.52h-8.53Z" transform="translate(-4.74 -20.17)"/>
  <path d="M813.29,658.44H802.76V647.92h10.53Zm-9.53-1h8.53v-8.52h-8.53Z" transform="translate(-4.74 -20.17)"/>
  <path d="M1182.25,47.08h-10.53V36.56h10.53Zm-9.53-1h8.53V37.56h-8.53Z" transform="translate(-4.74 -20.17)"/>
  <path d="M695.23,199.49H684.7V189h10.53Zm-9.53-1h8.53V190H685.7Z" transform="translate(-4.74 -20.17)"/>
  <path d="M1215.18,417.57h-10.53V407h10.53Zm-9.53-1h8.53V408h-8.53Z" transform="translate(-4.74 -20.17)"/>
  <path d="M239.65,162.8H229.12V152.28h10.53Zm-9.53-1h8.53v-8.52h-8.53Z" transform="translate(-4.74 -20.17)"/>
  <path d="M1808.48,235.85H1798V225.32h10.53Zm-9.53-1h8.53v-8.53H1799Z" transform="translate(-4.74 -20.17)"/>
  <path d="M919,508.91H908.51V498.38H919Zm-9.53-1H918v-8.53h-8.53Z" transform="translate(-4.74 -20.17)"/>
  <path d="M1006.79,126.44H996.26V115.91h10.53Zm-9.53-1h8.53v-8.53h-8.53Z" transform="translate(-4.74 -20.17)"/>
  <path d="M289.89,642.38H279.37V631.85h10.52Zm-9.52-1h8.52v-8.53h-8.52Z" transform="translate(-4.74 -20.17)"/>
  <path d="M854.8,336.65H844.27V326.12H854.8Zm-9.53-1h8.53v-8.53h-8.53Z" transform="translate(-4.74 -20.17)"/>
  <path d="M399.7,169.21H389.17V158.68H399.7Zm-9.53-1h8.53v-8.53h-8.53Z" transform="translate(-4.74 -20.17)"/>
  <path d="M200,529H189.47V518.44H200Zm-9.53-1H199v-8.52h-8.53Z" transform="translate(-4.74 -20.17)"/>
  <path d="M692.6,121.25H682.07V110.72H692.6Zm-9.53-1h8.53v-8.53h-8.53Z" transform="translate(-4.74 -20.17)"/>
  <path d="M1814.17,682.41h-10.52V671.88h10.52Zm-9.52-1h8.52v-8.53h-8.52Z" transform="translate(-4.74 -20.17)"/>
  <path d="M631.23,726.74H620.7V716.21h10.53Zm-9.53-1h8.53v-8.53H621.7Z" transform="translate(-4.74 -20.17)"/>
  <path d="M122.33,1435.63H111.8V1425.1h10.53Zm-9.53-1h8.53v-8.53H112.8Z" transform="translate(-4.74 -20.17)"/>
  <path d="M1123.13,1052.37H1112.6v-10.53h10.53Zm-9.53-1h8.53v-8.53h-8.53Z" transform="translate(-4.74 -20.17)"/>
  <path d="M569.06,1202.74H558.53v-10.53h10.53Zm-9.53-1h8.53v-8.53h-8.53Z" transform="translate(-4.74 -20.17)"/>
  <path d="M148.21,83.09H137.68V72.56h10.53Zm-9.53-1h8.53V73.56h-8.53Z" transform="translate(-4.74 -20.17)"/>
  <path d="M102.12,687.37H91.6V676.84h10.52Zm-9.52-1h8.52v-8.53H92.6Z" transform="translate(-4.74 -20.17)"/>
  <path d="M1707.38,578.08h-10.53V567.56h10.53Zm-9.53-1h8.53v-8.52h-8.53Z" transform="translate(-4.74 -20.17)"/>
  <path d="M1293.57,66.78H1283V56.25h10.53Zm-9.53-1h8.53V57.25H1284Z" transform="translate(-4.74 -20.17)"/>
  <path d="M68.56,616.78H58V606.25H68.56Zm-9.53-1h8.53v-8.53H59Z" transform="translate(-4.74 -20.17)"/>
  <path d="M1884.4,266.7h-10.53V256.17h10.53Zm-9.53-1h8.53v-8.53h-8.53Z" transform="translate(-4.74 -20.17)"/>
  <path d="M1162.47,573.1h-10.53V562.57h10.53Zm-9.53-1h8.53v-8.53h-8.53Z" transform="translate(-4.74 -20.17)"/>
  <path d="M1316.29,340h-10.53V329.44h10.53Zm-9.53-1h8.53v-8.53h-8.53Z" transform="translate(-4.74 -20.17)"/>
  <path d="M516.93,1053.83H506.4V1043.3h10.53Zm-9.53-1h8.53v-8.53H507.4Z" transform="translate(-4.74 -20.17)"/>
  <path d="M1438.14,64.12h-10.53V53.59h10.53Zm-9.53-1h8.53V54.59h-8.53Z" transform="translate(-4.74 -20.17)"/>
  <path d="M20.54,989.89H10V979.36H20.54Zm-9.53-1h8.53v-8.53H11Z" transform="translate(-4.74 -20.17)"/>
  <path d="M482.83,334.6H472.3V324.07h10.53Zm-9.53-1h8.53v-8.53H473.3Z" transform="translate(-4.74 -20.17)"/>
  <path d="M1680.81,464.53h-10.53V454h10.53Zm-9.53-1h8.53V455h-8.53Z" transform="translate(-4.74 -20.17)"/>
  <path d="M1637.06,706.49h-10.53V696h10.53Zm-9.53-1h8.53V697h-8.53Z" transform="translate(-4.74 -20.17)"/>
  <path d="M1814.06,403.9h-10.53V393.37h10.53Zm-9.53-1h8.53v-8.53h-8.53Z" transform="translate(-4.74 -20.17)"/>
  <path d="M175.38,826.46H164.85V815.93h10.53Zm-9.53-1h8.53v-8.53h-8.53Z" transform="translate(-4.74 -20.17)"/>
  <path d="M1080.47,234.32h-10.53V223.79h10.53Zm-9.53-1h8.53v-8.53h-8.53Z" transform="translate(-4.74 -20.17)"/>
  <path d="M427.21,550.48H416.68V540h10.53Zm-9.53-1h8.53V541h-8.53Z" transform="translate(-4.74 -20.17)"/>
  <path d="M1635.84,1085.18h-10.53v-10.53h10.53Zm-9.53-1h8.53v-8.53h-8.53Z" transform="translate(-4.74 -20.17)"/>
  <path d="M998.24,280H987.71V269.43h10.53Zm-9.53-1h8.53v-8.52h-8.53Z" transform="translate(-4.74 -20.17)"/>
  <path d="M596.44,561.38H585.91V550.85h10.53Zm-9.53-1h8.53v-8.53h-8.53Z" transform="translate(-4.74 -20.17)"/>
  <path d="M1855.93,988.67H1845.4V978.14h10.53Zm-9.53-1h8.53v-8.53h-8.53Z" transform="translate(-4.74 -20.17)"/>
  <path d="M1122.64,636.17h-10.53V625.64h10.53Zm-9.53-1h8.53v-8.53h-8.53Z" transform="translate(-4.74 -20.17)"/>
  <path d="M300.27,203.55H289.74V193h10.53Zm-9.53-1h8.53V194h-8.53Z" transform="translate(-4.74 -20.17)"/>
  <path d="M806.1,282H795.57V271.46H806.1Zm-9.53-1h8.53v-8.53h-8.53Z" transform="translate(-4.74 -20.17)"/>
  <path d="M124.9,290.82H114.37V280.29H124.9Zm-9.53-1h8.53v-8.53h-8.53Z" transform="translate(-4.74 -20.17)"/>
  <path d="M131.34,594.05H120.81V583.52h10.53Zm-9.53-1h8.53v-8.53h-8.53Z" transform="translate(-4.74 -20.17)"/>
  <path d="M1274.16,633.21h-10.52V622.68h10.52Zm-9.52-1h8.52v-8.53h-8.52Z" transform="translate(-4.74 -20.17)"/>
  <path d="M1632.13,90h-10.52V79.44h10.52Zm-9.52-1h8.52V80.44h-8.52Z" transform="translate(-4.74 -20.17)"/>
  <path d="M834.86,393.08H824.33V382.55h10.53Zm-9.53-1h8.53v-8.53h-8.53Z" transform="translate(-4.74 -20.17)"/>
  <path d="M1572.4,664.6h-10.53V654.07h10.53Zm-9.53-1h8.53v-8.53h-8.53Z" transform="translate(-4.74 -20.17)"/>
  <path d="M285.27,308.66H274.75V298.13h10.52Zm-9.52-1h8.52v-8.53h-8.52Z" transform="translate(-4.74 -20.17)"/>
  <path d="M749.91,169.54H739.39V159h10.52Zm-9.52-1h8.52V160h-8.52Z" transform="translate(-4.74 -20.17)"/>
  <path d="M1404.84,260.89h-10.53V250.37h10.53Zm-9.53-1h8.53v-8.52h-8.53Z" transform="translate(-4.74 -20.17)"/>
  <path d="M1751.11,526.21h-10.53V515.68h10.53Zm-9.53-1h8.53v-8.53h-8.53Z" transform="translate(-4.74 -20.17)"/>
  <path d="M334.51,34.23H324V23.7h10.53Zm-9.53-1h8.53V24.7H325Z" transform="translate(-4.74 -20.17)"/>
  <path d="M252.21,914.06H241.68V903.53h10.53Zm-9.53-1h8.53v-8.53h-8.53Z" transform="translate(-4.74 -20.17)"/>
  <path d="M202.55,105.12H192V94.59h10.53Zm-9.53-1h8.53V95.59H193Z" transform="translate(-4.74 -20.17)"/>
  <path d="M75.37,202.31H64.84V191.78H75.37Zm-9.53-1h8.53v-8.53H65.84Z" transform="translate(-4.74 -20.17)"/>
  <path d="M768,596.83H757.52V586.3H768Zm-9.52-1H767V587.3h-8.52Z" transform="translate(-4.74 -20.17)"/>
  <path d="M1093.5,170.35H1083V159.82h10.53Zm-9.53-1h8.53v-8.53H1084Z" transform="translate(-4.74 -20.17)"/>
  <path d="M1163.44,379.9h-10.53V369.37h10.53Zm-9.53-1h8.53v-8.53h-8.53Z" transform="translate(-4.74 -20.17)"/>
  <path d="M1173.13,780.05H1162.6V769.52h10.53Zm-9.53-1h8.53v-8.53h-8.53Z" transform="translate(-4.74 -20.17)"/>
  <path d="M1541.2,982.52h-10.53V972h10.53Zm-9.53-1h8.53V973h-8.53Z" transform="translate(-4.74 -20.17)"/>
  <path d="M37.74,483.57H27.21V473H37.74Zm-9.53-1h8.53V474H28.21Z" transform="translate(-4.74 -20.17)"/>
  <path d="M860.45,104H849.92V93.47h10.53Zm-9.53-1h8.53V94.47h-8.53Z" transform="translate(-4.74 -20.17)"/>
  <path d="M491.63,798.18H481.1V787.66h10.53Zm-9.53-1h8.53v-8.52H482.1Z" transform="translate(-4.74 -20.17)"/>
  <path d="M1896.15,106.14h-10.53V95.61h10.53Zm-9.53-1h8.53V96.61h-8.53Z" transform="translate(-4.74 -20.17)"/>
  <path d="M1285.37,820.54h-10.53V810h10.53Zm-9.53-1h8.53V811h-8.53Z" transform="translate(-4.74 -20.17)"/>
  <path d="M1660.26,269.27h-10.53V258.74h10.53Zm-9.53-1h8.53v-8.53h-8.53Z" transform="translate(-4.74 -20.17)"/>
  <path d="M275.48,67.6H265V57.08h10.52Zm-9.52-1h8.52V58.08H266Z" transform="translate(-4.74 -20.17)"/>
  <path d="M745.92,1080.76H735.39v-10.53h10.53Zm-9.53-1h8.53v-8.53h-8.53Z" transform="translate(-4.74 -20.17)"/>
  <path d="M964.12,572.17H953.6V561.64h10.52Zm-9.52-1h8.52v-8.53H954.6Z" transform="translate(-4.74 -20.17)"/>
  <path d="M1778,182.61h-10.53V172.08H1778Zm-9.53-1H1777v-8.53h-8.53Z" transform="translate(-4.74 -20.17)"/>
  <path d="M1220.9,842.78h-10.53V832.25h10.53Zm-9.53-1h8.53v-8.53h-8.53Z" transform="translate(-4.74 -20.17)"/>
  <path d="M658.66,259.25H648.14V248.72h10.52Zm-9.52-1h8.52v-8.53h-8.52Z" transform="translate(-4.74 -20.17)"/>
  <path d="M1342.22,529.45H1331.7V518.92h10.52Zm-9.52-1h8.52v-8.53h-8.52Z" transform="translate(-4.74 -20.17)"/>
  <path d="M1826.93,476.9H1816.4V466.37h10.53Zm-9.53-1h8.53v-8.53h-8.53Z" transform="translate(-4.74 -20.17)"/>
  <path d="M1832.86,313.51h-10.52V303h10.52Zm-9.52-1h8.52V304h-8.52Z" transform="translate(-4.74 -20.17)"/>
  <path d="M1181.23,474.76H1170.7V464.23h10.53Zm-9.53-1h8.53v-8.53h-8.53Z" transform="translate(-4.74 -20.17)"/>
  <path d="M554.18,189.51H543.65V179h10.53Zm-9.53-1h8.53V180h-8.53Z" transform="translate(-4.74 -20.17)"/>
  <path d="M1832.09,936.54h-10.53V926h10.53Zm-9.53-1h8.53V927h-8.53Z" transform="translate(-4.74 -20.17)"/>
  <path d="M535,683.89H524.44V673.36H535Zm-9.53-1H534v-8.53h-8.53Z" transform="translate(-4.74 -20.17)"/>
  <path d="M1092.71,379h-10.53V368.5h10.53Zm-9.53-1h8.53V369.5h-8.53Z" transform="translate(-4.74 -20.17)"/>
  <path d="M1345,95.88h-10.52V85.35H1345Zm-9.52-1H1344V86.35h-8.52Z" transform="translate(-4.74 -20.17)"/>
  <path d="M1035.27,71.49h-10.53V61h10.53Zm-9.53-1h8.53V62h-8.53Z" transform="translate(-4.74 -20.17)"/>
  <path d="M489.52,60.86H479V50.33h10.53Zm-9.53-1h8.53V51.33H480Z" transform="translate(-4.74 -20.17)"/>
  <path d="M16.85,135.13H6.32V124.6H16.85Zm-9.53-1h8.53V125.6H7.32Z" transform="translate(-4.74 -20.17)"/>
  <path d="M1616.66,191.82h-10.53V181.29h10.53Zm-9.53-1h8.53v-8.53h-8.53Z" transform="translate(-4.74 -20.17)"/>
  <path d="M1075.08,500.35h-10.53V489.82h10.53Zm-9.53-1h8.53v-8.53h-8.53Z" transform="translate(-4.74 -20.17)"/>
  <path d="M1722,358.46h-10.52V347.93H1722Zm-9.52-1H1721v-8.53h-8.52Z" transform="translate(-4.74 -20.17)"/>
  <path d="M848.7,223.88H838.18V213.35H848.7Zm-9.52-1h8.52v-8.53h-8.52Z" transform="translate(-4.74 -20.17)"/>
  <path d="M911,435.69H900.49V425.16H911Zm-9.53-1H910v-8.53h-8.53Z" transform="translate(-4.74 -20.17)"/>
  <path d="M685.94,373.79H675.41V363.26h10.53Zm-9.53-1h8.53v-8.53h-8.53Z" transform="translate(-4.74 -20.17)"/>
  <path d="M1058.79,602.82h-10.53V592.29h10.53Zm-9.53-1h8.53v-8.53h-8.53Z" transform="translate(-4.74 -20.17)"/>
  <path d="M1544.07,213.3h-10.53V202.77h10.53Zm-9.53-1h8.53v-8.53h-8.53Z" transform="translate(-4.74 -20.17)"/>
  <path d="M448,406.53H437.43V396H448Zm-9.53-1H447V397h-8.53Z" transform="translate(-4.74 -20.17)"/>
  <path d="M894.17,38H883.64V27.44h10.53Zm-9.53-1h8.53V28.44h-8.53Z" transform="translate(-4.74 -20.17)"/>
  <path d="M237.79,1011.79H227.27v-10.53h10.52Zm-9.52-1h8.52v-8.53h-8.52Z" transform="translate(-4.74 -20.17)"/>
  <path d="M1723.93,185.16H1713.4V174.63h10.53Zm-9.53-1h8.53v-8.53h-8.53Z" transform="translate(-4.74 -20.17)"/>
  <path d="M1873.6,871.88h-10.52V861.35h10.52Zm-9.52-1h8.52v-8.53h-8.52Z" transform="translate(-4.74 -20.17)"/>
  <path d="M1440.94,438.56h-10.53V428h10.53Zm-9.53-1h8.53V429h-8.53Z" transform="translate(-4.74 -20.17)"/>
  <path d="M1158,109.08h-10.53V98.56H1158Zm-9.53-1H1157V99.56h-8.53Z" transform="translate(-4.74 -20.17)"/>
  <path d="M644.14,80.4H633.61V69.88h10.53Zm-9.53-1h8.53V70.88h-8.53Z" transform="translate(-4.74 -20.17)"/>
  <path d="M768.6,426H758.07V415.49H768.6Zm-9.53-1h8.53v-8.53h-8.53Z" transform="translate(-4.74 -20.17)"/>
  <path d="M479.51,111.86H469V101.33h10.53Zm-9.53-1h8.53v-8.53H470Z" transform="translate(-4.74 -20.17)"/>
  <path d="M947.56,243.43H937V232.9h10.52Zm-9.52-1h8.52V233.9H938Z" transform="translate(-4.74 -20.17)"/>
  <path d="M962.47,333.38H951.94V322.85h10.53Zm-9.53-1h8.53v-8.53h-8.53Z" transform="translate(-4.74 -20.17)"/>
  <path d="M368.25,521.11H357.73V510.58h10.52Zm-9.52-1h8.52v-8.53h-8.52Z" transform="translate(-4.74 -20.17)"/>
  <path d="M1426.8,204h-10.53V193.48h10.53Zm-9.53-1h8.53v-8.53h-8.53Z" transform="translate(-4.74 -20.17)"/>
  <path d="M1543.88,711.46h-10.53V700.93h10.53Zm-9.53-1h8.53v-8.53h-8.53Z" transform="translate(-4.74 -20.17)"/>
  <path d="M1352.94,299.7h-10.53V289.18h10.53Zm-9.53-1h8.53v-8.52h-8.53Z" transform="translate(-4.74 -20.17)"/>
  <path d="M1274.45,384.22h-10.53V373.69h10.53Zm-9.53-1h8.53v-8.53h-8.53Z" transform="translate(-4.74 -20.17)"/>
  <path d="M1582.05,472h-10.52V461.45h10.52Zm-9.52-1h8.52v-8.53h-8.52Z" transform="translate(-4.74 -20.17)"/>
  <path d="M32,848.5H21.48V838H32Zm-9.52-1H31V839H22.48Z" transform="translate(-4.74 -20.17)"/>
  <path d="M442.17,490.67H431.64V480.14h10.53Zm-9.53-1h8.53v-8.53h-8.53Z" transform="translate(-4.74 -20.17)"/>
  <path d="M43.9,269.4H33.37V258.88H43.9Zm-9.53-1H42.9v-8.52H34.37Z" transform="translate(-4.74 -20.17)"/>
  <path d="M578.38,487.2H567.86V476.67h10.52Zm-9.52-1h8.52v-8.53h-8.52Z" transform="translate(-4.74 -20.17)"/>
  <path d="M1746.36,1155.34h-10.53v-10.53h10.53Zm-9.53-1h8.53v-8.53h-8.53Z" transform="translate(-4.74 -20.17)"/>
  <path d="M77.76,385H67.23V374.49H77.76Zm-9.53-1h8.53v-8.53H68.23Z" transform="translate(-4.74 -20.17)"/>
  <path d="M1173.9,272.79h-10.53V262.26h10.53Zm-9.53-1h8.53v-8.53h-8.53Z" transform="translate(-4.74 -20.17)"/>
  <path d="M153.42,416.72H142.89V406.19h10.53Zm-9.53-1h8.53v-8.53h-8.53Z" transform="translate(-4.74 -20.17)"/>
  <path d="M1501.57,315.71H1491V305.18h10.53Zm-9.53-1h8.53v-8.53H1492Z" transform="translate(-4.74 -20.17)"/>
  <path d="M1523,798.09h-10.53V787.56H1523Zm-9.53-1H1522v-8.53h-8.53Z" transform="translate(-4.74 -20.17)"/>
  <path d="M990.86,635H980.33V624.47h10.53Zm-9.53-1h8.53v-8.53h-8.53Z" transform="translate(-4.74 -20.17)"/>
  <path d="M590,326.22H579.5V315.69H590Zm-9.53-1H589v-8.53H580.5Z" transform="translate(-4.74 -20.17)"/>
  <path d="M679.85,710.38H669.32V699.85h10.53Zm-9.53-1h8.53v-8.53h-8.53Z" transform="translate(-4.74 -20.17)"/>
  <path d="M1870.94,798.16h-10.53V787.63h10.53Zm-9.53-1h8.53v-8.53h-8.53Z" transform="translate(-4.74 -20.17)"/>
  <path d="M239.85,209H229.32V198.46h10.53Zm-9.53-1h8.53v-8.53h-8.53Z" transform="translate(-4.74 -20.17)"/>
  <path d="M1677.88,961.75h-10.53V951.22h10.53Zm-9.53-1h8.53v-8.53h-8.53Z" transform="translate(-4.74 -20.17)"/>
  <path d="M1632.72,474.13h-10.53V463.6h10.53Zm-9.53-1h8.53V464.6h-8.53Z" transform="translate(-4.74 -20.17)"/>
  <path d="M603.49,269.08H593V258.55h10.53Zm-9.53-1h8.53v-8.53H594Z" transform="translate(-4.74 -20.17)"/>
  <path d="M603.3,390.77H592.77V380.24H603.3Zm-9.53-1h8.53v-8.53h-8.53Z" transform="translate(-4.74 -20.17)"/>
  <path d="M728.51,528.54H718V518h10.53Zm-9.53-1h8.53V519H719Z" transform="translate(-4.74 -20.17)"/>
  <path d="M568.84,141.5H558.32V131h10.52Zm-9.52-1h8.52V132h-8.52Z" transform="translate(-4.74 -20.17)"/>
  <path d="M301.8,1029.46H291.27v-10.53H301.8Zm-9.53-1h8.53v-8.53h-8.53Z" transform="translate(-4.74 -20.17)"/>
  <path d="M539.39,418.28H528.86V407.75h10.53Zm-9.53-1h8.53v-8.53h-8.53Z" transform="translate(-4.74 -20.17)"/>
  <path d="M1675.67,407.59h-10.52V397.07h10.52Zm-9.52-1h8.52v-8.52h-8.52Z" transform="translate(-4.74 -20.17)"/>
  <path d="M251.08,599.44H240.55V588.91h10.53Zm-9.53-1h8.53v-8.53h-8.53Z" transform="translate(-4.74 -20.17)"/>
  <path d="M1235.11,55.38h-10.53V44.85h10.53Zm-9.53-1h8.53V45.85h-8.53Z" transform="translate(-4.74 -20.17)"/>
  <path d="M937.28,110.49H926.75V100h10.53Zm-9.53-1h8.53V101h-8.53Z" transform="translate(-4.74 -20.17)"/>
  <path d="M1757,688.58h-10.52V678.05H1757Zm-9.52-1H1756v-8.53h-8.52Z" transform="translate(-4.74 -20.17)"/>
  <path d="M1046.33,191.33H1035.8V180.8h10.53Zm-9.53-1h8.53V181.8h-8.53Z" transform="translate(-4.74 -20.17)"/>
  <path d="M1539.23,385.58H1528.7V375.05h10.53Zm-9.53-1h8.53v-8.53h-8.53Z" transform="translate(-4.74 -20.17)"/>
  <path d="M1059.75,294.19h-10.53V283.67h10.53Zm-9.53-1h8.53v-8.52h-8.53Z" transform="translate(-4.74 -20.17)"/>
  <path d="M1246.56,281.77H1236V271.24h10.53Zm-9.53-1h8.53v-8.53H1237Z" transform="translate(-4.74 -20.17)"/>
  <path d="M1197.44,175.44h-10.52V164.91h10.52Zm-9.52-1h8.52v-8.53h-8.52Z" transform="translate(-4.74 -20.17)"/>
  <path d="M784.45,327.74H773.92V317.21h10.53Zm-9.53-1h8.53v-8.53h-8.53Z" transform="translate(-4.74 -20.17)"/>
  <path d="M652.35,1016.63H641.82V1006.1h10.53Zm-9.53-1h8.53v-8.53h-8.53Z" transform="translate(-4.74 -20.17)"/>
  <path d="M497.29,281.3H486.76V270.77h10.53Zm-9.53-1h8.53v-8.53h-8.53Z" transform="translate(-4.74 -20.17)"/>
  <path d="M132.34,132.6H121.81V122.07h10.53Zm-9.53-1h8.53v-8.53h-8.53Z" transform="translate(-4.74 -20.17)"/>
  <path d="M1833.49,99.4H1823V88.87h10.53Zm-9.53-1h8.53V89.87H1824Z" transform="translate(-4.74 -20.17)"/>
  <path d="M1770.62,276.09h-10.53V265.56h10.53Zm-9.53-1h8.53v-8.53h-8.53Z" transform="translate(-4.74 -20.17)"/>
  <path d="M1129.3,487.31h-10.53V476.78h10.53Zm-9.53-1h8.53v-8.53h-8.53Z" transform="translate(-4.74 -20.17)"/>
  <path d="M181.78,200.4H171.25V189.87h10.53Zm-9.53-1h8.53v-8.53h-8.53Z" transform="translate(-4.74 -20.17)"/>
  <path d="M1565.18,606.22h-10.53V595.69h10.53Zm-9.53-1h8.53v-8.53h-8.53Z" transform="translate(-4.74 -20.17)"/>
  <path d="M719.86,646H709.33V635.48h10.53Zm-9.53-1h8.53v-8.53h-8.53Z" transform="translate(-4.74 -20.17)"/>
  <path d="M139.88,520H129.35V509.48h10.53Zm-9.53-1h8.53v-8.53h-8.53Z" transform="translate(-4.74 -20.17)"/>
  <path d="M1864.85,732h-10.53V721.51h10.53Zm-9.53-1h8.53v-8.53h-8.53Z" transform="translate(-4.74 -20.17)"/>
  <path d="M772.39,35.92H761.87V25.4h10.52Zm-9.52-1h8.52V26.4h-8.52Z" transform="translate(-4.74 -20.17)"/>
  <path d="M1433.9,387.36h-10.52V376.83h10.52Zm-9.52-1h8.52v-8.53h-8.52Z" transform="translate(-4.74 -20.17)"/>
  <path d="M131.66,883.23H121.13V872.7h10.53Zm-9.53-1h8.53V873.7h-8.53Z" transform="translate(-4.74 -20.17)"/>
  <path d="M522.83,507.65H512.3V497.12h10.53Zm-9.53-1h8.53v-8.53H513.3Z" transform="translate(-4.74 -20.17)"/>
  <path d="M1071.75,116.44h-10.53V105.91h10.53Zm-9.53-1h8.53v-8.53h-8.53Z" transform="translate(-4.74 -20.17)"/>
  <path d="M1648.12,569h-10.53V558.44h10.53Zm-9.53-1h8.53v-8.53h-8.53Z" transform="translate(-4.74 -20.17)"/>
  <path d="M406.07,727.88H395.54V717.35h10.53Zm-9.53-1h8.53v-8.53h-8.53Z" transform="translate(-4.74 -20.17)"/>
  <path d="M78.71,147.87H68.18V137.34H78.71Zm-9.53-1h8.53v-8.53H69.18Z" transform="translate(-4.74 -20.17)"/>
  <path d="M1701.58,522.4h-10.53V511.88h10.53Zm-9.53-1h8.53v-8.52h-8.53Z" transform="translate(-4.74 -20.17)"/>
  <path d="M370.69,311.19H360.16V300.66h10.53Zm-9.53-1h8.53v-8.53h-8.53Z" transform="translate(-4.74 -20.17)"/>
  <path d="M1445.4,526.36h-10.53V515.83h10.53Zm-9.53-1h8.53v-8.53h-8.53Z" transform="translate(-4.74 -20.17)"/>
  <path d="M252.42,715H241.9V704.48h10.52Zm-9.52-1h8.52v-8.52H242.9Z" transform="translate(-4.74 -20.17)"/>
  <path d="M1834.29,363.48h-10.53V353h10.53Zm-9.53-1h8.53V354h-8.53Z" transform="translate(-4.74 -20.17)"/>
  <path d="M92.61,329.51H82.09V319H92.61Zm-9.52-1h8.52V320H83.09Z" transform="translate(-4.74 -20.17)"/>
  <path d="M705.93,433.75H695.4V423.22h10.53Zm-9.53-1h8.53v-8.53H696.4Z" transform="translate(-4.74 -20.17)"/>
  <path d="M1308.23,296.61H1297.7V286.09h10.53Zm-9.53-1h8.53v-8.52h-8.53Z" transform="translate(-4.74 -20.17)"/>
  <path d="M1521.32,173.57h-10.53V163h10.53Zm-9.53-1h8.53V164h-8.53Z" transform="translate(-4.74 -20.17)"/>
  <path d="M605.36,1167.9H594.83v-10.53h10.53Zm-9.53-1h8.53v-8.53h-8.53Z" transform="translate(-4.74 -20.17)"/>
  <path d="M1493,105h-10.53V94.51H1493Zm-9.53-1H1492V95.51h-8.53Z" transform="translate(-4.74 -20.17)"/>
  <path d="M1029.39,545.54h-10.53V535h10.53Zm-9.53-1h8.53V536h-8.53Z" transform="translate(-4.74 -20.17)"/>
  <path d="M1070.38,434.07h-10.53V423.55h10.53Zm-9.53-1h8.53v-8.52h-8.53Z" transform="translate(-4.74 -20.17)"/>
  <path d="M733.21,331.7H722.68V321.17h10.53Zm-9.53-1h8.53v-8.53h-8.53Z" transform="translate(-4.74 -20.17)"/>
  <path d="M1519.49,254.07H1509V243.54h10.53Zm-9.53-1h8.53v-8.53H1510Z" transform="translate(-4.74 -20.17)"/>
  <path d="M1753.34,86.58h-10.52V76.06h10.52Zm-9.52-1h8.52V77.06h-8.52Z" transform="translate(-4.74 -20.17)"/>
  <path d="M1183.19,326.61h-10.53V316.09h10.53Zm-9.53-1h8.53v-8.52h-8.53Z" transform="translate(-4.74 -20.17)"/>
  <path d="M1816.41,1028.08h-10.52v-10.53h10.52Zm-9.52-1h8.52v-8.53h-8.52Z" transform="translate(-4.74 -20.17)"/>
  <path d="M1485.45,415.18h-10.53V404.66h10.53Zm-9.53-1h8.53v-8.52h-8.53Z" transform="translate(-4.74 -20.17)"/>
  <path d="M1293.7,497.5h-10.53V487h10.53Zm-9.53-1h8.53V488h-8.53Z" transform="translate(-4.74 -20.17)"/>
  <path d="M326.22,340.87H315.7V330.34h10.52Zm-9.52-1h8.52v-8.53H316.7Z" transform="translate(-4.74 -20.17)"/>
  <path d="M439,145.31H428.49V134.78H439Zm-9.53-1H438v-8.53h-8.53Z" transform="translate(-4.74 -20.17)"/>
  <path d="M232.86,317H222.33V306.45h10.53Zm-9.53-1h8.53v-8.53h-8.53Z" transform="translate(-4.74 -20.17)"/>
  <path d="M1868.74,78.57h-10.53V68h10.53Zm-9.53-1h8.53V69h-8.53Z" transform="translate(-4.74 -20.17)"/>
  <path d="M1560.21,92.31h-10.53V81.78h10.53Zm-9.53-1h8.53V82.78h-8.53Z" transform="translate(-4.74 -20.17)"/>
  <path d="M1019.42,731h-10.53V720.43h10.53Zm-9.53-1h8.53v-8.53h-8.53Z" transform="translate(-4.74 -20.17)"/>
  <path d="M281.07,246.12H270.55V235.59h10.52Zm-9.52-1h8.52v-8.53h-8.52Z" transform="translate(-4.74 -20.17)"/>
  <path d="M1730.89,132.74h-10.53V122.21h10.53Zm-9.53-1h8.53v-8.53h-8.53Z" transform="translate(-4.74 -20.17)"/>
  <path d="M855.54,164.18H845V153.65h10.53Zm-9.53-1h8.53v-8.53H846Z" transform="translate(-4.74 -20.17)"/>
  <path d="M473.11,581.45H462.58V570.92h10.53Zm-9.53-1h8.53v-8.53h-8.53Z" transform="translate(-4.74 -20.17)"/>
  <path d="M1763.23,231.72H1752.7V221.19h10.53Zm-9.53-1h8.53v-8.53h-8.53Z" transform="translate(-4.74 -20.17)"/>
  <path d="M758.49,223.32H748V212.79h10.53Zm-9.53-1h8.53v-8.53H749Z" transform="translate(-4.74 -20.17)"/>
  <path d="M379.73,109.53H369.2V99h10.53Zm-9.53-1h8.53V100H370.2Z" transform="translate(-4.74 -20.17)"/>
  <path d="M1813.21,975.38h-10.53V964.85h10.53Zm-9.53-1h8.53v-8.53h-8.53Z" transform="translate(-4.74 -20.17)"/>
  <path d="M801.85,68.09H791.32V57.56h10.53Zm-9.53-1h8.53V58.56h-8.53Z" transform="translate(-4.74 -20.17)"/>
  <path d="M1255,173.57h-10.53V163H1255Zm-9.53-1H1254V164h-8.53Z" transform="translate(-4.74 -20.17)"/>
  <path d="M95.11,39H84.58V28.51H95.11Zm-9.53-1h8.53V29.51H85.58Z" transform="translate(-4.74 -20.17)"/>
  <path d="M1169.12,1221h-10.53v-10.53h10.53Zm-9.53-1h8.53v-8.53h-8.53Z" transform="translate(-4.74 -20.17)"/>
  <path d="M1265.36,108.59h-10.53V98.06h10.53Zm-9.53-1h8.53V99.06h-8.53Z" transform="translate(-4.74 -20.17)"/>
  <path d="M432.57,1130.67H422v-10.53h10.53Zm-9.53-1h8.53v-8.53H423Z" transform="translate(-4.74 -20.17)"/>
  <path d="M1401,109.49h-10.53V99H1401Zm-9.53-1H1400V100h-8.53Z" transform="translate(-4.74 -20.17)"/>
  <path d="M1205.42,376.39h-10.53V365.87h10.53Zm-9.53-1h8.53v-8.52h-8.53Z" transform="translate(-4.74 -20.17)"/>
  <path d="M1533.22,754.3h-10.53V743.77h10.53Zm-9.53-1h8.53v-8.53h-8.53Z" transform="translate(-4.74 -20.17)"/>
  <path d="M321.91,609.45H311.38V598.92h10.53Zm-9.53-1h8.53v-8.53h-8.53Z" transform="translate(-4.74 -20.17)"/>
  <path d="M1659.43,56.61H1648.9V46.08h10.53Zm-9.53-1h8.53V47.08h-8.53Z" transform="translate(-4.74 -20.17)"/>
  <path d="M1474.47,38.94H1464V28.41h10.52Zm-9.52-1h8.52V29.41H1465Z" transform="translate(-4.74 -20.17)"/>
  <path d="M367.76,198.25H357.23V187.73h10.53Zm-9.53-1h8.53v-8.52h-8.53Z" transform="translate(-4.74 -20.17)"/>
  <path d="M1867.82,343.27H1857.3V332.74h10.52Zm-9.52-1h8.52v-8.53h-8.52Z" transform="translate(-4.74 -20.17)"/>
  <path d="M497.33,233.67H486.8V223.15h10.53Zm-9.53-1h8.53v-8.52H487.8Z" transform="translate(-4.74 -20.17)"/>
  <path d="M1678.53,218.4H1668V207.87h10.53Zm-9.53-1h8.53v-8.53H1669Z" transform="translate(-4.74 -20.17)"/>
  <path d="M789.46,142.5H778.94V132h10.52Zm-9.52-1h8.52V133h-8.52Z" transform="translate(-4.74 -20.17)"/>
  <path d="M423.31,301.3H412.78V290.77h10.53Zm-9.53-1h8.53v-8.53h-8.53Z" transform="translate(-4.74 -20.17)"/>
  <path d="M1199.06,227.71h-10.52V217.18h10.52Zm-9.52-1h8.52v-8.53h-8.52Z" transform="translate(-4.74 -20.17)"/>
  <path d="M398.87,958.14H388.34V947.62h10.53Zm-9.53-1h8.53v-8.52h-8.53Z" transform="translate(-4.74 -20.17)"/>
  <path d="M494.8,375.48H484.27V365H494.8Zm-9.53-1h8.53V366h-8.53Z" transform="translate(-4.74 -20.17)"/>
  <path d="M421.56,447H411V436.5h10.53ZM412,446h8.53V437.5H412Z" transform="translate(-4.74 -20.17)"/>
  <path d="M1614.05,346.46h-10.53V335.93h10.53Zm-9.53-1h8.53v-8.53h-8.53Z" transform="translate(-4.74 -20.17)"/>
  <path d="M77.06,721.76H66.53V711.23H77.06Zm-9.53-1h8.53v-8.53H67.53Z" transform="translate(-4.74 -20.17)"/>
  <path d="M1722.37,292.28h-10.53V281.76h10.53Zm-9.53-1h8.53v-8.52h-8.53Z" transform="translate(-4.74 -20.17)"/>
  <path d="M1337.49,476.17H1327V465.64h10.53Zm-9.53-1h8.53v-8.53H1328Z" transform="translate(-4.74 -20.17)"/>
  <path d="M1487.23,211.94H1476.7V201.42h10.53Zm-9.53-1h8.53v-8.52h-8.53Z" transform="translate(-4.74 -20.17)"/>
  <path d="M1427,1011.05h-10.52v-10.53H1427Zm-9.52-1H1426v-8.53h-8.52Z" transform="translate(-4.74 -20.17)"/>
  <path d="M263,1049H252.49v-10.53H263Zm-9.53-1H262v-8.53h-8.53Z" transform="translate(-4.74 -20.17)"/>
  <path d="M413.77,33.37H403.25V22.84h10.52Zm-9.52-1h8.52V23.84h-8.52Z" transform="translate(-4.74 -20.17)"/>
  <path d="M600,96.17H589.46V85.64H600Zm-9.53-1H599V86.64h-8.53Z" transform="translate(-4.74 -20.17)"/>
  <path d="M318.12,508.63H307.59V498.11h10.53Zm-9.53-1h8.53v-8.52h-8.53Z" transform="translate(-4.74 -20.17)"/>
  <path d="M1184.57,521.39H1174V510.86h10.53Zm-9.53-1h8.53v-8.53H1175Z" transform="translate(-4.74 -20.17)"/>
  <path d="M1833.4,187.32h-10.53V176.79h10.53Zm-9.53-1h8.53v-8.53h-8.53Z" transform="translate(-4.74 -20.17)"/>
  <path d="M1414.18,688.79h-10.53V678.26h10.53Zm-9.53-1h8.53v-8.53h-8.53Z" transform="translate(-4.74 -20.17)"/>
  <path d="M725.7,74.23H715.17V63.7H725.7Zm-9.53-1h8.53V64.7h-8.53Z" transform="translate(-4.74 -20.17)"/>
  <path d="M1373.17,210.89h-10.53V200.36h10.53Zm-9.53-1h8.53v-8.53h-8.53Z" transform="translate(-4.74 -20.17)"/>
  <path d="M784.43,704.78H773.9V694.25h10.53Zm-9.53-1h8.53v-8.53H774.9Z" transform="translate(-4.74 -20.17)"/>
  <path d="M422.49,220.35H412V209.82h10.53Zm-9.53-1h8.53v-8.53H413Z" transform="translate(-4.74 -20.17)"/>
  <path d="M1605.05,958.23h-10.53V947.7h10.53Zm-9.53-1h8.53V948.7h-8.53Z" transform="translate(-4.74 -20.17)"/>
  <path d="M94.32,423.92H83.79V413.4H94.32Zm-9.53-1h8.53V414.4H84.79Z" transform="translate(-4.74 -20.17)"/>
  <path d="M269.58,507.14H259.06V496.61h10.52Zm-9.52-1h8.52v-8.53h-8.52Z" transform="translate(-4.74 -20.17)"/>
  <path d="M1211.23,605.9h-10.52V595.37h10.52Zm-9.52-1h8.52v-8.53h-8.52Z" transform="translate(-4.74 -20.17)"/>
  <path d="M545.63,290.55H535.1V280h10.53Zm-9.53-1h8.53V281H536.1Z" transform="translate(-4.74 -20.17)"/>
  <path d="M16.42,83.59H5.89V73.06H16.42Zm-9.53-1h8.53V74.06H6.89Z" transform="translate(-4.74 -20.17)"/>
  <path d="M1873,1025.3h-10.53v-10.53H1873Zm-9.53-1H1872v-8.53h-8.53Z" transform="translate(-4.74 -20.17)"/>
  <path d="M1117.32,581.21h-10.53V570.68h10.53Zm-9.53-1h8.53v-8.53h-8.53Z" transform="translate(-4.74 -20.17)"/>
  <path d="M1572.13,838.91H1561.6V828.38h10.53Zm-9.53-1h8.53v-8.53h-8.53Z" transform="translate(-4.74 -20.17)"/>
  <path d="M1545.84,929.5h-10.53V919h10.53Zm-9.53-1h8.53V920h-8.53Z" transform="translate(-4.74 -20.17)"/>
  <path d="M643.49,33.28H633V22.75h10.53Zm-9.53-1h8.53V23.75H634Z" transform="translate(-4.74 -20.17)"/>
  <path d="M543,463H532.49V452.45H543Zm-9.53-1H542v-8.53h-8.53Z" transform="translate(-4.74 -20.17)"/>
  <path d="M1140.44,30.7h-10.53V20.17h10.53Zm-9.53-1h8.53V21.17h-8.53Z" transform="translate(-4.74 -20.17)"/>
  <path d="M395.24,253.05H384.71V242.52h10.53Zm-9.53-1h8.53v-8.53h-8.53Z" transform="translate(-4.74 -20.17)"/>
  <path d="M320.44,1292.17H309.91v-10.53h10.53Zm-9.53-1h8.53v-8.53h-8.53Z" transform="translate(-4.74 -20.17)"/>
  <path d="M390.24,906H379.71V895.44h10.53Zm-9.53-1h8.53v-8.53h-8.53Z" transform="translate(-4.74 -20.17)"/>
  <path d="M973.4,383.24H962.87V372.71H973.4Zm-9.53-1h8.53v-8.53h-8.53Z" transform="translate(-4.74 -20.17)"/>
  <path d="M1218,1137.23h-10.53v-10.52H1218Zm-9.53-1H1217v-8.52h-8.53Z" transform="translate(-4.74 -20.17)"/>
  <path d="M1872.31,580.75h-10.53V570.22h10.53Zm-9.53-1h8.53v-8.53h-8.53Z" transform="translate(-4.74 -20.17)"/>
  <path d="M1506.66,494.71h-10.53V484.18h10.53Zm-9.53-1h8.53v-8.53h-8.53Z" transform="translate(-4.74 -20.17)"/>
  <path d="M929,551.51H918.46V541H929Zm-9.52-1H928V542h-8.52Z" transform="translate(-4.74 -20.17)"/>
  <path d="M944.09,666.82H933.56V656.29h10.53Zm-9.53-1h8.53v-8.53h-8.53Z" transform="translate(-4.74 -20.17)"/>
  <path d="M1321.77,384.78h-10.53V374.25h10.53Zm-9.53-1h8.53v-8.53h-8.53Z" transform="translate(-4.74 -20.17)"/>
  <path d="M367.65,861.54H357.12V851h10.53Zm-9.53-1h8.53V852h-8.53Z" transform="translate(-4.74 -20.17)"/>
  <path d="M1638.66,146.82h-10.53V136.29h10.53Zm-9.53-1h8.53v-8.53h-8.53Z" transform="translate(-4.74 -20.17)"/>
  <path d="M608.35,855.55H597.82V845h10.53Zm-9.53-1h8.53V846h-8.53Z" transform="translate(-4.74 -20.17)"/>
  <path d="M948.47,191.94H937.94V181.41h10.53Zm-9.53-1h8.53v-8.53h-8.53Z" transform="translate(-4.74 -20.17)"/>
  <path d="M547.83,647.62H537.31V637.09h10.52Zm-9.52-1h8.52v-8.53h-8.52Z" transform="translate(-4.74 -20.17)"/>
  <path d="M106.66,238.64H96.13V228.12h10.53Zm-9.53-1h8.53v-8.52H97.13Z" transform="translate(-4.74 -20.17)"/>
  <path d="M765,555.46H754.42V544.93H765Zm-9.53-1H764v-8.53h-8.53Z" transform="translate(-4.74 -20.17)"/>
  <path d="M1848.38,241h-10.53V230.45h10.53Zm-9.53-1h8.53v-8.53h-8.53Z" transform="translate(-4.74 -20.17)"/>
  <path d="M672.49,160.24H662V149.72h10.53Zm-9.53-1h8.53v-8.52H663Z" transform="translate(-4.74 -20.17)"/>
  <path d="M424.45,1336.94H413.92v-10.53h10.53Zm-9.53-1h8.53v-8.53h-8.53Z" transform="translate(-4.74 -20.17)"/>
  <path d="M711.32,155.53H700.79V145h10.53Zm-9.53-1h8.53V146h-8.53Z" transform="translate(-4.74 -20.17)"/>
  <path d="M270.46,112.8H259.93V102.27h10.53Zm-9.53-1h8.53v-8.53h-8.53Z" transform="translate(-4.74 -20.17)"/>
  <path d="M477.22,522.27H466.69V511.74h10.53Zm-9.53-1h8.53v-8.53h-8.53Z" transform="translate(-4.74 -20.17)"/>
  <path d="M1295.34,243.94h-10.53V233.41h10.53Zm-9.53-1h8.53v-8.53h-8.53Z" transform="translate(-4.74 -20.17)"/>
  <path d="M640.16,367.09H629.63V356.56h10.53Zm-9.53-1h8.53v-8.53h-8.53Z" transform="translate(-4.74 -20.17)"/>
  <path d="M159.54,558.62H149V548.09h10.53Zm-9.53-1h8.53v-8.53H150Z" transform="translate(-4.74 -20.17)"/>
  <path d="M1157.36,157.81h-10.52V147.28h10.52Zm-9.52-1h8.52v-8.53h-8.52Z" transform="translate(-4.74 -20.17)"/>
  <path d="M906.33,309.32H895.8V298.79h10.53Zm-9.53-1h8.53v-8.53H896.8Z" transform="translate(-4.74 -20.17)"/>
  <path d="M554.64,561.17H544.11V550.64h10.53Zm-9.53-1h8.53v-8.53h-8.53Z" transform="translate(-4.74 -20.17)"/>
  <path d="M1348.27,145.09h-10.53V134.56h10.53Zm-9.53-1h8.53v-8.53h-8.53Z" transform="translate(-4.74 -20.17)"/>
  <path d="M1319.12,636.73h-10.53V626.2h10.53Zm-9.53-1h8.53V627.2h-8.53Z" transform="translate(-4.74 -20.17)"/>
  <path d="M1886.55,1092H1876v-10.53h10.52Zm-9.52-1h8.52v-8.53H1877Z" transform="translate(-4.74 -20.17)"/>
  <path d="M997.15,38.91H986.62V28.38h10.53Zm-9.53-1h8.53V29.38h-8.53Z" transform="translate(-4.74 -20.17)"/>
  <path d="M1728,479.34H1717.5V468.81H1728Zm-9.53-1H1727v-8.53h-8.53Z" transform="translate(-4.74 -20.17)"/>
  <path d="M275.38,164.71H264.85V154.18h10.53Zm-9.53-1h8.53v-8.53h-8.53Z" transform="translate(-4.74 -20.17)"/>
  <path d="M155.86,753.21H145.33V742.68h10.53Zm-9.53-1h8.53v-8.53h-8.53Z" transform="translate(-4.74 -20.17)"/>
  <path d="M1617.11,303.08h-10.53V292.55h10.53Zm-9.53-1h8.53v-8.53h-8.53Z" transform="translate(-4.74 -20.17)"/>
  <path d="M362.87,154.33H352.34V143.8h10.53Zm-9.53-1h8.53V144.8h-8.53Z" transform="translate(-4.74 -20.17)"/>
  <path d="M943.17,285.65H932.64V275.13h10.53Zm-9.53-1h8.53v-8.52h-8.53Z" transform="translate(-4.74 -20.17)"/>
  <path d="M521.31,81.9H510.79V71.37h10.52Zm-9.52-1h8.52V72.37h-8.52Z" transform="translate(-4.74 -20.17)"/>
  <path d="M1891.61,222.36h-10.53V211.83h10.53Zm-9.53-1h8.53v-8.53h-8.53Z" transform="translate(-4.74 -20.17)"/>
  <path d="M1571.31,360.57h-10.52V350h10.52Zm-9.52-1h8.52V351h-8.52Z" transform="translate(-4.74 -20.17)"/>
  <path d="M1514.76,668.45h-10.52V657.92h10.52Zm-9.52-1h8.52v-8.53h-8.52Z" transform="translate(-4.74 -20.17)"/>
  <path d="M1678.74,1098.39h-10.53v-10.53h10.53Zm-9.53-1h8.53v-8.53h-8.53Z" transform="translate(-4.74 -20.17)"/>
  <path d="M1604.75,800.62h-10.52V790.09h10.52Zm-9.52-1h8.52v-8.53h-8.52Z" transform="translate(-4.74 -20.17)"/>
  <path d="M1079.44,43.36h-10.53V32.84h10.53Zm-9.53-1h8.53V33.84h-8.53Z" transform="translate(-4.74 -20.17)"/>
  <path d="M850.73,293.61H840.2V283.08h10.53Zm-9.53-1h8.53v-8.53H841.2Z" transform="translate(-4.74 -20.17)"/>
  <path d="M1901.83,712.68H1891.3V702.15h10.53Zm-9.53-1h8.53v-8.53h-8.53Z" transform="translate(-4.74 -20.17)"/>
  <path d="M710.59,487.63H700.06V477.1h10.53Zm-9.53-1h8.53V478.1h-8.53Z" transform="translate(-4.74 -20.17)"/>
  <path d="M682.44,44.55H671.92V34h10.52Zm-9.52-1h8.52V35h-8.52Z" transform="translate(-4.74 -20.17)"/>
  <path d="M1902.73,412.93H1892.2V402.4h10.53Zm-9.53-1h8.53V403.4h-8.53Z" transform="translate(-4.74 -20.17)"/>
  <path d="M16.12,949.24H5.59V938.71H16.12Zm-9.53-1h8.53v-8.53H6.59Z" transform="translate(-4.74 -20.17)"/>
  <path d="M1765.37,474.68h-10.53V464.16h10.53Zm-9.53-1h8.53v-8.52h-8.53Z" transform="translate(-4.74 -20.17)"/>
  <path d="M140.47,835.47H130V824.94h10.52Zm-9.52-1h8.52v-8.53H131Z" transform="translate(-4.74 -20.17)"/>
  <path d="M1255.64,533.54h-10.53V523h10.53Zm-9.53-1h8.53V524h-8.53Z" transform="translate(-4.74 -20.17)"/>
  <path d="M1112.49,260.22H1102V249.7h10.53Zm-9.53-1h8.53V250.7H1103Z" transform="translate(-4.74 -20.17)"/>
  <path d="M839.16,58.5H828.63V48h10.53Zm-9.53-1h8.53V49h-8.53Z" transform="translate(-4.74 -20.17)"/>
  <path d="M1410.28,803.83h-10.53V793.3h10.53Zm-9.53-1h8.53V794.3h-8.53Z" transform="translate(-4.74 -20.17)"/>
  <path d="M339.89,223.12H329.36V212.59h10.53Zm-9.53-1h8.53v-8.53h-8.53Z" transform="translate(-4.74 -20.17)"/>
  <path d="M1603.33,502.82H1592.8V492.3h10.53Zm-9.53-1h8.53V493.3h-8.53Z" transform="translate(-4.74 -20.17)"/>
  <path d="M1042.65,327.76h-10.53V317.24h10.53Zm-9.53-1h8.53v-8.52h-8.53Z" transform="translate(-4.74 -20.17)"/>
  <path d="M915.77,78.65H905.24V68.12h10.53Zm-9.53-1h8.53V69.12h-8.53Z" transform="translate(-4.74 -20.17)"/>
  <path d="M112,87.47H101.43V76.94H112Zm-9.53-1H111V77.94h-8.53Z" transform="translate(-4.74 -20.17)"/>
  <path d="M182.92,587.68H172.39V577.15h10.53Zm-9.53-1h8.53v-8.53h-8.53Z" transform="translate(-4.74 -20.17)"/>
  <path d="M1654,440.58h-10.53V430.05H1654Zm-9.53-1H1653v-8.53h-8.53Z" transform="translate(-4.74 -20.17)"/>
  <path d="M723.76,241.43H713.24V230.9h10.52Zm-9.52-1h8.52V231.9h-8.52Z" transform="translate(-4.74 -20.17)"/>
  <path d="M50.9,450.6H40.37V440.07H50.9Zm-9.53-1H49.9v-8.53H41.37Z" transform="translate(-4.74 -20.17)"/>
  <path d="M179.15,160.33H168.62V149.81h10.53Zm-9.53-1h8.53v-8.52h-8.53Z" transform="translate(-4.74 -20.17)"/>
  <path d="M567.47,225.32H556.94V214.79h10.53Zm-9.53-1h8.53v-8.53h-8.53Z" transform="translate(-4.74 -20.17)"/>
  <path d="M1102.63,695.51H1092.1V685h10.53Zm-9.53-1h8.53V686h-8.53Z" transform="translate(-4.74 -20.17)"/>
  <path d="M1685.31,364.8h-10.53V354.27h10.53Zm-9.53-1h8.53v-8.53h-8.53Z" transform="translate(-4.74 -20.17)"/>
  <path d="M1010.05,773.9H999.52V763.37h10.53Zm-9.53-1h8.53v-8.53h-8.53Z" transform="translate(-4.74 -20.17)"/>
  <path d="M658.36,196.16H647.83V185.63h10.53Zm-9.53-1h8.53v-8.53h-8.53Z" transform="translate(-4.74 -20.17)"/>
  <path d="M1400.54,49.78H1390V39.25h10.53Zm-9.53-1h8.53V40.25H1391Z" transform="translate(-4.74 -20.17)"/>
  <path d="M1775.3,49.71h-10.53V39.18h10.53Zm-9.53-1h8.53V40.18h-8.53Z" transform="translate(-4.74 -20.17)"/>
  <path d="M1807.55,641.42H1797V630.89h10.53Zm-9.53-1h8.53v-8.53H1798Z" transform="translate(-4.74 -20.17)"/>
  <path d="M299,32H288.51V21.47H299Zm-9.53-1H298V22.47h-8.53Z" transform="translate(-4.74 -20.17)"/>
  <path d="M1868.86,490.81h-10.53V480.28h10.53Zm-9.53-1h8.53v-8.53h-8.53Z" transform="translate(-4.74 -20.17)"/>
  <path d="M1024.29,233.86h-10.52V223.33h10.52Zm-9.52-1h8.52v-8.53h-8.52Z" transform="translate(-4.74 -20.17)"/>
  <path d="M782.39,375.19H771.86V364.66h10.53Zm-9.53-1h8.53v-8.53h-8.53Z" transform="translate(-4.74 -20.17)"/>
  <path d="M1010.64,162.64h-10.53V152.11h10.53Zm-9.53-1h8.53v-8.53h-8.53Z" transform="translate(-4.74 -20.17)"/>
  <path d="M371.89,40.91H361.36V30.38h10.53Zm-9.53-1h8.53V31.38h-8.53Z" transform="translate(-4.74 -20.17)"/>
  <path d="M1069.25,757.91h-10.53V747.38h10.53Zm-9.53-1h8.53v-8.53h-8.53Z" transform="translate(-4.74 -20.17)"/>
  <path d="M1317.22,1191.37h-10.53v-10.52h10.53Zm-9.53-1h8.53v-8.52h-8.53Z" transform="translate(-4.74 -20.17)"/>
  <path d="M816.68,110.77H806.15V100.24h10.53Zm-9.53-1h8.53v-8.53h-8.53Z" transform="translate(-4.74 -20.17)"/>
  <path d="M599,527.82H588.46V517.29H599Zm-9.52-1H598v-8.53h-8.52Z" transform="translate(-4.74 -20.17)"/>
  <path d="M57.15,565H46.62V554.5H57.15Zm-9.53-1h8.53V555.5H47.62Z" transform="translate(-4.74 -20.17)"/>
  <path d="M1861,142.27h-10.52V131.75H1861Zm-9.52-1H1860v-8.52h-8.52Z" transform="translate(-4.74 -20.17)"/>
  <path d="M1325.17,34.55h-10.53V24h10.53Zm-9.53-1h8.53V25h-8.53Z" transform="translate(-4.74 -20.17)"/>
  <path d="M940.32,945.25H929.8V934.72h10.52Zm-9.52-1h8.52v-8.53H930.8Z" transform="translate(-4.74 -20.17)"/>
  <path d="M1603.67,128h-10.53V117.47h10.53Zm-9.53-1h8.53v-8.53h-8.53Z" transform="translate(-4.74 -20.17)"/>
  <path d="M17.38,49H6.85V38.47H17.38ZM7.85,48h8.53V39.47H7.85Z" transform="translate(-4.74 -20.17)"/>
  <path d="M1822.29,720h-10.53V709.44h10.53Zm-9.53-1h8.53v-8.53h-8.53Z" transform="translate(-4.74 -20.17)"/>
  <path d="M1800.07,85.85h-10.53V75.32h10.53Zm-9.53-1h8.53V76.32h-8.53Z" transform="translate(-4.74 -20.17)"/>
  <path d="M812.57,245.86H802V235.33h10.53Zm-9.53-1h8.53v-8.53H803Z" transform="translate(-4.74 -20.17)"/>
  <path d="M687.34,1008.06H676.82V997.53h10.52Zm-9.52-1h8.52v-8.53h-8.52Z" transform="translate(-4.74 -20.17)"/>
  <path d="M451.83,41H441.3V30.43h10.53Zm-9.53-1h8.53V31.43H442.3Z" transform="translate(-4.74 -20.17)"/>
  <path d="M524.41,1214.12H513.88v-10.53h10.53Zm-9.53-1h8.53v-8.53h-8.53Z" transform="translate(-4.74 -20.17)"/>
  <path d="M1043.09,506.57h-10.53V496h10.53Zm-9.53-1h8.53V497h-8.53Z" transform="translate(-4.74 -20.17)"/>
  <path d="M519.74,122.78H509.21V112.25h10.53Zm-9.53-1h8.53v-8.53h-8.53Z" transform="translate(-4.74 -20.17)"/>
  <path d="M432.54,183.57H422V173h10.53Zm-9.53-1h8.53V174H423Z" transform="translate(-4.74 -20.17)"/>
  <path d="M895.23,395.71H884.7V385.19h10.53Zm-9.53-1h8.53v-8.52H885.7Z" transform="translate(-4.74 -20.17)"/>
  <path d="M1445.34,567.44h-10.53V556.91h10.53Zm-9.53-1h8.53v-8.53h-8.53Z" transform="translate(-4.74 -20.17)"/>
  <path d="M1753.08,887.53h-10.53V877h10.53Zm-9.53-1h8.53V878h-8.53Z" transform="translate(-4.74 -20.17)"/>
  <path d="M417.58,399.81H407.05V389.28h10.53Zm-9.53-1h8.53v-8.53h-8.53Z" transform="translate(-4.74 -20.17)"/>
  <path d="M1091.86,343.38h-10.53V332.85h10.53Zm-9.53-1h8.53v-8.53h-8.53Z" transform="translate(-4.74 -20.17)"/>
  <path d="M697.74,320.94H687.21V310.41h10.53Zm-9.53-1h8.53v-8.53h-8.53Z" transform="translate(-4.74 -20.17)"/>
  <path d="M945.77,442.14H935.24V431.61h10.53Zm-9.53-1h8.53v-8.53h-8.53Z" transform="translate(-4.74 -20.17)"/>
  <path d="M1050.32,402.77h-10.53V392.24h10.53Zm-9.53-1h8.53v-8.53h-8.53Z" transform="translate(-4.74 -20.17)"/>
  <path d="M244.61,468.11H234.08V457.58h10.53Zm-9.53-1h8.53v-8.53h-8.53Z" transform="translate(-4.74 -20.17)"/>
  <path d="M1031.71,1179.1h-10.52v-10.53h10.52Zm-9.52-1h8.52v-8.53h-8.52Z" transform="translate(-4.74 -20.17)"/>
  <path d="M347.3,365.78H336.77V355.25H347.3Zm-9.53-1h8.53v-8.53h-8.53Z" transform="translate(-4.74 -20.17)"/>
  <path d="M1315.43,114.83H1304.9V104.3h10.53Zm-9.53-1h8.53V105.3h-8.53Z" transform="translate(-4.74 -20.17)"/>
  <path d="M1605.65,62.67h-10.53V52.14h10.53Zm-9.53-1h8.53V53.14h-8.53Z" transform="translate(-4.74 -20.17)"/>
  <path d="M456.46,86.46H445.93V75.93h10.53Zm-9.53-1h8.53V76.93h-8.53Z" transform="translate(-4.74 -20.17)"/>
  <path d="M978.12,94.64H967.59V84.11h10.53Zm-9.53-1h8.53V85.11h-8.53Z" transform="translate(-4.74 -20.17)"/>
  <path d="M1548.67,498.93h-10.53V488.4h10.53Zm-9.53-1h8.53V489.4h-8.53Z" transform="translate(-4.74 -20.17)"/>
  <path d="M464.91,849.93H454.38V839.4h10.53Zm-9.53-1h8.53V840.4h-8.53Z" transform="translate(-4.74 -20.17)"/>
  <path d="M1525.27,346.19h-10.52V335.66h10.52Zm-9.52-1h8.52v-8.53h-8.52Z" transform="translate(-4.74 -20.17)"/>
  <path d="M451.81,674.63H441.29V664.1h10.52Zm-9.52-1h8.52V665.1h-8.52Z" transform="translate(-4.74 -20.17)"/>
  <path d="M1227.16,645.07h-10.53V634.55h10.53Zm-9.53-1h8.53v-8.52h-8.53Z" transform="translate(-4.74 -20.17)"/>
  <path d="M364.64,417.48H354.11V407h10.53Zm-9.53-1h8.53V408h-8.53Z" transform="translate(-4.74 -20.17)"/>
  <path d="M49.9,180H39.37V169.42H49.9Zm-9.53-1H48.9v-8.53H40.37Z" transform="translate(-4.74 -20.17)"/>
  <path d="M692.29,280H681.77V269.43h10.52Zm-9.52-1h8.52v-8.53h-8.52Z" transform="translate(-4.74 -20.17)"/>
  <path d="M528.83,170.26H518.31V159.73h10.52Zm-9.52-1h8.52v-8.53h-8.52Z" transform="translate(-4.74 -20.17)"/>
  <path d="M1470.3,476.68h-10.52V466.15h10.52Zm-9.52-1h8.52v-8.53h-8.52Z" transform="translate(-4.74 -20.17)"/>
  <path d="M674.48,1092.74H664v-10.53h10.53Zm-9.53-1h8.53v-8.53H665Z" transform="translate(-4.74 -20.17)"/>
  <path d="M208.32,485.75H197.79V475.23h10.53Zm-9.53-1h8.53v-8.52h-8.53Z" transform="translate(-4.74 -20.17)"/>
  <path d="M1775.68,401h-10.53V390.43h10.53Zm-9.53-1h8.53v-8.53h-8.53Z" transform="translate(-4.74 -20.17)"/>
  <path d="M1826.74,268.18h-10.53V257.65h10.53Zm-9.53-1h8.53v-8.53h-8.53Z" transform="translate(-4.74 -20.17)"/>
  <path d="M1051.2,147.52h-10.52V137h10.52Zm-9.52-1h8.52V138h-8.52Z" transform="translate(-4.74 -20.17)"/>
  <path d="M819.48,350.8H809V340.27h10.53Zm-9.53-1h8.53v-8.53H810Z" transform="translate(-4.74 -20.17)"/>
  <path d="M766.46,281.3H755.94V270.77h10.52Zm-9.52-1h8.52v-8.53h-8.52Z" transform="translate(-4.74 -20.17)"/>
  <path d="M1854.61,413.73h-10.53V403.2h10.53Zm-9.53-1h8.53V404.2h-8.53Z" transform="translate(-4.74 -20.17)"/>
  <path d="M1182.72,79.21H1172.2V68.68h10.52Zm-9.52-1h8.52V69.68h-8.52Z" transform="translate(-4.74 -20.17)"/>
  <path d="M737,441.35H726.48V430.83H737Zm-9.53-1H736v-8.52h-8.53Z" transform="translate(-4.74 -20.17)"/>
  <path d="M111.37,724.73H100.84V714.2h10.53Zm-9.53-1h8.53V715.2h-8.53Z" transform="translate(-4.74 -20.17)"/>
  <path d="M1353,1077h-10.52v-10.53H1353Zm-9.52-1H1352v-8.53h-8.52Z" transform="translate(-4.74 -20.17)"/>
  <path d="M15.27,171.26H4.74V160.73H15.27Zm-9.53-1h8.53v-8.53H5.74Z" transform="translate(-4.74 -20.17)"/>
  <path d="M1724.12,1128.7h-10.53v-10.53h10.53Zm-9.53-1h8.53v-8.53h-8.53Z" transform="translate(-4.74 -20.17)"/>
  <path d="M431.44,598.76H420.92V588.23h10.52Zm-9.52-1h8.52v-8.53h-8.52Z" transform="translate(-4.74 -20.17)"/>
  <path d="M232.51,69.89H222V59.36h10.53Zm-9.53-1h8.53V60.36H223Z" transform="translate(-4.74 -20.17)"/>
  <path d="M918.06,473H907.53V462.46h10.53Zm-9.53-1h8.53v-8.53h-8.53Z" transform="translate(-4.74 -20.17)"/>
  <path d="M1642.51,221.43H1632V210.91h10.53Zm-9.53-1h8.53v-8.52H1633Z" transform="translate(-4.74 -20.17)"/>
  <path d="M1242.87,134.6h-10.53V124.08h10.53Zm-9.53-1h8.53v-8.52h-8.53Z" transform="translate(-4.74 -20.17)"/>
  <path d="M614.48,51.4H604V40.87h10.52Zm-9.52-1h8.52V41.87H605Z" transform="translate(-4.74 -20.17)"/>
  <path d="M514,1519.5H503.46V1509H514Zm-9.53-1H513V1510h-8.53Z" transform="translate(-4.74 -20.17)"/>
  <path d="M339.34,181.06H328.81V170.53h10.53Zm-9.53-1h8.53v-8.53h-8.53Z" transform="translate(-4.74 -20.17)"/>
  <path d="M732.47,119.24H721.94V108.71h10.53Zm-9.53-1h8.53v-8.53h-8.53Z" transform="translate(-4.74 -20.17)"/>
  <path d="M1626.77,902.85h-10.53V892.32h10.53Zm-9.53-1h8.53v-8.53h-8.53Z" transform="translate(-4.74 -20.17)"/>
  <path d="M554.8,49.26H544.27V38.73H554.8Zm-9.53-1h8.53V39.73h-8.53Z" transform="translate(-4.74 -20.17)"/>
  <path d="M1156.69,345.58h-10.53V335.05h10.53Zm-9.53-1h8.53v-8.53h-8.53Z" transform="translate(-4.74 -20.17)"/>
  <path d="M1147.21,70.89h-10.52V60.36h10.52Zm-9.52-1h8.52V61.36h-8.52Z" transform="translate(-4.74 -20.17)"/>
  <path d="M1915.08,149h-10.53V138.47h10.53Zm-9.53-1h8.53v-8.53h-8.53Z" transform="translate(-4.74 -20.17)"/>
  <path d="M577.89,298H567.36V287.42h10.53Zm-9.53-1h8.53v-8.53h-8.53Z" transform="translate(-4.74 -20.17)"/>
  <path d="M1917,262.73h-10.52V252.2H1917Zm-9.52-1H1916V253.2h-8.52Z" transform="translate(-4.74 -20.17)"/>
  <path d="M1660.07,772.26h-10.53V761.74h10.53Zm-9.53-1h8.53v-8.52h-8.53Z" transform="translate(-4.74 -20.17)"/>
  <path d="M359.46,615.06H348.93V604.53h10.53Zm-9.53-1h8.53v-8.53h-8.53Z" transform="translate(-4.74 -20.17)"/>
  <path d="M793.84,623.05H783.32V612.53h10.52Zm-9.52-1h8.52v-8.52h-8.52Z" transform="translate(-4.74 -20.17)"/>
  <path d="M867.16,481.87H856.63V471.34h10.53Zm-9.53-1h8.53v-8.53h-8.53Z" transform="translate(-4.74 -20.17)"/>
  <path d="M816.29,317.81H805.76V307.28h10.53Zm-9.53-1h8.53v-8.53h-8.53Z" transform="translate(-4.74 -20.17)"/>
  <path d="M599.06,1004.22H588.53V993.69h10.53Zm-9.53-1h8.53v-8.53h-8.53Z" transform="translate(-4.74 -20.17)"/>
  <path d="M1473.07,298.75h-10.53V288.23h10.53Zm-9.53-1h8.53v-8.52h-8.53Z" transform="translate(-4.74 -20.17)"/>
  <path d="M21.79,512.09H11.26V501.56H21.79Zm-9.53-1h8.53v-8.53H12.26Z" transform="translate(-4.74 -20.17)"/>
  <path d="M953.85,520.59H943.32V510.06h10.53Zm-9.53-1h8.53v-8.53h-8.53Z" transform="translate(-4.74 -20.17)"/>
  <path d="M19.76,244.77H9.23V234.24H19.76Zm-9.53-1h8.53v-8.53H10.23Z" transform="translate(-4.74 -20.17)"/>
  <path d="M33.64,741.11H23.11V730.58H33.64Zm-9.53-1h8.53v-8.53H24.11Z" transform="translate(-4.74 -20.17)"/>
  <path d="M43,113.46H32.49V102.93H43Zm-9.52-1H42v-8.53H33.49Z" transform="translate(-4.74 -20.17)"/>
  <path d="M262.41,878.14H251.88V867.61h10.53Zm-9.53-1h8.53v-8.53h-8.53Z" transform="translate(-4.74 -20.17)"/>
  <path d="M1874.08,1365.8h-10.52v-10.52h10.52Zm-9.52-1h8.52v-8.52h-8.52Z" transform="translate(-4.74 -20.17)"/>
  <path d="M1458.65,188.33h-10.53V177.8h10.53Zm-9.53-1h8.53V178.8h-8.53Z" transform="translate(-4.74 -20.17)"/>
  <path d="M896.57,126.5H886V116h10.53Zm-9.53-1h8.53V117H887Z" transform="translate(-4.74 -20.17)"/>
  <path d="M583.19,175.57H572.66V165h10.53Zm-9.53-1h8.53V166h-8.53Z" transform="translate(-4.74 -20.17)"/>
  <path d="M1918.3,380.26h-10.53V369.73h10.53Zm-9.53-1h8.53v-8.53h-8.53Z" transform="translate(-4.74 -20.17)"/>
  <path d="M215.85,983.36H205.32V972.83h10.53Zm-9.53-1h8.53v-8.53h-8.53Z" transform="translate(-4.74 -20.17)"/>
  <path d="M814.34,436.87H803.81V426.34h10.53Zm-9.53-1h8.53v-8.53h-8.53Z" transform="translate(-4.74 -20.17)"/>
  <path d="M1565.07,189.1h-10.53V178.57h10.53Zm-9.53-1h8.53v-8.53h-8.53Z" transform="translate(-4.74 -20.17)"/>
  <path d="M1873.45,308.31h-10.53V297.78h10.53Zm-9.53-1h8.53v-8.53h-8.53Z" transform="translate(-4.74 -20.17)"/>
  <path d="M391,775.28H380.49V764.76H391Zm-9.53-1H390v-8.52h-8.53Z" transform="translate(-4.74 -20.17)"/>
  <path d="M670.67,229.67H660.14V219.14h10.53Zm-9.53-1h8.53v-8.53h-8.53Z" transform="translate(-4.74 -20.17)"/>
  <path d="M1194.39,959.59h-10.53V949.07h10.53Zm-9.53-1h8.53v-8.52h-8.53Z" transform="translate(-4.74 -20.17)"/>
  <path d="M1501.26,998.3h-10.53V987.77h10.53Zm-9.53-1h8.53v-8.53h-8.53Z" transform="translate(-4.74 -20.17)"/>
  <path d="M1739.9,43.05h-10.53V32.52h10.53Zm-9.53-1h8.53V33.52h-8.53Z" transform="translate(-4.74 -20.17)"/>
  <path d="M127.12,447.86H116.59V437.33h10.53Zm-9.53-1h8.53v-8.53h-8.53Z" transform="translate(-4.74 -20.17)"/>
  <path d="M399.7,505H389.17V494.52H399.7Zm-9.53-1h8.53v-8.52h-8.53Z" transform="translate(-4.74 -20.17)"/>
  <path d="M1436,126.29h-10.53V115.76H1436Zm-9.53-1H1435v-8.53h-8.53Z" transform="translate(-4.74 -20.17)"/>
  <path d="M1451,345.31h-10.53V334.78H1451Zm-9.53-1H1450v-8.53h-8.53Z" transform="translate(-4.74 -20.17)"/>
  <path d="M1634,840.68h-10.53V830.16H1634Zm-9.53-1H1633v-8.52h-8.53Z" transform="translate(-4.74 -20.17)"/>
  <path d="M99.22,124H88.69V113.48H99.22Zm-9.53-1h8.53v-8.53H89.69Z" transform="translate(-4.74 -20.17)"/>
  <path d="M1801,355h-10.53V344.43H1801Zm-9.53-1H1800v-8.53h-8.53Z" transform="translate(-4.74 -20.17)"/>
  <path d="M1271.92,589.94H1261.4V579.41h10.52Zm-9.52-1h8.52v-8.53h-8.52Z" transform="translate(-4.74 -20.17)"/>
  <path d="M554.94,529.36H544.41V518.84h10.53Zm-9.53-1h8.53v-8.52h-8.53Z" transform="translate(-4.74 -20.17)"/>
  <path d="M1532.89,110.11h-10.53V99.58h10.53Zm-9.53-1h8.53v-8.53h-8.53Z" transform="translate(-4.74 -20.17)"/>
  <path d="M1133.74,323.87h-10.53V313.34h10.53Zm-9.53-1h8.53v-8.53h-8.53Z" transform="translate(-4.74 -20.17)"/>
  <path d="M1215.46,1022.55h-10.53V1012h10.53Zm-9.53-1h8.53V1013h-8.53Z" transform="translate(-4.74 -20.17)"/>
  <path d="M637.73,289.88H627.2V279.35h10.53Zm-9.53-1h8.53v-8.53H628.2Z" transform="translate(-4.74 -20.17)"/>
  <path d="M914.85,685.69H904.33V675.16h10.52Zm-9.52-1h8.52v-8.53h-8.52Z" transform="translate(-4.74 -20.17)"/>
  <path d="M1217,523.67h-10.53V513.14H1217Zm-9.53-1H1216v-8.53h-8.53Z" transform="translate(-4.74 -20.17)"/>
  <path d="M1645.77,637.25h-10.52V626.72h10.52Zm-9.52-1h8.52v-8.53h-8.52Z" transform="translate(-4.74 -20.17)"/>
  <path d="M1917.86,476h-10.53V465.49h10.53Zm-9.53-1h8.53v-8.53h-8.53Z" transform="translate(-4.74 -20.17)"/>
  <path d="M1028.58,462.34h-10.53V451.81h10.53Zm-9.53-1h8.53v-8.53h-8.53Z" transform="translate(-4.74 -20.17)"/>
  <path d="M1494.09,157.54h-10.53V147h10.53Zm-9.53-1h8.53V148h-8.53Z" transform="translate(-4.74 -20.17)"/>
  <path d="M1419.79,163h-10.52V152.49h10.52Zm-9.52-1h8.52v-8.53h-8.52Z" transform="translate(-4.74 -20.17)"/>
  <path d="M1418.12,358.2H1407.6V347.67h10.52Zm-9.52-1h8.52v-8.53h-8.52Z" transform="translate(-4.74 -20.17)"/>
  <path d="M1551.17,246.4h-10.53V235.87h10.53Zm-9.53-1h8.53v-8.53h-8.53Z" transform="translate(-4.74 -20.17)"/>
  <path d="M1156.43,235.5H1145.9V225h10.53Zm-9.53-1h8.53V226h-8.53Z" transform="translate(-4.74 -20.17)"/>
  <path d="M1897.25,353.5h-10.53V343h10.53Zm-9.53-1h8.53V344h-8.53Z" transform="translate(-4.74 -20.17)"/>
  <path d="M877.76,989.93H867.23V979.41h10.53Zm-9.53-1h8.53v-8.52h-8.53Z" transform="translate(-4.74 -20.17)"/>
  <path d="M1184.83,140.27H1174.3V129.74h10.53Zm-9.53-1h8.53v-8.53h-8.53Z" transform="translate(-4.74 -20.17)"/>
  <path d="M1241.12,367.55h-10.53V357h10.53Zm-9.53-1h8.53V358h-8.53Z" transform="translate(-4.74 -20.17)"/>
  <path d="M1710.42,440.06H1699.9V429.53h10.52Zm-9.52-1h8.52v-8.53h-8.52Z" transform="translate(-4.74 -20.17)"/>
  <path d="M1243.7,732.22h-10.53V721.69h10.53Zm-9.53-1h8.53v-8.53h-8.53Z" transform="translate(-4.74 -20.17)"/>
  <path d="M818.63,159H808.1V148.43h10.53Zm-9.53-1h8.53v-8.53H809.1Z" transform="translate(-4.74 -20.17)"/>
  <path d="M1488.74,1298.82h-10.53v-10.53h10.53Zm-9.53-1h8.53v-8.53h-8.53Z" transform="translate(-4.74 -20.17)"/>
  <path d="M1250.61,802.75h-10.53V792.22h10.53Zm-9.53-1h8.53v-8.53h-8.53Z" transform="translate(-4.74 -20.17)"/>
  <path d="M1457.92,95.09h-10.53V84.56h10.53Zm-9.53-1h8.53V85.56h-8.53Z" transform="translate(-4.74 -20.17)"/>
  <path d="M255.94,268.1H245.41V257.57h10.53Zm-9.53-1h8.53v-8.53h-8.53Z" transform="translate(-4.74 -20.17)"/>
  <path d="M461.05,360.16H450.52V349.63h10.53Zm-9.53-1h8.53v-8.53h-8.53Z" transform="translate(-4.74 -20.17)"/>
  <path d="M1831.88,518.9h-10.52V508.37h10.52Zm-9.52-1h8.52v-8.53h-8.52Z" transform="translate(-4.74 -20.17)"/>
  <path d="M265.28,343.41H254.75V332.88h10.53Zm-9.53-1h8.53v-8.53h-8.53Z" transform="translate(-4.74 -20.17)"/>
  <path d="M1284.81,186.44h-10.53V175.92h10.53Zm-9.53-1h8.53v-8.52h-8.53Z" transform="translate(-4.74 -20.17)"/>
  <path d="M115.66,158.81H105.13V148.28h10.53Zm-9.53-1h8.53v-8.53h-8.53Z" transform="translate(-4.74 -20.17)"/>
  <path d="M522.67,388.2H512.14V377.67h10.53Zm-9.53-1h8.53v-8.53h-8.53Z" transform="translate(-4.74 -20.17)"/>
  <path d="M289.67,413.77H279.14V403.24h10.53Zm-9.53-1h8.53v-8.53h-8.53Z" transform="translate(-4.74 -20.17)"/>
  <path d="M53.6,227.32H43.07V216.8H53.6Zm-9.53-1H52.6V217.8H44.07Z" transform="translate(-4.74 -20.17)"/>
  <path d="M415.66,117.92H405.13V107.39h10.53Zm-9.53-1h8.53v-8.53h-8.53Z" transform="translate(-4.74 -20.17)"/>
  <path d="M1357,331.63h-10.53V321.1H1357Zm-9.53-1H1356V322.1h-8.53Z" transform="translate(-4.74 -20.17)"/>
  <path d="M242.75,40.59H232.23V30.06h10.52Zm-9.52-1h8.52V31.06h-8.52Z" transform="translate(-4.74 -20.17)"/>
  <path d="M700.15,672.09H689.62V661.56h10.53Zm-9.53-1h8.53v-8.53h-8.53Z" transform="translate(-4.74 -20.17)"/>
  <path d="M345.8,491.13H335.27V480.61H345.8Zm-9.53-1h8.53v-8.52h-8.53Z" transform="translate(-4.74 -20.17)"/>
  <path d="M492.69,144.37H482.16V133.84h10.53Zm-9.53-1h8.53v-8.53h-8.53Z" transform="translate(-4.74 -20.17)"/>
  <path d="M1818,430h-10.53V419.46H1818Zm-9.53-1H1817v-8.52h-8.53Z" transform="translate(-4.74 -20.17)"/>
  <path d="M174.89,69.15H164.36V58.62h10.53Zm-9.53-1h8.53V59.62h-8.53Z" transform="translate(-4.74 -20.17)"/>
  <path d="M1141.84,274.53h-10.53V264h10.53Zm-9.53-1h8.53V265h-8.53Z" transform="translate(-4.74 -20.17)"/>
  <path d="M1027,101.69H1016.5V91.16H1027Zm-9.53-1H1026V92.16h-8.53Z" transform="translate(-4.74 -20.17)"/>
  <path d="M1311.2,463.82h-10.53V453.29h10.53Zm-9.53-1h8.53v-8.53h-8.53Z" transform="translate(-4.74 -20.17)"/>
  <path d="M1232.05,213.5h-10.53V203h10.53Zm-9.53-1h8.53V204h-8.53Z" transform="translate(-4.74 -20.17)"/>
  <path d="M844.33,129.3H833.81V118.77h10.52Zm-9.52-1h8.52v-8.53h-8.52Z" transform="translate(-4.74 -20.17)"/>
  <path d="M880.23,69.19H869.7V58.66h10.53Zm-9.53-1h8.53V59.66H870.7Z" transform="translate(-4.74 -20.17)"/>
  <path d="M397.65,553.51H387.12V543h10.53Zm-9.53-1h8.53V544h-8.53Z" transform="translate(-4.74 -20.17)"/>
  <path d="M1581.68,574.22h-10.53V563.69h10.53Zm-9.53-1h8.53v-8.53h-8.53Z" transform="translate(-4.74 -20.17)"/>
  <path d="M1325.75,553.79h-10.53V543.26h10.53Zm-9.53-1h8.53v-8.53h-8.53Z" transform="translate(-4.74 -20.17)"/>
  <path d="M1375.17,76.16h-10.52V65.63h10.52Zm-9.52-1h8.52V66.63h-8.52Z" transform="translate(-4.74 -20.17)"/>
  <path d="M542.06,324.48H531.53V314h10.53Zm-9.53-1h8.53V315h-8.53Z" transform="translate(-4.74 -20.17)"/>
  <path d="M1226.11,170h-10.53V159.46h10.53Zm-9.53-1h8.53v-8.53h-8.53Z" transform="translate(-4.74 -20.17)"/>
  <path d="M287.61,578H277.08V567.43h10.53Zm-9.53-1h8.53v-8.53h-8.53Z" transform="translate(-4.74 -20.17)"/>
  <path d="M186.44,267.82H175.91V257.3h10.53Zm-9.53-1h8.53V258.3h-8.53Z" transform="translate(-4.74 -20.17)"/>
  <path d="M509,311H498.45V300.49H509Zm-9.52-1H508v-8.52h-8.52Z" transform="translate(-4.74 -20.17)"/>
  <path d="M1005.66,380.52H995.13V370h10.53Zm-9.53-1h8.53V371h-8.53Z" transform="translate(-4.74 -20.17)"/>
  <path d="M1335.63,666.58H1325.1V656.05h10.53Zm-9.53-1h8.53v-8.53h-8.53Z" transform="translate(-4.74 -20.17)"/>
  <path d="M299.74,542.37H289.21V531.84h10.53Zm-9.53-1h8.53v-8.53h-8.53Z" transform="translate(-4.74 -20.17)"/>
  <path d="M71.36,478.36H60.83V467.83H71.36Zm-9.53-1h8.53v-8.53H61.83Z" transform="translate(-4.74 -20.17)"/>
  <path d="M1607.42,730.82h-10.53V720.29h10.53Zm-9.53-1h8.53v-8.53h-8.53Z" transform="translate(-4.74 -20.17)"/>
  <path d="M314.68,371.18H304.15V360.65h10.53Zm-9.53-1h8.53v-8.53h-8.53Z" transform="translate(-4.74 -20.17)"/>
  <path d="M369.42,77.05H358.9V66.52h10.52Zm-9.52-1h8.52V67.52H359.9Z" transform="translate(-4.74 -20.17)"/>
  <path d="M229.55,131.6H219V121.07h10.53Zm-9.53-1h8.53v-8.53H220Z" transform="translate(-4.74 -20.17)"/>
  <path d="M1777.41,550.7h-10.53V540.17h10.53Zm-9.53-1h8.53v-8.53h-8.53Z" transform="translate(-4.74 -20.17)"/>
  <path d="M362.89,740H352.36V729.51h10.53Zm-9.53-1h8.53v-8.53h-8.53Z" transform="translate(-4.74 -20.17)"/>
  <path d="M326.15,294.76H315.62V284.23h10.53Zm-9.53-1h8.53v-8.53h-8.53Z" transform="translate(-4.74 -20.17)"/>
  <path d="M1380.54,789.51H1370V779h10.53Zm-9.53-1h8.53V780H1371Z" transform="translate(-4.74 -20.17)"/>
  <path d="M765.57,924H755V913.44h10.53ZM756,923h8.53v-8.53H756Z" transform="translate(-4.74 -20.17)"/>
  <path d="M1045.46,1055.26h-10.53v-10.53h10.53Zm-9.53-1h8.53v-8.53h-8.53Z" transform="translate(-4.74 -20.17)"/>
  <path d="M1745.61,311.64h-10.53V301.11h10.53Zm-9.53-1h8.53v-8.53h-8.53Z" transform="translate(-4.74 -20.17)"/>
  <path d="M678,343.62H667.42V333.09H678Zm-9.53-1H677v-8.53h-8.53Z" transform="translate(-4.74 -20.17)"/>
  <path d="M685.88,404.85H675.35V394.32h10.53Zm-9.53-1h8.53v-8.53h-8.53Z" transform="translate(-4.74 -20.17)"/>
  <path d="M1381.34,138.31h-10.52V127.78h10.52Zm-9.52-1h8.52v-8.53h-8.52Z" transform="translate(-4.74 -20.17)"/>
  <path d="M43.64,149.31H33.11V138.78H43.64Zm-9.53-1h8.53v-8.53H34.11Z" transform="translate(-4.74 -20.17)"/>
  <path d="M516,351.8H505.45V341.27H516Zm-9.53-1H515v-8.53h-8.53Z" transform="translate(-4.74 -20.17)"/>
  <path d="M1649,304.78H1638.5V294.25H1649Zm-9.53-1H1648v-8.53h-8.53Z" transform="translate(-4.74 -20.17)"/>
  <path d="M1744.58,263.36h-10.53V252.83h10.53Zm-9.53-1h8.53v-8.53h-8.53Z" transform="translate(-4.74 -20.17)"/>
  <path d="M1217.83,458.54H1207.3V448h10.53Zm-9.53-1h8.53V449h-8.53Z" transform="translate(-4.74 -20.17)"/>
  <path d="M921.73,583H911.2V572.45h10.53Zm-9.53-1h8.53v-8.53H912.2Z" transform="translate(-4.74 -20.17)"/>
  <path d="M828.25,193.27H817.72V182.74h10.53Zm-9.53-1h8.53v-8.53h-8.53Z" transform="translate(-4.74 -20.17)"/>
</svg>
