<svg xmlns="http://www.w3.org/2000/svg" viewBox="0 0 1920.08 644.65">
  <title>shelvesJB</title>
  <path d="M0,74.78c20-.13,40,.25,60-2.39s40-8.32,60-16,40-17.27,60-23.13,40-7.94,60-8.83,40-.56,60-.44,40,0,60,0q12,0,24,0h36q30,0,60,0c20,0,40-.08,60-.32s40-.67,60-1.1,40-.88,60-.94,40,.28,60,1.8a474,474,0,0,1,48,6.05q6,1.07,12,2.31c20,4.15,40,9.75,60,15.82s40,12.63,60,14.13,40-2,60-7.92c10-2.94,20-6.47,30-9.73s20-6.24,30-8.74,20-4.52,30-6.19,20-3,30-4,20-1.77,30-2.31,20-.87,30-1.08q6-.12,12-.19,9-.1,18-.12,15-.06,30,0h360c20,0,40,.06,60,1.3a471.18,471.18,0,0,1,60,7.54c10,1.93,20,4.21,30,6.74s20,5.28,30,8.22,20,6.05,30,9.13,20,6.13,30,8.73a351.42,351.42,0,0,0,60,10.19c20,1.61,40,1.47,60,1.52" transform="translate(0.05 -13.91)" fill="none" stroke="#000" stroke-miterlimit="10" stroke-width="15"/>
  <path d="M0,116.45c20-.12,40,.24,60-2.21s40-7.71,60-14.79,40-16,60-21.43,40-7.36,60-8.18,40-.53,60-.42,40,0,60,0l24,0q18,0,36,.09,30,.17,60,.59c20,.27,40,.57,60,.32s40-1.07,60-1.93,40-1.78,60-2,40,.21,60,2.63a415.33,415.33,0,0,1,48,9c4,1,8,2,12,3,20,5.25,40,11.32,60,16.43s40,9.25,60,9.08,40-4.65,60-10.9c10-3.13,20-6.7,30-10s20-6.25,30-8.75,20-4.52,30-6.19,20-3,30-4,20-1.77,30-2.31,20-.87,30-1.08q6-.12,12-.19,9-.11,18-.12c10,0,20,0,30,0q30,0,60,.06t60,.3q30,.26,60,.74c20,.34,40,.76,60,1.08s40,.52,60,.61q18,.08,36,.07h24c20,0,40,.05,60,1.82a391,391,0,0,1,60,10.28c10,2.49,20,5.35,30,8.23s20,5.76,30,8.48,20,5.28,30,7.62,20,4.46,30,6.15a433.36,433.36,0,0,0,60,5.7c20,.58,40,0,60,.06" transform="translate(0.05 -13.91)" fill="none" stroke="#000" stroke-miterlimit="10" stroke-width="14"/>
  <path d="M0,158.13c20-.11,40,.21,60-2s40-7.1,60-13.62,40-14.74,60-19.74,40-6.77,60-7.53,40-.48,60-.38,40,0,60,0q12,0,24,0,18,0,36,.18c20,.2,40,.64,60,1.19s40,1.22,60,1,40-1.47,60-2.76,40-2.68,60-3.09,40,.13,60,3.46c16,2.66,32,7.11,48,12q6,1.85,12,3.76c20,6.33,40,12.89,60,17s40,5.87,60,4,40-7.26,60-13.88c10-3.3,20-6.91,30-10.2s20-6.26,30-8.76,20-4.53,30-6.2,20-3,30-4,20-1.78,30-2.32,20-.87,30-1.07q6-.12,12-.19,9-.11,18-.13,15,0,30,0,30,0,60,.12t60,.6q30,.48,60,1.48c20,.67,40,1.54,60,2.17s40,1,60,1.22q18,.17,36,.15h24c20,0,40,0,60,2.33a338.13,338.13,0,0,1,60,13c10,3,20,6.5,30,9.72s20,6.23,30,8.74,20,4.51,30,6.11,20,2.78,30,3.58c20,1.6,40,1.65,60,1.2s40-1.41,60-1.4" transform="translate(0.05 -13.91)" fill="none" stroke="#000" stroke-miterlimit="10" stroke-width="13"/>
  <path d="M0,198.77c20-.1,40,.21,60-1.93s40-6.72,60-12.9,40-14,60-18.69,40-6.42,60-7.14,40-.46,60-.36,40,.08,60,.05c8,0,16,0,24,0,12,.06,24,.22,36,.64q30,1.08,60,4.26c20,2.09,40,4.83,60,6s40,.88,60,.14,40-1.91,60-2.27,40,.07,60,2.62c16,2,32,5.42,48,9.12l12,2.82c20,4.74,40,9.57,60,12.33s40,3.47,60,.93,40-8.36,60-15.16c10-3.39,20-7,30-10.35s20-6.28,30-8.77,20-4.49,30-6.14,20-2.93,30-3.94,20-1.73,30-2.25,20-.86,30-1q6-.12,12-.19,9-.11,18-.12,15-.06,30,0c20,0,40,.07,60,.36s40,.84,60,1.92,40,2.68,60,5,40,5.32,60,7.53,40,3.61,60,4.26c12,.39,24,.51,36,.54,8,0,16,0,24,0,20,0,40,0,60,1.77a440.31,440.31,0,0,1,60,9.87c10,2.31,20,4.89,30,7.28s20,4.58,30,6.34,20,3.08,30,4,20,1.44,30,1.38c20-.12,40-2.57,60-5.45s40-6.18,60-6.13" transform="translate(0.05 -13.91)" fill="none" stroke="#000" stroke-miterlimit="10" stroke-width="12"/>
  <path d="M0,239.42c20-.1,40,.19,60-1.83a334.43,334.43,0,0,0,60-12.18c20-5.83,40-13.18,60-17.65s40-6,60-6.73,40-.45,60-.34,40,.11,60,.09c8,0,16,0,24,.05,12,.1,24,.38,36,1.11a507.45,507.45,0,0,1,60,7.33c20,3.63,40,8.42,60,11.1s40,3.23,60,3,40-1.14,60-1.45a583.68,583.68,0,0,1,60,1.78c16,1.41,32,3.74,48,6.22l12,1.88c20,3.15,40,6.24,60,7.63s40,1.08,60-2.17,40-9.45,60-16.42c10-3.49,20-7.18,30-10.51s20-6.29,30-8.77,20-4.46,30-6.09,20-2.88,30-3.87,20-1.68,30-2.19,20-.83,30-1q6-.1,12-.18,9-.09,18-.11,15-.06,30,0c20,0,40,.12,60,.62s40,1.41,60,3.23a583.51,583.51,0,0,1,60,8.49c20,3.95,40,9.12,60,12.9a460,460,0,0,0,60,7.31c12,.67,24,.88,36,.93,8,0,16,0,24,0,20,0,40,0,60,1.22s40,3.63,60,6.73c10,1.55,20,3.28,30,4.84s20,2.93,30,3.94,20,1.63,30,1.87a259.11,259.11,0,0,0,30-.8c20-1.84,40-6.8,60-12.1s40-11,60-10.87" transform="translate(0.05 -13.91)" fill="none" stroke="#000" stroke-miterlimit="10" stroke-width="11"/>
  <path d="M0,272.35c20-.08,40,.16,60-1.55a387.54,387.54,0,0,0,60-10.33c20-5,40-11.19,60-15s40-5.14,60-5.72,40-.41,60-.27,40,.23,60,.53c8,.11,16,.27,24,.54,12,.4,24,1.06,36,2.28a445.28,445.28,0,0,1,60,10.38c20,4.83,40,11,60,14.69s40,5,60,5.35,40-.35,60-.61,40-.13,60,.75c16,.71,32,1.89,48,3.18l12,1c20,1.66,40,3.34,60,4s40,.2,60-3.29,40-10.06,60-17.36c10-3.64,20-7.47,30-10.85s20-6.33,30-8.71,20-4.17,30-5.59,20-2.46,30-3.24,20-1.32,30-1.7,20-.64,30-.79q6-.09,12-.14,9-.07,18-.09,15,0,30,0c20,0,40,.13,60,.57s40,1.19,60,3.15a401.84,401.84,0,0,1,60,10.16c20,5.07,40,12.06,60,17.2a347.88,347.88,0,0,0,60,10c12,.93,24,1.23,36,1.31,8,.06,16,0,24,0,20,0,40,.14,60,.88s40,2.06,60,3.73c10,.83,20,1.75,30,2.58s20,1.58,30,2.1,20,.8,30,.78a241.31,241.31,0,0,0,30-1.64c20-2.55,40-8.85,60-15.62s40-14,60-13.92" transform="translate(0.05 -13.91)" fill="none" stroke="#000" stroke-miterlimit="10" stroke-width="10"/>
  <path d="M0,305.28c20-.06,40,.14,60-1.27a465.23,465.23,0,0,0,60-8.49c20-4.07,40-9.2,60-12.31s40-4.21,60-4.7,40-.36,60-.21,40,.36,60,1c8,.25,16,.56,24,1,12,.71,24,1.76,36,3.45a401.63,401.63,0,0,1,60,13.44c20,6,40,13.52,60,18.28s40,6.83,60,7.66,40,.44,60,.22,40-.27,60-.27q24,0,48,.15,6,0,12,.09c20,.17,40,.45,60,.31s40-.68,60-4.42,40-10.67,60-18.28c10-3.8,20-7.77,30-11.21a286.71,286.71,0,0,1,30-8.64,295.57,295.57,0,0,1,30-5.1c10-1.22,20-2,30-2.6s20-.95,30-1.22,20-.44,30-.55l12-.09q9-.06,18-.07,15,0,30,0c20,0,40,.16,60,.53s40,1,60,3.06a310.67,310.67,0,0,1,60,11.84c20,6.19,40,15,60,21.51A284.12,284.12,0,0,0,1500,321c12,1.18,24,1.57,36,1.69,8,.08,16,.05,24,.06,20,0,40,.28,60,.53s40,.49,60,.72l30,.34c10,.11,20,.22,30,.25s20,0,30-.32a228.09,228.09,0,0,0,30-2.46c20-3.26,40-10.9,60-19.16s40-17.11,60-17" transform="translate(0.05 -13.91)" fill="none" stroke="#000" stroke-miterlimit="10" stroke-width="9"/>
  <path d="M0,338c20,0,40,.1,60-1a590.58,590.58,0,0,0,60-6.58c20-3.15,40-7.13,60-9.53s40-3.25,60-3.64,40-.36,60-.12,40,.65,60,2.24q12,.95,24,2.47,18,2.28,36,5.9c20,4,40,9.34,60,15.14s40,12.07,60,16.09a339.4,339.4,0,0,0,60,6.23c20,.44,40-.45,60-1.59s40-2.53,60-3.62q24-1.31,48-2,6-.18,12-.31c20-.45,40-.56,60-.87s40-.81,60-4.09,40-9.34,60-15.92c10-3.29,20-6.71,30-9.63a296.75,296.75,0,0,1,30-7.19c10-1.84,20-3.07,30-4s20-1.4,30-1.76,20-.54,30-.69,20-.25,30-.31l12-.05,18,0q15,0,30,0,30,0,60,.3c20,.17,40,.41,60,1.91s40,4.29,60,9.55,40,13,60,18.68a336.7,336.7,0,0,0,60,11.22c12,1.15,24,1.69,36,2.16,8,.32,16,.61,24,1,20,1.07,40,3,60,4.51s40,2.62,60,3.16c10,.28,20,.41,30,.52s20,.18,30,.18,20-.07,30-.38a226.47,226.47,0,0,0,30-2.5c20-3.3,40-11,60-19.34s40-17.28,60-17.13" transform="translate(0.05 -13.91)" fill="none" stroke="#000" stroke-miterlimit="10" stroke-width="8"/>
  <path d="M0,370.63c20,0,40,.08,60-.7s40-2.42,60-4.66,40-5.07,60-6.77,40-2.27,60-2.58,40-.34,60,0,40,.95,60,3.51c8,1,16,2.35,24,3.92,12,2.34,24,5.21,36,8.36,20,5.25,40,11.26,60,16.82s40,10.63,60,13.91a373.4,373.4,0,0,0,60,4.81,577.34,577.34,0,0,0,60-3.41c20-2.06,40-4.78,60-7q24-2.62,48-4.2c4-.27,8-.5,12-.72,20-1.08,40-1.57,60-2.06s40-.94,60-3.76,40-8,60-13.55c10-2.78,20-5.65,30-8.05s20-4.35,30-5.75,20-2.25,30-2.8,20-.79,30-.92,20-.15,30-.17l30-.07h30l30,0c20,0,40,.1,60,.08s40-.16,60,.76,40,2.92,60,7.25,40,11,60,15.86a416.69,416.69,0,0,0,60,9.81c12,1.12,24,1.8,36,2.63,8,.56,16,1.17,24,2,20,2.12,40,5.71,60,8.49s40,4.74,60,5.61c10,.43,20,.58,30,.68s20,.15,30,.13,20-.12,30-.44a226.56,226.56,0,0,0,30-2.55c20-3.34,40-11.12,60-19.53s40-17.44,60-17.28" transform="translate(0.05 -13.91)" fill="none" stroke="#000" stroke-miterlimit="10" stroke-width="7"/>
  <path d="M0,415.56c20,0,40,.06,60-.59s40-2.05,60-4,40-4.29,60-5.73,40-1.91,60-2.18,40-.34,60,0,40,1.1,60,4.19c8,1.24,16,2.85,24,4.69,12,2.77,24,6.06,36,9.41,20,5.58,40,11.31,60,15.63a428.7,428.7,0,0,0,60,8.63,429.1,429.1,0,0,0,60-.06c20-1.38,40-4.07,60-7.42s40-7.36,60-10.54q24-3.81,48-6.07,6-.56,12-1c20-1.57,40-2.37,60-2.93s40-.9,60-2.59,40-4.77,60-8.07c10-1.65,20-3.35,30-4.78s20-2.58,30-3.41,20-1.33,30-1.65,20-.46,30-.53,20-.08,30-.09l30,0h60c20,0,40,.06,60,0s40-.11,60,.43a593.11,593.11,0,0,1,60,4.28c20,2.58,40,6.57,60,9.43s40,4.58,60,6c12,.86,24,1.62,36,2.76,8,.77,16,1.7,24,3,20,3.14,40,8.27,60,12.63a574.51,574.51,0,0,0,60,10.12c10,1.08,20,1.82,30,2.42s20,1.05,30,1.34,20,.41,30,.25a234.41,234.41,0,0,0,30-2c20-2.89,40-9.83,60-17.31s40-15.48,60-15.35" transform="translate(0.05 -13.91)" fill="none" stroke="#000" stroke-miterlimit="10" stroke-width="6"/>
  <path d="M0,460.49c20,0,40,.05,60-.48s40-1.68,60-3.24,40-3.52,60-4.69,40-1.55,60-1.79,40-.33,60,0,40,1.24,60,4.86c8,1.45,16,3.34,24,5.47,12,3.19,24,6.9,36,10.45,20,5.92,40,11.36,60,14.44s40,3.79,60,3.34A516.21,516.21,0,0,0,600,484c20-2.81,40-6.8,60-11.44s40-9.93,60-14.1q24-5,48-7.94,6-.74,12-1.36c20-2.08,40-3.18,60-3.82s40-.84,60-1.42,40-1.52,60-2.57c10-.52,20-1.07,30-1.52s20-.82,30-1.07,20-.41,30-.5,20-.12,30-.14h180c20,0,40-.06,60,.08s40,.49,60,1.32,40,2.15,60,3,40,1.21,60,2.21c12,.6,24,1.43,36,2.89,8,1,16,2.23,24,3.9,20,4.15,40,10.83,60,16.77s40,11.14,60,14.63c10,1.74,20,3.06,30,4.15s20,2,30,2.56,20,.93,30,.94a243.11,243.11,0,0,0,30-1.53c20-2.45,40-8.55,60-15.09s40-13.53,60-13.42" transform="translate(0.05 -13.91)" fill="none" stroke="#000" stroke-miterlimit="10" stroke-width="5"/>
  <path d="M0,513.38c20,0,40,0,60-.31S100,512,120,511s40-2.24,60-3,40-1,60-1.14,40-.21,60,0,40,.81,60,3.19c8,1,16,2.21,24,3.59,12,2.08,24,4.47,36,6.65,20,3.63,40,6.69,60,7.73a353.31,353.31,0,0,0,60-2.29c20-2.37,40-6.13,60-10.3s40-8.74,60-12.82,40-7.65,60-10.44q24-3.34,48-5.27,6-.49,12-.91c20-1.37,40-2.1,60-2.53s40-.54,60-.83,40-.76,60-1.28q15-.4,30-.77t30-.53q15-.18,30-.25t30-.06h180c20,0,40,0,60,.05s40,.23,60,.65,40,1.09,60,1.5,40,.55,60,1.16c12,.37,24,.91,36,1.88,8,.65,16,1.48,24,2.59,20,2.76,40,7.2,60,12s40,9.89,60,14.46c10,2.29,20,4.44,30,6.38s20,3.69,30,5.1,20,2.49,30,3.23a289,289,0,0,0,30,.85c20-.59,40-4,60-7.9s40-8.38,60-8.31" transform="translate(0.05 -13.91)" fill="none" stroke="#000" stroke-miterlimit="10" stroke-width="4"/>
  <path d="M0,566.26c20,0,40,0,60-.13s40-.46,60-.89,40-1,60-1.29,40-.43,60-.5,40-.09,60,0,40,.37,60,1.52c8,.46,16,1.06,24,1.71,12,1,24,2,36,2.84a513.48,513.48,0,0,0,60,1,374.92,374.92,0,0,0,60-7.92c20-4.27,40-10.17,60-15.7s40-10.68,60-14.19,40-5.37,60-6.78q24-1.69,48-2.61,6-.24,12-.44c20-.67,40-1,60-1.24s40-.24,60-.26,40,0,60,0h360q30,0,60,0t60,0c20,0,40-.11,60,.12,12,.14,24,.39,36,.86,8,.32,16,.73,24,1.28a545.28,545.28,0,0,1,60,7.19c20,3.61,40,8.64,60,14.3,10,2.83,20,5.81,30,8.61s20,5.4,30,7.62,20,4.05,30,5.53,20,2.59,30,3.23c20,1.26,40,.59,60-.71s40-3.23,60-3.19" transform="translate(0.05 -13.91)" fill="none" stroke="#000" stroke-miterlimit="10" stroke-width="3"/>
  <path d="M0,612.12q30,0,60-.07t60-.45c20-.22,40-.49,60-.66s40-.22,60-.25,40,0,60,0,40,.13,60,.77c8,.26,16,.6,24,.9,12,.45,24,.79,36,.57a335.79,335.79,0,0,0,60-6.29c20-4,40-10.08,60-15.46s40-10.08,60-13.8,40-6.48,60-8.36,40-2.88,60-3.62q24-.88,48-1.33l12-.22q30-.51,60-.63t60-.13h540c20,0,40-.05,60,.06,12,.07,24,.19,36,.43q12,.25,24,.66c20,.71,40,1.86,60,3.79s40,4.63,60,8.24q15,2.7,30,6.07t30,7.31c10,2.62,20,5.41,30,8.16s20,5.46,30,7.63a323.26,323.26,0,0,0,60,7.16c20,.56,40-.55,60-.49" transform="translate(0.05 -13.91)" fill="none" stroke="#000" stroke-miterlimit="10" stroke-width="2"/>
  <path d="M0,658H60l60,0,60,0h60q30,0,60,0c20,0,40-.11,60,0,8,0,16,.14,24,.09,12-.07,24-.45,36-1.69a263.82,263.82,0,0,0,60-13.61c20-7,40-16.52,60-23s40-10,60-11.9,40-2.28,60-2.53,40-.39,60-.45q24-.08,48-.05h12l60,0h696l24,0q30,.06,60,.38c20,.25,40,.63,60,2.19,10,.78,20,1.85,30,3.53a244.46,244.46,0,0,1,30,7c10,3,20,6.77,30,10.79s20,8.32,30,12a262.72,262.72,0,0,0,60,15c20,2.42,40,2.12,60,2.21" transform="translate(0.05 -13.91)" fill="none" stroke="#000" stroke-miterlimit="10"/>
</svg>
